<svg xmlns="http://www.w3.org/2000/svg" viewBox="0 0 100 100"><defs><style>.cls-1{fill:#566adf}</style></defs><path style="fill:rgba(0, 0, 0, 0.004)" d="M0 0h100v100H0z"/><rect class="cls-1" x="41.04" y="53.23" width="17.92" height="3" rx="1.5" ry="1.5"/><rect class="cls-1" x="41.04" y="58.23" width="17.92" height="3" rx="1.5" ry="1.5"/><rect class="cls-1" x="48" y="63.23" width="4" height="28.43" rx="1" ry="1"/><path class="cls-1" d="M71.3 91.67h-1.71c-.36 0-.69-.19-.87-.51L53.84 64.72c-.37-.67.11-1.49.87-1.49h1.71c.36 0 .69.19.87.51l14.88 26.44c.37.67-.11 1.49-.87 1.49ZM28.7 91.67h1.72c.36 0 .69-.19.87-.51l14.88-26.44a.996.996 0 0 0-.87-1.48h-1.72c-.36 0-.69.19-.87.51L27.83 90.19c-.37.66.11 1.48.87 1.48ZM61.78 16.7l-2.56-8.37H40.78l-2.56 8.37c-.44.37-.72.91-.72 1.53v31c0 1.1.9 2 2 2h21c1.1 0 2-.9 2-2v-31c0-.62-.28-1.16-.72-1.53ZM50 11.33h7l1.5 4.9h-1.1c-.25-.81-1-1.4-1.9-1.4h-11c-.9 0-1.64.59-1.9 1.4h-1.1l1.5-4.9h7Zm0 20.99c-3.31 0-6-2.69-6-6s2.69-6 6-6 6 2.69 6 6-2.69 6-6 6Z"/></svg>