<svg xmlns="http://www.w3.org/2000/svg" viewBox="0 0 100 100"><path style="fill:rgba(0, 0, 0, 0.004)" d="M0 0h100v100H0z"/><path d="M75.5 16.42h-9.55V13.4c0-.55-.45-1-1-1h-8.01c-.55 0-1 .45-1 1v3.02h-3.08v-6.09c0-1.1-.9-2-2-2H29.87a2 2 0 0 0-2 2v6.09h-3.36c-1.1 0-2 .9-2 2v71.25c0 1.1.9 2 2 2h51c1.1 0 2-.9 2-2V18.42c0-1.1-.9-2-2-2ZM40 64.76c0 .55-.45 1-1 1h-8c-.55 0-1-.45-1-1v-8c0-.55.45-1 1-1h8c.55 0 1 .45 1 1v8ZM40 49c0 .55-.45 1-1 1h-8c-.55 0-1-.45-1-1v-8c0-.55.45-1 1-1h8c.55 0 1 .45 1 1v8Zm0-15.76c0 .55-.45 1-1 1h-8c-.55 0-1-.45-1-1v-8c0-.55.45-1 1-1h8c.55 0 1 .45 1 1v8Zm15 31.52c0 .55-.45 1-1 1h-8c-.55 0-1-.45-1-1v-8c0-.55.45-1 1-1h8c.55 0 1 .45 1 1v8ZM55 49c0 .55-.45 1-1 1h-8c-.55 0-1-.45-1-1v-8c0-.55.45-1 1-1h8c.55 0 1 .45 1 1v8Zm0-15.76c0 .55-.45 1-1 1h-8c-.55 0-1-.45-1-1v-8c0-.55.45-1 1-1h8c.55 0 1 .45 1 1v8Zm15 31.52c0 .55-.45 1-1 1h-8c-.55 0-1-.45-1-1v-8c0-.55.45-1 1-1h8c.55 0 1 .45 1 1v8ZM70 49c0 .55-.45 1-1 1h-8c-.55 0-1-.45-1-1v-8c0-.55.45-1 1-1h8c.55 0 1 .45 1 1v8Zm0-15.76c0 .55-.45 1-1 1h-8c-.55 0-1-.45-1-1v-8c0-.55.45-1 1-1h8c.55 0 1 .45 1 1v8Z" style="fill:#566adf"/></svg>