<svg
  viewBox="0 0 60 60"
  fill="none"
  xmlns="http://www.w3.org/2000/svg"
>
  <path
    d="M16.333 54.834a3.97 3.97 0 0 1-1.557-.321c-1.565-.665-2.576-2.243-2.576-4.018V10.234c0-2.977 2.279-5.399 5.081-5.399h25.441c2.801 0 5.08 2.422 5.08 5.399v40.261c0 1.775-1.012 3.353-2.577 4.018-1.485.632-3.145.318-4.328-.821L30.359 43.549c-.231-.222-.485-.222-.718 0L19.105 53.692c-.78.75-1.765 1.142-2.772 1.142zM17.28 9.24c-.319 0-.675.408-.675.993v39.749l9.981-9.608c1.948-1.874 4.883-1.874 6.828 0l9.975 9.602.006-39.743c0-.586-.356-.993-.674-.993H17.28z" 
    fill="currentColor"/>
</svg>
