<?xml version="1.0" encoding="utf-8"?>
<!-- Generator: Adobe Illustrator 26.0.1, SVG Export Plug-In . SVG Version: 6.00 Build 0)  -->
<svg version="1.1" id="レイヤー_1" xmlns="http://www.w3.org/2000/svg" xmlns:xlink="http://www.w3.org/1999/xlink" x="0px"
	 y="0px" viewBox="0 0 70 70" style="enable-background:new 0 0 70 70;" xml:space="preserve">
<style type="text/css">
	.st0{fill:#FFFFFF;}
	.st1{fill:none;}
	.st2{fill:#393A3A;}
</style>
<rect class="st0" width="70" height="70"/>
<g>
	<rect x="16" y="16" class="st1" width="38" height="38"/>
	<path class="st2" d="M35,46.8c-5.2,0-9.4-4.1-9.4-9.4s4.2-9.4,9.4-9.4s9.4,4.2,9.4,9.4l0,0C44.4,42.7,40.2,46.8,35,46.8z M35,31
		c-3.5,0-6.5,2.9-6.5,6.5s2.9,6.5,6.4,6.5s6.5-2.9,6.5-6.5l0,0C41.5,33.9,38.5,31,35,31L35,31z"/>
	<circle class="st2" cx="35" cy="37.5" r="4.7"/>
	<path class="st2" d="M47.7,51H22.3c-2.5,0-4.6-2-4.6-4.6V28.7c0-2.5,2-4.6,4.6-4.6H26l2.6-4.1c0.4-0.8,1.4-1.3,2.3-1.3h8.1
		c0.9,0,1.9,0.4,2.3,1.3l2.6,4.1h3.7c2.5,0,4.6,2,4.6,4.6v17.7C52.1,48.9,50.2,51,47.7,51z M22.3,27c-1,0-1.8,0.8-1.8,1.8l0,0v17.7
		c0,1,0.8,1.8,1.8,1.8l0,0h25.3c1,0,1.8-0.8,1.8-1.7l0,0V28.7c0-1-0.8-1.8-1.8-1.8h-4.6c-0.4,0-0.9-0.3-1.2-0.7l-3-4.7H31l-3,4.7
		c-0.3,0.4-0.7,0.7-1.2,0.7C26.9,27,22.3,27,22.3,27z"/>
	<circle class="st2" cx="45.6" cy="30.7" r="1.6"/>
</g>
</svg>
