<svg viewBox="0 0 25 25" fill="none" xmlns="http://www.w3.org/2000/svg">
  <g clip-path="url(#clip0_1166_1099)">
    <path d="M11.7708 15.4751H13.2292C13.3442 15.4751 13.4375 15.3818 13.4375 15.2668V9.01676C13.4375 8.9017 13.3442 8.80843 13.2292 8.80843H11.7708C11.6558 8.80843 11.5625 8.9017 11.5625 9.01676V15.2668C11.5625 15.3818 11.6558 15.4751 11.7708 15.4751Z" fill="#393A3A"/>
    <path d="M11.775 19.3291H13.225C13.3424 19.3291 13.4375 19.234 13.4375 19.1166V17.6666C13.4375 17.5492 13.3424 17.4541 13.225 17.4541H11.775C11.6576 17.4541 11.5625 17.5492 11.5625 17.6666V19.1166C11.5625 19.234 11.6576 19.3291 11.775 19.3291Z" fill="#393A3A"/>
    <path d="M22.5004 22.4998H2.50037C2.2647 22.4977 2.03366 22.4342 1.83008 22.3154C1.62651 22.1967 1.45745 22.0268 1.33961 21.8227C1.22178 21.6186 1.15925 21.3873 1.15822 21.1516C1.15718 20.916 1.21767 20.6841 1.3337 20.479L11.3337 3.16646C11.4528 2.9615 11.6236 2.79139 11.8291 2.67315C12.0346 2.55491 12.2675 2.49268 12.5045 2.49268C12.7416 2.49268 12.9745 2.55491 13.18 2.67315C13.3854 2.79139 13.5563 2.9615 13.6754 3.16646L23.6754 20.479C23.7917 20.6847 23.8522 20.9173 23.8508 21.1537C23.8494 21.3901 23.7862 21.622 23.6673 21.8263C23.5485 22.0307 23.3783 22.2003 23.1736 22.3185C22.9688 22.4366 22.7367 22.4992 22.5004 22.4998ZM3.41704 20.6248H21.592L12.5004 4.8873L3.41704 20.6248Z" fill="#393A3A"/>
  </g>
  <defs>
    <clipPath id="clip0_1166_1099">
      <rect width="25" height="25" fill="white"/>
    </clipPath>
  </defs>
</svg>
