<svg xmlns="http://www.w3.org/2000/svg" width="40" height="40" viewBox="0 0 40 40">
  <defs>
    <style>
      .cls-1, .cls-2, .cls-3 {
        fill: none;
      }

      .cls-2 {
        stroke: #3a4248;
        stroke-linecap: round;
      }

      .cls-3 {
        stroke: #16abe3;
      }

      .cls-4 {
        stroke: none;
      }
    </style>
  </defs>
  <g id="family_support_center" data-name="family support center" transform="translate(-1032 -991)">
    <rect id="Rectangle_13653" data-name="Rectangle 13653" class="cls-1" width="40" height="40" transform="translate(1032 991)"/>
    <g id="Group_20534" data-name="Group 20534" transform="translate(1044 1003)">
      <g id="Group_10344" data-name="Group 10344" transform="translate(0)">
        <path id="Path_3378" data-name="Path 3378" class="cls-2" d="M21.135,3.151V9.489a3.155,3.155,0,0,1-3.151,3.151H13.952l-3.244,3.45a.644.644,0,0,1-.47.2.651.651,0,0,1-.24-.046.644.644,0,0,1-.409-.6V12.64H8.322A3.155,3.155,0,0,1,5.171,9.489V3.151a3.134,3.134,0,0,1,.55-1.78A8.365,8.365,0,0,1,6.449.617,3.126,3.126,0,0,1,8.322,0h9.857a2.35,2.35,0,0,1,2.146.954" transform="translate(-5.171 0)"/>
        <g id="Group_8165" data-name="Group 8165" transform="translate(2.165 4.481)">
          <g id="Ellipse_882" data-name="Ellipse 882" class="cls-3" transform="translate(0)">
            <ellipse class="cls-4" cx="1.445" cy="1.444" rx="1.445" ry="1.444"/>
            <ellipse class="cls-1" cx="1.445" cy="1.444" rx="0.945" ry="0.944"/>
          </g>
          <g id="Ellipse_883" data-name="Ellipse 883" class="cls-3" transform="translate(4.334)">
            <ellipse class="cls-4" cx="1.445" cy="1.444" rx="1.445" ry="1.444"/>
            <ellipse class="cls-1" cx="1.445" cy="1.444" rx="0.945" ry="0.944"/>
          </g>
          <g id="Ellipse_884" data-name="Ellipse 884" class="cls-3" transform="translate(8.669)">
            <ellipse class="cls-4" cx="1.445" cy="1.444" rx="1.445" ry="1.444"/>
            <ellipse class="cls-1" cx="1.445" cy="1.444" rx="0.945" ry="0.944"/>
          </g>
        </g>
      </g>
    </g>
  </g>
</svg>
