<svg id="レイヤー_1" data-name="レイヤー 1" xmlns="http://www.w3.org/2000/svg" viewBox="0 0 60 60"><defs><style>.cls-1{fill:none;}.cls-2{fill:#393a3a;}</style></defs><rect class="cls-1" y="0.13" width="60" height="60"/><path class="cls-2" d="M35,30,49.27,15.68a1,1,0,0,0,0-1.41l-3.54-3.54a1,1,0,0,0-1.41,0L30,25.05,15.68,10.73a1,1,0,0,0-1.41,0l-3.54,3.54a1,1,0,0,0,0,1.41L25.05,30,10.73,44.32a1,1,0,0,0,0,1.41l3.54,3.54a1,1,0,0,0,1.41,0L30,35,44.32,49.27a1,1,0,0,0,1.41,0l3.54-3.54a1,1,0,0,0,0-1.41Z"/></svg>