<?xml version="1.0" encoding="utf-8"?>
<!-- Generator: Adobe Illustrator 26.0.1, SVG Export Plug-In . SVG Version: 6.00 Build 0)  -->
<svg
	version="1.1"
	id="レイヤー_1"
	xmlns="http://www.w3.org/2000/svg"
	xmlns:xlink="http://www.w3.org/1999/xlink"
	x="0px"
	y="0px"
	viewBox="0 0 70 70"
	style="enable-background:new 0 0 70 70;"
	xml:space="preserve"
>
	<style type="text/css">
		.st0{fill:#FFFFFF;}
		.st1{fill:none;}
		.st2{fill:#39393A;}
	</style>
	<rect class="st0" width="70" height="70"/>
	<rect x="16" y="16" class="st1" width="38" height="38"/>
	<path
		class="st2"
		d="M36.8,52.3h-3.7c-1.3,0-2.5-1-2.7-2.3l-0.3-1.8c-1.5-0.6-3-1.4-4.2-2.4l-1.7,0.7c-1.2,0.5-2.7,0-3.3-1.1
		l-1.8-3.2c-0.7-1.2-0.4-2.6,0.7-3.5l1.5-1.1c-0.1-0.8-0.2-1.6-0.2-2.4c0-0.8,0.1-1.6,0.2-2.4l-1.5-1.2c-1.1-0.8-1.3-2.3-0.7-3.5
		l1.8-3.2c0.7-1.2,2.1-1.7,3.3-1.1l1.7,0.7c1.2-1,2.7-1.9,4.2-2.4l0.3-1.9c0.2-1.3,1.3-2.3,2.7-2.3h3.7c1.3,0,2.5,1,2.7,2.3l0.3,1.9
		c1.5,0.6,2.9,1.4,4.2,2.4l1.8-0.7c1.2-0.5,2.7,0,3.3,1.1l1.8,3.2c0.7,1.2,0.4,2.6-0.7,3.5l-1.5,1.2c0.2,0.8,0.2,1.6,0.2,2.4
		c0,0.8-0.1,1.6-0.2,2.4l1.5,1.2c1.1,0.8,1.3,2.3,0.7,3.5L49,45.2c-0.7,1.2-2.1,1.7-3.3,1.1L44,45.7c-1.3,1.1-2.7,1.9-4.2,2.4
		l-0.3,1.8C39.3,51.3,38.2,52.3,36.8,52.3z M33.3,49.4h3.4l0.5-3.5l0.9-0.3c1.7-0.5,3.3-1.4,4.6-2.7l0.7-0.6l3.3,1.3l1.7-2.9
		l-2.8-2.2l0.2-0.9c0.2-0.9,0.3-1.8,0.3-2.6c0-0.9-0.1-1.8-0.3-2.7l-0.2-0.9l2.8-2.2l-1.7-2.9l-3.3,1.3L42.7,27
		c-1.3-1.2-2.9-2.2-4.6-2.7l-0.9-0.3l-0.5-3.5h-3.4l-0.5,3.5l-0.9,0.3c-1.7,0.5-3.3,1.4-4.6,2.7l-0.7,0.6l-3.3-1.3l-1.7,2.9l2.8,2.2
		l-0.2,0.9c-0.2,0.9-0.3,1.8-0.3,2.7c0,0.9,0.1,1.8,0.3,2.7l0.2,0.9l-2.8,2.2l1.7,2.9l3.3-1.3l0.7,0.6c1.3,1.3,2.9,2.2,4.6,2.7
		l0.9,0.3L33.3,49.4z M48.4,40.8C48.4,40.8,48.4,40.8,48.4,40.8L48.4,40.8z M35,41.4c-3.5,0-6.3-2.8-6.3-6.3s2.8-6.3,6.3-6.3
		s6.3,2.8,6.3,6.3S38.5,41.4,35,41.4z M35,31.5c-1.9,0-3.5,1.6-3.5,3.5c0,1.9,1.6,3.5,3.5,3.5c1.9,0,3.5-1.6,3.5-3.5
		C38.5,33.1,36.9,31.5,35,31.5z"/>
</svg>
