<?xml version="1.0" encoding="utf-8"?>
<!-- Generator: Adobe Illustrator 26.0.1, SVG Export Plug-In . SVG Version: 6.00 Build 0)  -->
<svg version="1.1" id="レイヤー_1" xmlns="http://www.w3.org/2000/svg" xmlns:xlink="http://www.w3.org/1999/xlink" x="0px"
	 y="0px" viewBox="0 0 70 70" style="enable-background:new 0 0 70 70;" xml:space="preserve">
<style type="text/css">
	.st0{opacity:0.8;}
	.st1{clip-path:url(#SVGID_00000180350471564378550700000005841513768957607318_);}
	.st2{fill:#FFFFFF;}
	.st3{fill:none;}
</style>
<circle class="st0" cx="35" cy="35" r="35"/>
<g>
	<g>
		<defs>
			<circle id="SVGID_1_" cx="35" cy="35" r="35"/>
		</defs>
		<clipPath id="SVGID_00000138557230068084684960000000407651478580791721_">
			<use xlink:href="#SVGID_1_"  style="overflow:visible;"/>
		</clipPath>
		<g style="clip-path:url(#SVGID_00000138557230068084684960000000407651478580791721_);">
			<path class="st2" d="M34.5,18.7l-5.5,16c0,0.1,0,0.2,0,0.3l5.5,16c0.1,0.3,0.4,0.4,0.6,0.3c0.1-0.1,0.2-0.2,0.3-0.3L41,35
				c0-0.1,0-0.2,0-0.3l-5.5-16c-0.1-0.3-0.3-0.4-0.6-0.4C34.7,18.3,34.6,18.5,34.5,18.7z M34.5,47.9l-3.9-11.4
				c-0.1-0.3,0-0.5,0.3-0.6l0,0c0.1,0,0.1,0,0.2,0h7.8c0.3,0,0.5,0.2,0.5,0.5c0,0.1,0,0.1,0,0.2L35.5,48c-0.1,0.3-0.3,0.4-0.6,0.3
				l0,0C34.7,48.2,34.6,48.1,34.5,47.9z"/>
			<path class="st2" d="M41.6,7.4v3.1c3.9,1.1,7.6,3.1,10.6,5.8L49,19.4l1.4,1.4l3.1-3.1c4.1,4.4,6.5,10.1,6.7,16.2h-4.5v2h4.5
				c-0.3,6-2.6,11.7-6.7,16.1l-3.1-3.2L49,50.3l3.2,3.1C47.7,57.5,42,59.9,36,60.2v-4.5h-2v4.5c-6-0.2-11.7-2.6-16.2-6.7l3.2-3.1
				L19.6,49l-3.2,3c-4.1-4.4-6.5-10.1-6.7-16.1h4.5v-2H9.7c0.2-6,2.6-11.7,6.7-16.2l3.1,3.1l1.4-1.4l-3.2-3.1
				c3-2.8,6.6-4.8,10.6-5.8V7.4C13.2,11,3.8,26.3,7.5,41.5S26.4,66,41.6,62.4s24.6-18.9,20.9-34.1C60,17.9,51.9,9.8,41.6,7.4z"/>
			<path class="st2" d="M38.8,7.2V16l-6-5.6v5.2h-1.6V6.8l6,5.6V7.2H38.8z"/>
			<rect x="5" y="5" class="st3" width="60" height="60"/>
		</g>
	</g>
</g>
</svg>
