<svg viewBox="0 0 14 14" fill="none" xmlns="http://www.w3.org/2000/svg">
<path d="M13.2377 3.32934L10.4822 6.08405L7.97829 3.57939L10.733 0.824678C9.89248 0.479142 8.96852 0.390027 8.07747 0.568556C7.18641 0.747084 6.3681 1.18527 5.72558 1.82794C5.08306 2.47061 4.64507 3.28903 4.46675 4.18013C4.28843 5.07123 4.37776 5.99516 4.7235 6.8356L0.277997 11.2804C0.21216 11.3461 0.159929 11.4242 0.124292 11.5101C0.0886556 11.596 0.0703125 11.6882 0.0703125 11.7812C0.0703125 11.8742 0.0886556 11.9663 0.124292 12.0523C0.159929 12.1382 0.21216 12.2162 0.277997 12.282L1.78108 13.7851C1.8468 13.8509 1.92487 13.9031 2.0108 13.9388C2.09673 13.9744 2.18884 13.9927 2.28187 13.9927C2.3749 13.9927 2.46701 13.9744 2.55295 13.9388C2.63888 13.9031 2.71694 13.8509 2.78266 13.7851L7.22745 9.33955C8.06796 9.68556 8.99207 9.77509 9.88336 9.59685C10.7747 9.41862 11.5933 8.9806 12.2361 8.33797C12.8785 7.69501 13.3163 6.8764 13.4945 5.98517C13.6728 5.09394 13.5834 4.1699 13.2377 3.32934Z" fill="currentColor"/>
</svg>
