<svg xmlns="http://www.w3.org/2000/svg" width="40" height="40" viewBox="0 0 40 40">
  <defs>
    <style>
      .cls-1 {
        fill: none;
      }

      .cls-2 {
        fill: #3a4248;
      }
    </style>
  </defs>
  <g id="copy_grey" data-name="copy grey" transform="translate(-600 -2670)">
    <rect id="Rectangle_10727" data-name="Rectangle 10727" class="cls-1" width="40" height="40" transform="translate(600 2670)"/>
    <path id="Union_116" data-name="Union 116" class="cls-2" d="M23158.109,12488.708a1.114,1.114,0,0,1-1.111-1.11v-11.049a1.109,1.109,0,0,1,1.111-1.1h1.047v-1.338a1.105,1.105,0,0,1,1.109-1.1h8.369a1.105,1.105,0,0,1,1.109,1.1v11.049a1.11,1.11,0,0,1-1.109,1.11h-1.041v1.332a1.114,1.114,0,0,1-1.111,1.11Zm-.156-12.159v11.049a.155.155,0,0,0,.156.156h8.373a.155.155,0,0,0,.156-.156v-11.049a.159.159,0,0,0-.156-.156h-8.373A.159.159,0,0,0,23157.953,12476.549Zm2.15-2.442v1.338h6.379a1.109,1.109,0,0,1,1.111,1.1v8.764h1.041a.162.162,0,0,0,.162-.157v-11.049a.165.165,0,0,0-.162-.156h-8.369A.165.165,0,0,0,23160.1,12474.106Zm-.512,12.066a.523.523,0,0,1,0-1.041H23165a.523.523,0,0,1,0,1.041Zm0-2.344a.523.523,0,0,1,0-1.041H23165a.523.523,0,0,1,0,1.041Zm0-2.343a.519.519,0,0,1,0-1.035H23165a.519.519,0,0,1,0,1.035Zm0-2.344a.523.523,0,0,1,0-1.041H23165a.523.523,0,0,1,0,1.041Z" transform="translate(-22542.998 -9791.002)"/>
  </g>
</svg>
