<?xml version="1.0" encoding="utf-8"?>
<!-- Generator: Adobe Illustrator 26.0.1, SVG Export Plug-In . SVG Version: 6.00 Build 0)  -->
<svg version="1.1" id="レイヤー_1" xmlns="http://www.w3.org/2000/svg" xmlns:xlink="http://www.w3.org/1999/xlink" x="0px"
	 y="0px" viewBox="0 0 70 70" style="enable-background:new 0 0 70 70;" xml:space="preserve">
<style type="text/css">
	.st0{opacity:0.8;}
	.st1{clip-path:url(#SVGID_00000145054370283402749500000001529540455124361406_);}
	.st2{fill:none;}
	.st3{fill:#FFFFFF;}
</style>
<circle class="st0" cx="35" cy="35" r="35"/>
<g>
	<defs>
		<circle id="SVGID_1_" cx="35" cy="35" r="35"/>
	</defs>
	<clipPath id="SVGID_00000057108633597808304160000002830121014902275216_">
		<use xlink:href="#SVGID_1_"  style="overflow:visible;"/>
	</clipPath>
	<g style="clip-path:url(#SVGID_00000057108633597808304160000002830121014902275216_);">
		<rect x="10" y="10" class="st2" width="50" height="50"/>
		<path class="st3" d="M35,54.4c-10.7,0-19.4-8.7-19.4-19.4S24.3,15.6,35,15.6S54.4,24.3,54.4,35c0,0,0,0,0,0
			C54.4,45.7,45.7,54.4,35,54.4z M35,19.4c-8.6,0-15.6,7-15.6,15.6s7,15.6,15.6,15.6c8.6,0,15.6-7,15.6-15.6
			C50.6,26.4,43.6,19.4,35,19.4L35,19.4L35,19.4z"/>
		<circle class="st3" cx="35" cy="35" r="11.7"/>
		<rect x="33.1" y="11.7" class="st3" width="3.8" height="5.8"/>
		<rect x="33.1" y="52.5" class="st3" width="3.8" height="5.8"/>
		<rect x="52.5" y="32.8" class="st3" width="5.8" height="3.8"/>
		<rect x="11.7" y="32.8" class="st3" width="5.8" height="3.8"/>
	</g>
</g>
</svg>
