<svg xmlns="http://www.w3.org/2000/svg" xmlns:xlink="http://www.w3.org/1999/xlink" width="55.961" height="46.071" viewBox="0 0 55.961 46.071">
  <defs>
    <style>
      .cls-1 {
        fill: none;
      }

      .cls-2 {
        fill: #606770;
      }

      .cls-3 {
        fill: #16abe2;
        fill-rule: evenodd;
      }

      .cls-4, .cls-6 {
        fill: #fff;
      }

      .cls-5, .cls-6 {
        stroke: none;
      }

      .cls-7 {
        filter: url(#Path_22-2);
      }

      .cls-8 {
        filter: url(#Path_22);
      }
    </style>
    <filter id="Path_22" x="23" y="0" width="32.961" height="38.071" filterUnits="userSpaceOnUse">
      <feOffset dy="3" input="SourceAlpha"/>
      <feGaussianBlur stdDeviation="3" result="blur"/>
      <feFlood flood-opacity="0.161"/>
      <feComposite operator="in" in2="blur"/>
      <feComposite in="SourceGraphic"/>
    </filter>
    <filter id="Path_22-2" x="0" y="8" width="32.961" height="38.071" filterUnits="userSpaceOnUse">
      <feOffset dy="3" input="SourceAlpha"/>
      <feGaussianBlur stdDeviation="3" result="blur-2"/>
      <feFlood flood-opacity="0.161"/>
      <feComposite operator="in" in2="blur-2"/>
      <feComposite in="SourceGraphic"/>
    </filter>
  </defs>
  <g id="datahub" transform="translate(-587 -1857.431)">
    <rect id="Rectangle_11318" data-name="Rectangle 11318" class="cls-1" width="40" height="40" transform="translate(595 1863)"/>
    <g id="Group_8849" data-name="Group 8849" transform="translate(20777 12809)">
      <g id="ico_datahub" data-name="ico datahub">
        <g id="grid-world" transform="translate(-20179 -10941)">
          <path id="Path_1667" data-name="Path 1667" class="cls-2" d="M34.667,16.2A17.35,17.35,0,0,0,18.511.039V0H16.2V.039A17.352,17.352,0,0,0,.039,16.2H0v2.314H.039A17.35,17.35,0,0,0,16.2,34.667v.042h2.314v-.042A17.348,17.348,0,0,0,34.667,18.511h.042V16.2ZM10.864,3.783A18.4,18.4,0,0,0,8.143,9.256H4.676A15.12,15.12,0,0,1,10.864,3.783Zm-7.4,7.786H7.534A27.48,27.48,0,0,0,6.965,16.2H2.358A14.91,14.91,0,0,1,3.466,11.57ZM2.358,18.511H6.965a27.48,27.48,0,0,0,.569,4.628H3.466A14.91,14.91,0,0,1,2.358,18.511Zm2.319,6.942H8.14a18.345,18.345,0,0,0,2.723,5.472A15.1,15.1,0,0,1,4.676,25.453ZM16.2,32.247c-2.379-.636-4.427-3.191-5.669-6.794H16.2Zm0-9.108H9.878a25.861,25.861,0,0,1-.6-4.628H16.2Zm0-6.942H9.279a25.861,25.861,0,0,1,.6-4.628H16.2Zm0-6.942H10.528c1.243-3.6,3.29-6.157,5.669-6.791Zm13.835,0H26.571a18.348,18.348,0,0,0-2.726-5.472A15.134,15.134,0,0,1,30.032,9.256ZM18.511,2.464c2.376.634,4.426,3.189,5.669,6.791H18.511Zm0,9.105h6.317a26.069,26.069,0,0,1,.6,4.628H18.511Zm0,6.942H25.43a25.649,25.649,0,0,1-.6,4.628H18.511Zm0,13.735V25.453H24.18C22.938,29.056,20.888,31.61,18.511,32.247Zm5.334-1.321a18.486,18.486,0,0,0,2.726-5.472h3.462A15.118,15.118,0,0,1,23.845,30.925Zm7.4-7.786H27.174a27.48,27.48,0,0,0,.569-4.628h4.6A14.843,14.843,0,0,1,31.242,23.139Zm-3.5-6.942a27.48,27.48,0,0,0-.569-4.628h4.068A14.91,14.91,0,0,1,32.351,16.2Z"/>
        </g>
        <g id="Group_6590" data-name="Group 6590" transform="translate(-33670 -21686)">
          <g id="Group_530" data-name="Group 530" transform="translate(13514 10742.431)">
            <g class="cls-8" transform="matrix(1, 0, 0, 1, -34, -8)">
              <g id="Path_22-3" data-name="Path 22" class="cls-3" transform="translate(33.6 7.93)">
                <path class="cls-5" d="M 5.82536792755127 17.13864326477051 L 5.821367740631104 17.13864326477051 L 5.813297748565674 17.13859367370605 C 5.279078006744385 17.1342830657959 4.782827854156494 16.8433723449707 4.518147945404053 16.3793830871582 L 2.44475793838501 12.73168277740479 C 1.755157828330994 11.51852321624756 1.237837910652161 10.60844326019287 0.8929178714752197 10.00139236450195 L 0.5045678615570068 9.317612648010254 C 0.4554963409900665 9.231125831604004 0.4146468341350555 9.159130096435547 0.3809982538223267 9.095555305480957 L 0.3795178532600403 9.096412658691406 L 0.3563778698444366 9.056443214416504 L 0.3527678549289703 9.050212860107422 L 0.3492578566074371 9.043932914733887 L 0.3448578715324402 9.036083221435547 C 0.2284178584814072 8.828163146972656 -0.04426213726401329 8.341252326965332 -0.2431821376085281 7.710093021392822 C -0.4818121492862701 6.95632266998291 -0.5980021357536316 6.23433256149292 -0.5980021357536316 5.50410270690918 C -0.5980021357536316 1.954672813415527 2.288727760314941 -0.9329972267150879 5.836997985839844 -0.9329972267150879 C 9.194128036499023 -0.9329972267150879 11.98719787597656 1.570212841033936 12.33390808105469 4.889682769775391 C 12.41100788116455 5.635512828826904 12.33206748962402 6.434892654418945 12.08560752868652 7.406442642211914 C 11.89989757537842 8.13400936126709 11.39809417724609 9.176510810852051 11.01693153381348 9.771694183349609 C 10.97920227050781 9.835298538208008 10.81964111328125 10.10559844970703 10.15340805053711 11.23884296417236 C 9.646147727966309 12.1016731262207 8.358298301696777 14.29340267181396 8.358287811279297 14.29341316223145 L 7.122077941894531 16.3974723815918 C 6.850837707519531 16.855712890625 6.354598045349121 17.13864326477051 5.82536792755127 17.13864326477051 Z M 9.304477691650391 8.73895263671875 C 9.127408027648926 9.044322967529297 9.127958297729492 9.425902366638184 9.30589771270752 9.734783172607422 L 10.14382648468018 9.252037048339844 L 9.304477691650391 8.73895263671875 Z"/>
                <path class="cls-6" d="M 5.836997985839844 0.06700325012207031 C 2.84108829498291 0.06700325012207031 0.4019975662231445 2.506782531738281 0.4019975662231445 5.50410270690918 C 0.4019975662231445 6.128952980041504 0.5029878616333008 6.753803253173828 0.7105674743652344 7.409502983093262 C 0.8809776306152344 7.950202941894531 1.120118141174316 8.373783111572266 1.221807479858398 8.555412292480469 L 1.24494743347168 8.595382690429688 C 1.24494743347168 8.59819221496582 2.626487731933594 11.02746295928955 5.386767864227295 15.88389301300049 C 5.475897789001465 16.04014205932617 5.641427993774414 16.13717269897461 5.82130765914917 16.13862228393555 C 5.822658061981201 16.13863372802734 5.824018001556396 16.13863945007324 5.825366973876953 16.13863945007324 C 6.003692150115967 16.13863945007324 6.168935775756836 16.04454040527344 6.259877681732178 15.89090251922607 L 7.496118068695068 13.78680229187012 C 7.496118068695068 13.78680229187012 8.7840576171875 11.59492301940918 9.291347503662109 10.73204231262207 C 10.10190773010254 9.353290557861328 10.1720609664917 9.235590934753418 10.17239093780518 9.235587120056152 C 10.17245864868164 9.235586166381836 10.16956806182861 9.240572929382324 10.16956806182861 9.240572929382324 C 10.50267791748047 8.7230224609375 10.96272754669189 7.762252807617188 11.11630821228027 7.160542488098145 C 11.33370780944824 6.303572654724121 11.40383815765381 5.61771297454834 11.33931827545166 4.993562698364258 C 11.04617786407471 2.187003135681152 8.681427955627441 0.06700325012207031 5.836997985839844 0.06700325012207031 M 5.836997985839844 -1.93299674987793 C 9.707777976989746 -1.93299674987793 12.92842769622803 0.9554529190063477 13.32849788665771 4.785792350769043 C 13.41815757751465 5.653182983398438 13.33115768432617 6.563363075256348 13.05489826202393 7.65233325958252 C 12.83771896362305 8.503217697143555 12.28617191314697 9.639599800109863 11.86883735656738 10.29565238952637 C 11.82100296020508 10.37644577026367 11.64681625366211 10.67173957824707 11.01546764373779 11.74564266204834 C 10.50824737548828 12.60842323303223 9.220487594604492 14.80000305175781 9.220467567443848 14.80002307891846 L 7.984268188476562 16.904052734375 L 7.982627868652344 16.9068431854248 L 7.980978012084961 16.90963363647461 C 7.532268047332764 17.6677131652832 6.706287860870361 18.13864326477051 5.82536792755127 18.13864326477051 L 5.817957878112793 18.13864326477051 L 5.806498050689697 18.13857269287109 C 4.916078090667725 18.13139343261719 4.090087890625 17.64717292785645 3.649538040161133 16.87486267089844 L 1.575397491455078 13.22586250305176 C 0.8857574462890625 12.01263236999512 0.368408203125 11.10249328613281 0.023468017578125 10.49541282653809 L -0.3651924133300781 9.811092376708984 C -0.4064836502075195 9.738315582275391 -0.4466533660888672 9.66751766204834 -0.4845523834228516 9.59665584564209 L -0.4859123229980469 9.597442626953125 L -0.5090522766113281 9.557472229003906 L -0.5162620544433594 9.545013427734375 L -0.5233020782470703 9.532452583312988 L -0.5276317596435547 9.524703025817871 C -0.6591320037841797 9.289902687072754 -0.9670724868774414 8.740042686462402 -1.196942329406738 8.010683059692383 C -1.466562271118164 7.159012794494629 -1.598002433776855 6.338302612304688 -1.598002433776855 5.50410270690918 C -1.598002433776855 1.40327262878418 1.737327575683594 -1.93299674987793 5.836997985839844 -1.93299674987793 Z"/>
              </g>
            </g>
          </g>
          <circle id="Ellipse_79" data-name="Ellipse 79" class="cls-4" cx="2.5" cy="2.5" r="2.5" transform="translate(13517 10745)"/>
        </g>
        <g id="Group_6592" data-name="Group 6592" transform="translate(-33693 -21678)">
          <g id="Group_530-2" data-name="Group 530" transform="translate(13514 10742.431)">
            <g class="cls-7" transform="matrix(1, 0, 0, 1, -11, -16)">
              <g id="Path_22-4" data-name="Path 22" class="cls-3" transform="translate(10.6 15.93)">
                <path class="cls-5" d="M 5.82536792755127 17.13864326477051 L 5.821367740631104 17.13864326477051 L 5.813297748565674 17.13859367370605 C 5.279078006744385 17.1342830657959 4.782827854156494 16.8433723449707 4.518147945404053 16.3793830871582 L 2.44475793838501 12.73168277740479 C 1.755157828330994 11.51852321624756 1.237837910652161 10.60844326019287 0.8929178714752197 10.00139236450195 L 0.5045678615570068 9.317612648010254 C 0.4554963409900665 9.231125831604004 0.4146468341350555 9.159130096435547 0.3809982538223267 9.095555305480957 L 0.3795178532600403 9.096412658691406 L 0.3563778698444366 9.056443214416504 L 0.3527678549289703 9.050212860107422 L 0.3492578566074371 9.043932914733887 L 0.3448578715324402 9.036083221435547 C 0.2284178584814072 8.828163146972656 -0.04426213726401329 8.341252326965332 -0.2431821376085281 7.710093021392822 C -0.4818121492862701 6.95632266998291 -0.5980021357536316 6.23433256149292 -0.5980021357536316 5.50410270690918 C -0.5980021357536316 1.954672813415527 2.288727760314941 -0.9329972267150879 5.836997985839844 -0.9329972267150879 C 9.194128036499023 -0.9329972267150879 11.98719787597656 1.570212841033936 12.33390808105469 4.889682769775391 C 12.41100788116455 5.635512828826904 12.33206748962402 6.434892654418945 12.08560752868652 7.406442642211914 C 11.89989757537842 8.13400936126709 11.39809417724609 9.176510810852051 11.01693153381348 9.771694183349609 C 10.97920227050781 9.835298538208008 10.81964111328125 10.10559844970703 10.15340805053711 11.23884296417236 C 9.646147727966309 12.1016731262207 8.358298301696777 14.29340267181396 8.358287811279297 14.29341316223145 L 7.122077941894531 16.3974723815918 C 6.850837707519531 16.855712890625 6.354598045349121 17.13864326477051 5.82536792755127 17.13864326477051 Z M 9.304477691650391 8.73895263671875 C 9.127408027648926 9.044322967529297 9.127958297729492 9.425902366638184 9.30589771270752 9.734783172607422 L 10.14382648468018 9.252037048339844 L 9.304477691650391 8.73895263671875 Z"/>
                <path class="cls-6" d="M 5.836997985839844 0.06700325012207031 C 2.84108829498291 0.06700325012207031 0.4019975662231445 2.506782531738281 0.4019975662231445 5.50410270690918 C 0.4019975662231445 6.128952980041504 0.5029878616333008 6.753803253173828 0.7105674743652344 7.409502983093262 C 0.8809776306152344 7.950202941894531 1.120118141174316 8.373783111572266 1.221807479858398 8.555412292480469 L 1.24494743347168 8.595382690429688 C 1.24494743347168 8.59819221496582 2.626487731933594 11.02746295928955 5.386767864227295 15.88389301300049 C 5.475897789001465 16.04014205932617 5.641427993774414 16.13717269897461 5.82130765914917 16.13862228393555 C 5.822658061981201 16.13863372802734 5.824018001556396 16.13863945007324 5.825366973876953 16.13863945007324 C 6.003692150115967 16.13863945007324 6.168935775756836 16.04454040527344 6.259877681732178 15.89090251922607 L 7.496118068695068 13.78680229187012 C 7.496118068695068 13.78680229187012 8.7840576171875 11.59492301940918 9.291347503662109 10.73204231262207 C 10.10190773010254 9.353290557861328 10.1720609664917 9.235590934753418 10.17239093780518 9.235587120056152 C 10.17245864868164 9.235586166381836 10.16956806182861 9.240572929382324 10.16956806182861 9.240572929382324 C 10.50267791748047 8.7230224609375 10.96272754669189 7.762252807617188 11.11630821228027 7.160542488098145 C 11.33370780944824 6.303572654724121 11.40383815765381 5.61771297454834 11.33931827545166 4.993562698364258 C 11.04617786407471 2.187003135681152 8.681427955627441 0.06700325012207031 5.836997985839844 0.06700325012207031 M 5.836997985839844 -1.93299674987793 C 9.707777976989746 -1.93299674987793 12.92842769622803 0.9554529190063477 13.32849788665771 4.785792350769043 C 13.41815757751465 5.653182983398438 13.33115768432617 6.563363075256348 13.05489826202393 7.65233325958252 C 12.83771896362305 8.503217697143555 12.28617191314697 9.639599800109863 11.86883735656738 10.29565238952637 C 11.82100296020508 10.37644577026367 11.64681625366211 10.67173957824707 11.01546764373779 11.74564266204834 C 10.50824737548828 12.60842323303223 9.220487594604492 14.80000305175781 9.220467567443848 14.80002307891846 L 7.984268188476562 16.904052734375 L 7.982627868652344 16.9068431854248 L 7.980978012084961 16.90963363647461 C 7.532268047332764 17.6677131652832 6.706287860870361 18.13864326477051 5.82536792755127 18.13864326477051 L 5.817957878112793 18.13864326477051 L 5.806498050689697 18.13857269287109 C 4.916078090667725 18.13139343261719 4.090087890625 17.64717292785645 3.649538040161133 16.87486267089844 L 1.575397491455078 13.22586250305176 C 0.8857574462890625 12.01263236999512 0.368408203125 11.10249328613281 0.023468017578125 10.49541282653809 L -0.3651924133300781 9.811092376708984 C -0.4064836502075195 9.738315582275391 -0.4466533660888672 9.66751766204834 -0.4845523834228516 9.59665584564209 L -0.4859123229980469 9.597442626953125 L -0.5090522766113281 9.557472229003906 L -0.5162620544433594 9.545013427734375 L -0.5233020782470703 9.532452583312988 L -0.5276317596435547 9.524703025817871 C -0.6591320037841797 9.289902687072754 -0.9670724868774414 8.740042686462402 -1.196942329406738 8.010683059692383 C -1.466562271118164 7.159012794494629 -1.598002433776855 6.338302612304688 -1.598002433776855 5.50410270690918 C -1.598002433776855 1.40327262878418 1.737327575683594 -1.93299674987793 5.836997985839844 -1.93299674987793 Z"/>
              </g>
            </g>
          </g>
          <circle id="Ellipse_79-2" data-name="Ellipse 79" class="cls-4" cx="2.5" cy="2.5" r="2.5" transform="translate(13517 10745)"/>
        </g>
      </g>
    </g>
  </g>
</svg>
