<?xml version="1.0" encoding="utf-8"?>
<!-- Generator: Adobe Illustrator 26.0.1, SVG Export Plug-In . SVG Version: 6.00 Build 0)  -->
<svg version="1.1" id="レイヤー_1" xmlns="http://www.w3.org/2000/svg" xmlns:xlink="http://www.w3.org/1999/xlink" x="0px"
	 y="0px" viewBox="0 0 70 70" style="enable-background:new 0 0 70 70;" xml:space="preserve">
<style type="text/css">
	.st0{fill:#F5F5F4;}
	.st1{fill:none;}
	.st2{fill:#393A3A;}
</style>
<rect class="st0" width="70" height="70"/>
<g>
	<rect x="16" y="16" class="st1" width="38" height="38"/>
	<path class="st2" d="M49.6,52.4H20.4c-1.5,0-2.7-1.2-2.7-2.7V33.3c0-1.5,1.2-2.7,2.7-2.7l0,0h29.1c1.5,0,2.7,1.2,2.7,2.7v16.5
		C52.2,51.2,51,52.4,49.6,52.4L49.6,52.4L49.6,52.4z M20.6,49.6h28.9V33.4H20.6V49.6z"/>
	<path class="st2" d="M35.5,46c-2.5,0-4.6-2-4.6-4.6c0-2.5,2-4.6,4.6-4.6s4.6,2,4.6,4.5C40.1,43.9,38,45.9,35.5,46z M35.5,39.6
		c-0.9,0-1.8,0.8-1.8,1.8c0,0.9,0.8,1.8,1.8,1.8c0.9,0,1.8-0.8,1.8-1.8l0,0C37.2,40.4,36.4,39.6,35.5,39.6L35.5,39.6z"/>
	<path class="st2" d="M35.5,20.8c3.5-0.1,7.1,1,10,3.1l2-2c-3.5-2.6-7.7-4-12-4c-4.4-0.1-8.7,1.4-12.2,4.1l2,2
		C28.2,21.9,31.8,20.7,35.5,20.8z"/>
	<path class="st2" d="M35.5,26.6c1.9,0,3.9,0.6,5.4,1.9l1.7-1.7c-1.9-1.8-4.5-2.7-7.1-2.6c-2.7-0.1-5.3,0.9-7.3,2.8l1.7,1.7
		C31.4,27.2,33.4,26.5,35.5,26.6z"/>
</g>
</svg>
