<svg viewBox="0 0 15 15" fill="none" xmlns="http://www.w3.org/2000/svg">
<g clip-path="url(#clip0_3540_2124)">
<path d="M12.875 12.5425H2.125C1.98693 12.5425 1.875 12.6544 1.875 12.7925V13.4175C1.875 13.5556 1.98693 13.6675 2.125 13.6675H12.875C13.0131 13.6675 13.125 13.5556 13.125 13.4175V12.7925C13.125 12.6544 13.0131 12.5425 12.875 12.5425Z" fill="currentColor"/>
<path d="M11.7498 7.54249H9.99979V1.54249C9.99979 1.47618 9.97346 1.4126 9.92657 1.36571C9.87969 1.31883 9.8161 1.29249 9.74979 1.29249H5.3823C5.33239 1.29216 5.28291 1.30166 5.23668 1.32046C5.19045 1.33925 5.14838 1.36696 5.11286 1.40202C5.07734 1.43707 5.04908 1.47878 5.02968 1.52476C5.01028 1.57074 5.00012 1.62009 4.99979 1.66999V7.54249H3.24979C3.19574 7.54127 3.14274 7.5576 3.09875 7.58905C3.05477 7.62049 3.02216 7.66535 3.00582 7.71689C2.98949 7.76844 2.9903 7.82389 3.00815 7.87493C3.02599 7.92597 3.0599 7.96985 3.10479 7.99999L7.35479 11.185C7.39807 11.2174 7.4507 11.235 7.5048 11.235C7.55889 11.235 7.61152 11.2174 7.6548 11.185L11.8998 7.99999C11.9451 7.96964 11.9793 7.9253 11.9971 7.87373C12.0148 7.82216 12.0153 7.7662 11.9983 7.71436C11.9813 7.66253 11.9478 7.61768 11.9029 7.58665C11.8581 7.55561 11.8043 7.54011 11.7498 7.54249Z" fill="currentColor"/>
</g>
<defs>
<clipPath id="clip0_3540_2124">
<rect width="15" height="15" fill="currentColor"/>
</clipPath>
</defs>
</svg>
