<svg id="レイヤー_1" data-name="レイヤー 1" xmlns="http://www.w3.org/2000/svg" viewBox="0 0 60 60"><defs><style>.cls-1{fill:none;}.cls-2{fill:#393a3a;}</style></defs><rect class="cls-1" width="60" height="60"/><path class="cls-2" d="M50.25,27.43V50.25H9.75V9.75H32.57l4.5-4.5H8.5A3.26,3.26,0,0,0,5.25,8.5v43A3.26,3.26,0,0,0,8.5,54.75h43a3.26,3.26,0,0,0,3.25-3.25V22.93Z"/><path class="cls-2" d="M50.9,5h4a4,4,0,0,1,4,4v2.5a1,1,0,0,1-1,1h-10a1,1,0,0,1-1-1V9a4,4,0,0,1,4-4Z" transform="translate(21.66 -34.85) rotate(45)"/><rect class="cls-2" x="30.99" y="8.36" width="12" height="32.55" rx="1" transform="translate(28.25 -18.94) rotate(45)"/><path class="cls-2" d="M18.51,44.31l7.7-1.77a1,1,0,0,0,.48-1.68l-5.93-5.93a1,1,0,0,0-1.68.48l-1.77,7.7A1,1,0,0,0,18.51,44.31Z"/></svg>