<svg viewBox="0 0 16 20" fill="none" xmlns="http://www.w3.org/2000/svg">
<path d="M3.17927 7.32143H4.60784V8.75H3.17927V7.32143ZM3.17927 11.5625V15.1339H6.03641V11.5625H4.60784V10.1786H3.17927V11.5625ZM4.96498 12.6339V14.0625H4.2507V12.6339H4.96498ZM4.60784 5.89286H6.03641V7.32143H4.60784V5.89286ZM3.17927 4.46429H4.60784V5.89286H3.17927V4.46429ZM4.60784 8.75H6.03641V10.1786H4.60784V8.75ZM4.60784 3.03571H6.03641V4.46429H4.60784V3.03571ZM15.648 5.01339L10.8444 0.209821C10.7105 0.0758929 10.5297 0 10.34 0H0.85784C0.462751 0 0.143555 0.319196 0.143555 0.714286V19.2857C0.143555 19.6808 0.462751 20 0.85784 20H15.1436C15.5386 20 15.8578 19.6808 15.8578 19.2857V5.52009C15.8578 5.33036 15.7819 5.14732 15.648 5.01339ZM14.2105 5.84821H10.0096V1.64732L14.2105 5.84821ZM14.2507 18.3929H1.7507V1.60714H3.17927V3.03571H4.60784V1.60714H8.49177V6.42857C8.49177 6.67721 8.59054 6.91567 8.76636 7.09148C8.94217 7.2673 9.18063 7.36607 9.42927 7.36607H14.2507V18.3929Z" fill="#595959"/>
</svg>
