<svg viewBox="0 0 22 22" fill="none" xmlns="http://www.w3.org/2000/svg">
<mask id="mask0_23829_351951" style="mask-type:luminance" maskUnits="userSpaceOnUse">
<path d="M20.7777 1.22217H1.22217V20.7777H20.7777V1.22217Z" fill="white"/>
</mask>
<g mask="url(#mask0_23829_351951)">
<path d="M18.4554 6.11106L13.7498 1.4055C13.6276 1.28328 13.4443 1.22217 13.2609 1.22217H4.03314C3.60536 1.22217 3.2998 1.52772 3.2998 1.89439V20.0444C3.2998 20.4111 3.60536 20.7166 3.97203 20.7166H17.9665C18.3331 20.7166 18.6387 20.4111 18.6387 20.0444V6.59995C18.6998 6.41661 18.6387 6.23328 18.4554 6.11106ZM17.0498 6.96661H12.9554V2.81106L17.0498 6.96661ZM17.1109 19.1888H4.88869V2.81106H11.4887V7.51661C11.4887 7.76106 11.6109 8.0055 11.7331 8.18883C11.9165 8.37217 12.1609 8.43328 12.4054 8.43328H17.1109V19.1888Z" fill="#006D75"/>
</g>
<path d="M20.7777 8.745H1.22217V17.9117H20.7777V8.745Z" fill="#006D75"/>
<path d="M4.082 13.2366L2.432 10.1383H4.137L4.65033 11.2872C4.797 11.5866 4.93144 11.9228 5.11478 12.3322H5.15144C5.29811 11.9228 5.43255 11.5866 5.56089 11.2872L6.02533 10.1383H7.64478L6.00089 13.3039L7.75478 16.5122H6.04978L5.457 15.2716C5.30422 14.9355 5.15755 14.6055 4.98644 14.2083H4.94978C4.80311 14.5994 4.65644 14.9355 4.51589 15.2716L3.96589 16.5122H2.34033L4.08811 13.2305L4.082 13.2366Z" fill="white"/>
<path d="M8.23756 10.1383H9.88756L10.8959 12.8944C11.0242 13.2611 11.1281 13.6644 11.2442 14.0494H11.287C11.4153 13.6644 11.5192 13.2611 11.6353 12.8944L12.6131 10.1383H14.2753V16.5183H12.882V14.3366C12.882 13.7011 13.0042 12.7539 13.0898 12.1305H13.047L12.5153 13.6522L11.6598 15.9805H10.8226L9.95478 13.6522L9.44144 12.1305H9.40478C9.48422 12.7539 9.60033 13.7072 9.60033 14.3366V16.5183H8.23145V10.1383H8.23756Z" fill="white"/>
<path d="M15.3999 10.1383H16.9338V15.2289H19.4149V16.5122H15.3999V10.1322V10.1383Z" fill="white"/>
</svg>
