<svg viewBox="0 0 22 22" fill="none" xmlns="http://www.w3.org/2000/svg">
  <g clip-path="url(#clip0_17045_184231)">
    <path d="M18.4778 6.1244L13.781 1.42757C13.65 1.29662 13.4732 1.22241 13.2877 1.22241H4.01628C3.62997 1.22241 3.31787 1.53452 3.31787 1.92082V20.0796C3.31787 20.4659 3.62997 20.778 4.01628 20.778H17.9845C18.3709 20.778 18.683 20.4659 18.683 20.0796V6.61983C18.683 6.43432 18.6087 6.25535 18.4778 6.1244ZM17.0722 6.94067H12.9647V2.83313L17.0722 6.94067ZM17.1115 19.2065H4.8893V2.79384H11.4806V7.50813C11.4806 7.75124 11.5771 7.9844 11.7491 8.15631C11.921 8.32822 12.1541 8.42479 12.3972 8.42479H17.1115V19.2065Z" fill="#595959"/>
  </g>
  <defs>
    <clipPath id="clip0_17045_184231">
      <rect width="19.5556" height="19.5556" fill="white" transform="translate(1.22217 1.22241)"/>
    </clipPath>
  </defs>
</svg>
