<svg viewBox="0 0 22 22" fill="none" xmlns="http://www.w3.org/2000/svg">
  <path d="M19.9955 1.22241H2.00439C1.57172 1.22241 1.22217 1.57197 1.22217 2.00463V19.9957C1.22217 20.4284 1.57172 20.778 2.00439 20.778H19.9955C20.4282 20.778 20.7777 20.4284 20.7777 19.9957V2.00463C20.7777 1.57197 20.4282 1.22241 19.9955 1.22241ZM19.0177 19.018H2.98217V2.98241H19.0177V19.018Z" fill="#C41D7F"/>
  <path d="M6.67921 10.0957H7.51643C7.91366 10.0957 8.2131 9.99797 8.40255 9.7963C8.59199 9.59463 8.68977 9.33186 8.68977 9.00186C8.68977 8.67186 8.59199 8.43352 8.40255 8.2563C8.2131 8.07908 7.95032 7.98741 7.61421 7.98741C7.31477 7.98741 7.06421 8.06686 6.85643 8.23797C6.65477 8.40297 6.55088 8.61686 6.55088 8.87963H4.98643C4.98643 8.46408 5.09643 8.09741 5.32255 7.76741C5.54866 7.43741 5.86032 7.18075 6.25755 6.99741C6.66088 6.81408 7.10088 6.72241 7.58366 6.72241C8.42088 6.72241 9.07477 6.92408 9.55143 7.3213C10.0281 7.72463 10.2664 8.27463 10.2664 8.97741C10.2664 9.33797 10.1564 9.67408 9.93643 9.97963C9.71643 10.2852 9.4231 10.5174 9.06866 10.6824C9.51477 10.8413 9.84477 11.0796 10.0648 11.3974C10.2848 11.7152 10.3948 12.0941 10.3948 12.528C10.3948 13.2307 10.1381 13.793 9.62477 14.2207C9.11143 14.6424 8.4331 14.8563 7.58977 14.8563C6.80143 14.8563 6.15366 14.6485 5.65255 14.233C5.15143 13.8174 4.90088 13.2674 4.90088 12.5769H6.45921C6.45921 12.8763 6.56921 13.1146 6.79532 13.3041C7.02143 13.4935 7.29032 13.5852 7.62032 13.5852C7.9931 13.5852 8.28643 13.4874 8.50032 13.2857C8.71421 13.0902 8.8181 12.8274 8.8181 12.4974C8.8181 11.7091 8.38421 11.3119 7.51032 11.3119H6.67921V10.0835V10.0957Z" fill="#C41D7F"/>
  <path d="M11.6353 14.7464V6.83252H14.0736C14.7703 6.83252 15.3936 6.99141 15.9436 7.30308C16.4936 7.61474 16.9214 8.06085 17.233 8.64141C17.5386 9.22196 17.6975 9.87585 17.6975 10.6153V10.982C17.6975 11.7153 17.5447 12.3753 17.2453 12.9436C16.9397 13.5181 16.518 13.9642 15.9619 14.2759C15.4119 14.5936 14.7886 14.7525 14.098 14.7525H11.6475L11.6353 14.7464ZM13.2669 8.15252V13.4386H14.0553C14.6908 13.4386 15.1797 13.2309 15.5158 12.8153C15.8519 12.3997 16.023 11.8009 16.0353 11.0247V10.6031C16.0353 9.79641 15.8703 9.19141 15.5341 8.77585C15.198 8.3603 14.7153 8.15252 14.0736 8.15252H13.2669Z" fill="#C41D7F"/>
</svg>
