<svg viewBox="0 0 22 22" fill="none" xmlns="http://www.w3.org/2000/svg">
  <path d="M19.9955 1.22241H2.00439C1.57172 1.22241 1.22217 1.57197 1.22217 2.00463V19.9957C1.22217 20.4284 1.57172 20.778 2.00439 20.778H19.9955C20.4282 20.778 20.7777 20.4284 20.7777 19.9957V2.00463C20.7777 1.57197 20.4282 1.22241 19.9955 1.22241ZM19.0177 19.018H2.98217V2.98241H19.0177V19.018Z" fill="#08979C"/>
  <path d="M10.4742 14.7524H5.04756V13.6769L7.60812 10.9452C7.96256 10.5602 8.21923 10.2241 8.39034 9.93686C8.56145 9.64963 8.64089 9.38075 8.64089 9.12408C8.64089 8.76963 8.54923 8.49463 8.372 8.29297C8.19478 8.0913 7.93812 7.99352 7.60812 7.99352C7.25367 7.99352 6.97256 8.11575 6.76478 8.36019C6.55701 8.60463 6.45923 8.92852 6.45923 9.32575H4.88867C4.88867 8.84297 5.00478 8.40297 5.23089 8.00575C5.46312 7.60852 5.78701 7.29686 6.20867 7.06463C6.63034 6.83852 7.10701 6.72241 7.63867 6.72241C8.45145 6.72241 9.08701 6.91797 9.53923 7.30908C9.99145 7.70019 10.2176 8.2563 10.2176 8.96519C10.2176 9.3563 10.1137 9.75352 9.91201 10.163C9.71034 10.5724 9.36201 11.043 8.86701 11.5807L7.06423 13.4813H10.4681V14.7463L10.4742 14.7524Z" fill="#08979C"/>
  <path d="M11.3848 14.7525V6.83252H13.8231C14.5198 6.83252 15.1431 6.99141 15.6931 7.30308C16.2431 7.61474 16.6709 8.06085 16.9825 8.64141C17.2942 9.22196 17.447 9.87585 17.447 10.6153V10.982C17.447 11.7153 17.2942 12.3753 16.9948 12.9436C16.6892 13.5181 16.2675 13.9642 15.7114 14.2759C15.1614 14.5936 14.5381 14.7525 13.8475 14.7525H11.397H11.3848ZM13.0164 8.15252V13.4386H13.8048C14.4403 13.4386 14.9292 13.2309 15.2653 12.8153C15.6014 12.3997 15.7725 11.8009 15.7848 11.0247V10.6031C15.7848 9.79641 15.6198 9.19141 15.2837 8.77585C14.9475 8.3603 14.4648 8.15252 13.8231 8.15252H13.0164Z" fill="#08979C"/>
</svg>
