<svg viewBox="0 0 22 22" fill="none" xmlns="http://www.w3.org/2000/svg">
  <path d="M9.4027 14.7932L13.9723 11.2022C14.0028 11.1779 14.0275 11.1471 14.0445 11.1119C14.0614 11.0768 14.0702 11.0383 14.0702 10.9993C14.0702 10.9603 14.0614 10.9218 14.0445 10.8867C14.0275 10.8516 14.0028 10.8208 13.9723 10.7965L9.4027 7.20319C9.23311 7.07027 8.98332 7.18944 8.98332 7.40486V14.5892C8.98332 14.8047 9.23311 14.9261 9.4027 14.7932Z" fill="#722ED1"/>
  <path d="M19.4335 1.8335H2.56683C2.1612 1.8335 1.8335 2.1612 1.8335 2.56683V19.4335C1.8335 19.8391 2.1612 20.1668 2.56683 20.1668H19.4335C19.8391 20.1668 20.1668 19.8391 20.1668 19.4335V2.56683C20.1668 2.1612 19.8391 1.8335 19.4335 1.8335ZM18.5168 18.5168H3.4835V3.4835H18.5168V18.5168Z" fill="#722ED1"/>
</svg>
