<svg viewBox="0 0 22 22" fill="none" xmlns="http://www.w3.org/2000/svg">
<mask id="mask0_23829_351961" style="mask-type:luminance" maskUnits="userSpaceOnUse">
<path d="M20.7777 1.22217H1.22217V20.7777H20.7777V1.22217Z" fill="white"/>
</mask>
<g mask="url(#mask0_23829_351961)">
<path d="M18.4554 6.11106L13.7498 1.4055C13.6276 1.28328 13.4443 1.22217 13.2609 1.22217H4.03314C3.60536 1.22217 3.2998 1.52772 3.2998 1.89439V20.0444C3.2998 20.4111 3.60536 20.7166 3.97203 20.7166H17.9665C18.3331 20.7166 18.6387 20.4111 18.6387 20.0444V6.59995C18.6998 6.41661 18.6387 6.23328 18.4554 6.11106ZM17.0498 6.96661H12.9554V2.81106L17.0498 6.96661ZM17.1109 19.1888H4.88869V2.81106H11.4887V7.51661C11.4887 7.76106 11.6109 8.0055 11.7331 8.18883C11.9165 8.37217 12.1609 8.43328 12.4054 8.43328H17.1109V19.1888Z" fill="#531DAB"/>
</g>
<path d="M20.7777 8.745H1.22217V17.9117H20.7777V8.745Z" fill="#531DAB"/>
<path d="M1.60107 15.1556L2.48719 14.4895C2.67663 14.8622 2.95774 15.0333 3.22052 15.0333C3.6483 15.0333 3.87441 14.8195 3.87441 14.1106V10.5967H5.1883V14.2083C5.1883 15.2778 4.62607 16.1578 3.39774 16.1578C2.5483 16.1578 1.99219 15.8278 1.60107 15.1556Z" fill="white"/>
<path d="M5.77515 15.3756L6.52071 14.4711C6.8996 14.8011 7.40682 15.0272 7.84071 15.0272C8.32349 15.0272 8.5496 14.8439 8.5496 14.5506C8.5496 14.2328 8.25015 14.135 7.7796 13.9334L7.08293 13.64C6.50849 13.4139 5.97682 12.9372 5.97682 12.1428C5.97682 11.2261 6.79571 10.4928 7.95682 10.4928C8.58627 10.4928 9.25238 10.7372 9.72904 11.2078L9.07515 12.0267C8.7146 11.7578 8.37849 11.6111 7.95682 11.6111C7.55349 11.6111 7.30904 11.77 7.30904 12.0572C7.30904 12.3628 7.64515 12.485 8.12793 12.6745L8.81238 12.9434C9.4846 13.2122 9.88793 13.6706 9.88793 14.4406C9.88793 15.3511 9.12404 16.1456 7.80404 16.1456C7.09515 16.1456 6.33127 15.8828 5.76904 15.3634L5.77515 15.3756Z" fill="white"/>
<path d="M10.1138 13.2978C10.1138 11.5072 11.1282 10.4989 12.6132 10.4989C14.0982 10.4989 15.1127 11.5195 15.1127 13.2978C15.1127 15.0761 14.0982 16.1578 12.6132 16.1578C11.1282 16.1578 10.1138 15.0883 10.1138 13.2978ZM13.7804 13.2978C13.7804 12.2406 13.3343 11.6172 12.6132 11.6172C11.8921 11.6172 11.4521 12.2406 11.4521 13.2978C11.4521 14.355 11.8921 15.0272 12.6132 15.0272C13.3343 15.0272 13.7804 14.355 13.7804 13.2978Z" fill="white"/>
<path d="M15.5405 10.5967H16.8727L18.2294 13.2122L18.7672 14.4222H18.8039C18.7366 13.8417 18.6266 13.0595 18.6266 12.4056V10.5967H19.8733V16.06H18.5411L17.1905 13.4261L16.6527 12.2284H16.6161C16.6772 12.8395 16.7872 13.585 16.7872 14.245V16.0539H15.5405V10.5906V10.5967Z" fill="white"/>
</svg>
