<?xml version="1.0" encoding="utf-8"?>
<!-- Generator: Adobe Illustrator 26.0.1, SVG Export Plug-In . SVG Version: 6.00 Build 0)  -->
<svg version="1.1" id="レイヤー_1" xmlns="http://www.w3.org/2000/svg" xmlns:xlink="http://www.w3.org/1999/xlink" x="0px"
	 y="0px" viewBox="0 0 70 70" style="enable-background:new 0 0 70 70;" xml:space="preserve">
<style type="text/css">
	.st0{fill:#FFFFFF;}
	.st1{fill:none;}
	.st2{fill:#393A3A;}
</style>
<rect class="st0" width="70" height="70"/>
<g>
	<rect x="16" y="16" class="st1" width="38" height="38"/>
	<path class="st2" d="M49.6,51H20.4c-1.5,0-2.7-1.2-2.7-2.7V25.5c0-0.3,0.1-0.4,0.2-0.6l2.5-5.1c0.3-0.5,0.8-0.8,1.3-0.8h9.5
		c0.4,0,0.8,0.3,1.2,0.6l3.4,4.5h13.8c1.5,0,2.7,1.2,2.7,2.7v21.5C52.2,49.8,51,51,49.6,51z M20.6,48.2h28.9V26.9H35
		c-0.4,0-0.8-0.3-1.1-0.6l-3.4-4.5h-7.9l-2,4C20.6,25.8,20.6,48.2,20.6,48.2z"/>
	<path class="st2" d="M22.7,25.3l0.9-2.3c0-0.1,0.2-0.2,0.3-0.2h5.6c0.1,0,0.2,0.1,0.2,0.1l1.5,2.3c0.1,0.2,0.1,0.3-0.1,0.4
		c-0.1,0-0.1,0.1-0.2,0.1h-8.1c-0.2,0-0.3-0.2-0.3-0.3C22.6,25.4,22.6,25.4,22.7,25.3z"/>
</g>
</svg>
