<svg
  xmlns="http://www.w3.org/2000/svg"
  aria-hidden="true"
  focusable="false"
  viewBox="0 0 30 30"
>
  <path
    fill="currentColor"
    d="M19.292 11.583H24.7087C24.7639 11.583 24.8169 11.5611 24.856 11.522C24.895 11.4829 24.917 11.4299 24.917 11.3747V9.91634C24.917 9.86109 24.895 9.8081 24.856 9.76903C24.8169 9.72996 24.7639 9.70801 24.7087 9.70801H19.292V4.29134C19.292 4.23609 19.27 4.1831 19.231 4.14403C19.1919 4.10496 19.1389 4.08301 19.0837 4.08301H17.6253C17.5701 4.08301 17.5171 4.10496 17.478 4.14403C17.4389 4.1831 17.417 4.23609 17.417 4.29134V11.3747C17.417 11.4299 17.4389 11.4829 17.478 11.522C17.5171 11.5611 17.5701 11.583 17.6253 11.583H19.292Z" />
  <path
    fill="currentColor"
    d="M17.417 19.292V24.7087C17.417 24.7639 17.4389 24.8169 17.478 24.856C17.5171 24.895 17.5701 24.917 17.6253 24.917H19.0837C19.1389 24.917 19.1919 24.895 19.231 24.856C19.27 24.8169 19.292 24.7639 19.292 24.7087V19.292H24.7087C24.7639 19.292 24.8169 19.27 24.856 19.231C24.895 19.1919 24.917 19.1389 24.917 19.0837V17.6253C24.917 17.5701 24.895 17.5171 24.856 17.478C24.8169 17.4389 24.7639 17.417 24.7087 17.417H17.6253C17.5701 17.417 17.5171 17.4389 17.478 17.478C17.4389 17.5171 17.417 17.5701 17.417 17.6253V19.292Z" />
  <path
    fill="currentColor"
    d="M9.70801 17.417H4.29134C4.23609 17.417 4.1831 17.4389 4.14403 17.478C4.10496 17.5171 4.08301 17.5701 4.08301 17.6253V19.0837C4.08301 19.1389 4.10496 19.1919 4.14403 19.231C4.1831 19.27 4.23609 19.292 4.29134 19.292H9.70801V24.7087C9.70801 24.7639 9.72996 24.8169 9.76903 24.856C9.8081 24.895 9.86109 24.917 9.91634 24.917H11.3747C11.4299 24.917 11.4829 24.895 11.522 24.856C11.5611 24.8169 11.583 24.7639 11.583 24.7087V17.6253C11.583 17.5701 11.5611 17.5171 11.522 17.478C11.4829 17.4389 11.4299 17.417 11.3747 17.417H9.70801Z" />
  <path
    fill="currentColor"
    d="M11.583 9.70801V4.29134C11.583 4.23609 11.5611 4.1831 11.522 4.14403C11.4829 4.10496 11.4299 4.08301 11.3747 4.08301H9.91634C9.86109 4.08301 9.8081 4.10496 9.76903 4.14403C9.72996 4.1831 9.70801 4.23609 9.70801 4.29134V9.70801H4.29134C4.23609 9.70801 4.1831 9.72996 4.14403 9.76903C4.10496 9.8081 4.08301 9.86109 4.08301 9.91634V11.3747C4.08301 11.4299 4.10496 11.4829 4.14403 11.522C4.1831 11.5611 4.23609 11.583 4.29134 11.583H11.3747C11.4299 11.583 11.4829 11.5611 11.522 11.522C11.5611 11.4829 11.583 11.4299 11.583 11.3747V9.70801Z" />
</svg>
