<svg
  xmlns="http://www.w3.org/2000/svg"
  aria-hidden="true"
  focusable="false"
  viewBox="0 0 30 30"
>
  <path
    fill="currentColor"
    d="M23.042 4.08301H17.6253C17.5701 4.08301 17.5171 4.10496 17.478 4.14403C17.4389 4.1831 17.417 4.23609 17.417 4.29134V5.74967C17.417 5.80493 17.4389 5.85792 17.478 5.89699C17.5171 5.93606 17.5701 5.95801 17.6253 5.95801H23.042V11.3747C23.042 11.4299 23.0639 11.4829 23.103 11.522C23.1421 11.5611 23.1951 11.583 23.2503 11.583H24.7087C24.7639 11.583 24.8169 11.5611 24.856 11.522C24.895 11.4829 24.917 11.4299 24.917 11.3747V4.29134C24.917 4.23609 24.895 4.1831 24.856 4.14403C24.8169 4.10496 24.7639 4.08301 24.7087 4.08301H23.042Z"/>
  <path
    fill="currentColor"
    d="M24.917 23.042V17.6253C24.917 17.5701 24.895 17.5171 24.856 17.478C24.8169 17.4389 24.7639 17.417 24.7087 17.417H23.2503C23.1951 17.417 23.1421 17.4389 23.103 17.478C23.0639 17.5171 23.042 17.5701 23.042 17.6253V23.042H17.6253C17.5701 23.042 17.5171 23.0639 17.478 23.103C17.4389 23.1421 17.417 23.1951 17.417 23.2503V24.7087C17.417 24.7639 17.4389 24.8169 17.478 24.856C17.5171 24.895 17.5701 24.917 17.6253 24.917H24.7087C24.7639 24.917 24.8169 24.895 24.856 24.856C24.895 24.8169 24.917 24.7639 24.917 24.7087V23.042Z"/>
  <path
    fill="currentColor"
    d="M5.95801 24.917H11.3747C11.4299 24.917 11.4829 24.895 11.522 24.856C11.5611 24.8169 11.583 24.7639 11.583 24.7087V23.2503C11.583 23.1951 11.5611 23.1421 11.522 23.103C11.4829 23.0639 11.4299 23.042 11.3747 23.042H5.95801V17.6253C5.95801 17.5701 5.93606 17.5171 5.89699 17.478C5.85792 17.4389 5.80493 17.417 5.74967 17.417H4.29134C4.23609 17.417 4.1831 17.4389 4.14403 17.478C4.10496 17.5171 4.08301 17.5701 4.08301 17.6253V24.7087C4.08301 24.7639 4.10496 24.8169 4.14403 24.856C4.1831 24.895 4.23609 24.917 4.29134 24.917H5.95801Z"/>
  <path
    fill="currentColor"
    d="M4.08301 5.95801V11.3747C4.08301 11.4299 4.10496 11.4829 4.14403 11.522C4.1831 11.5611 4.23609 11.583 4.29134 11.583H5.74967C5.80493 11.583 5.85792 11.5611 5.89699 11.522C5.93606 11.4829 5.95801 11.4299 5.95801 11.3747V5.95801H11.3747C11.4299 5.95801 11.4829 5.93606 11.522 5.89699C11.5611 5.85792 11.583 5.80493 11.583 5.74967V4.29134C11.583 4.23609 11.5611 4.1831 11.522 4.14403C11.4829 4.10496 11.4299 4.08301 11.3747 4.08301H4.29134C4.23609 4.08301 4.1831 4.10496 4.14403 4.14403C4.10496 4.1831 4.08301 4.23609 4.08301 4.29134V5.95801Z"/>
</svg>
