<svg xmlns="http://www.w3.org/2000/svg" width="54" height="54" viewBox="0 0 54 54">
    <defs>
        <style>
            .cls-1{fill:#fff}
        </style>
    </defs>
    <g id="helper-large" transform="translate(-1066 -2460)">
        <g id="Layer_1" data-name="Layer 1" transform="translate(1066 2460)">
            <path id="Path_3428" d="M45 26.7a15.07 15.07 0 0 0-15 12.64 14.56 14.56 0 0 0 3.76 11.83 15 15 0 0 1 4 10.23v6a4.41 4.41 0 0 0 4.46 4.37h5.75a4.41 4.41 0 0 0 4.46-4.37v-6a14.12 14.12 0 0 1 3.75-10 14.22 14.22 0 0 0 4.11-10c0-8.17-6.94-14.71-15.27-14.71zm5.16 40.67A2.09 2.09 0 0 1 48 69.45h-5.71a2.09 2.09 0 0 1-2.12-2.08v-2.64h10v2.64zm4.36-17.57a16.34 16.34 0 0 0-4.46 11.6v1h-10v-1a17.67 17.67 0 0 0-4.69-11.71 12.11 12.11 0 0 1-3.17-10A13 13 0 0 1 45 29a12.7 12.7 0 0 1 12.93 12.41 12 12 0 0 1-3.41 8.39z" class="cls-1" data-name="Path 3428" transform="translate(-18 -17.77)"/>
            <path id="Rectangle_10154" d="M0 0h2.35v5.51H0z" class="cls-1" data-name="Rectangle 10154" transform="translate(25.82)"/>
            <path id="Path_3429" d="M59.23 28.36L60.87 30l4-3.86-1.65-1.65z" class="cls-1" data-name="Path 3429" transform="translate(-18 -17.74)"/>
            <path id="Rectangle_10155" d="M0 0h5.75v2.3H0z" class="cls-1" data-name="Rectangle 10155" transform="translate(48.25 24.805)"/>
            <path id="Rectangle_10156" d="M0 0h5.75v2.3H0z" class="cls-1" data-name="Rectangle 10156" transform="translate(0 24.805)"/>
            <path id="Path_3430" d="M26.72 24.48l-1.66 1.65 4 3.86 1.64-1.64z" class="cls-1" data-name="Path 3430" transform="translate(-18 -17.74)"/>
        </g>
    </g>
</svg>
