<?xml version="1.0" encoding="utf-8"?>
<!-- Generator: Adobe Illustrator 26.0.1, SVG Export Plug-In . SVG Version: 6.00 Build 0)  -->
<svg version="1.1" id="レイヤー_1" xmlns="http://www.w3.org/2000/svg" xmlns:xlink="http://www.w3.org/1999/xlink" x="0px"
	 y="0px" viewBox="0 0 70 70" style="enable-background:new 0 0 70 70;" xml:space="preserve">
<style type="text/css">
	.st0{opacity:0.8;enable-background:new    ;}
	.st1{clip-path:url(#SVGID_00000070101071826174759480000003283333949148177815_);}
	.st2{fill:none;}
	.st3{fill:#FFFFFF;}
</style>
<circle class="st0" cx="35" cy="35" r="35"/>
<g>
	<defs>
		<circle id="SVGID_1_" cx="35" cy="35" r="35"/>
	</defs>
	<clipPath id="SVGID_00000076590520934325585350000002622778028138170047_">
		<use xlink:href="#SVGID_1_"  style="overflow:visible;"/>
	</clipPath>
	<g style="clip-path:url(#SVGID_00000076590520934325585350000002622778028138170047_);">
		<rect x="10" y="10" class="st2" width="50" height="50"/>
		<path class="st3" d="M12.6,35.8L11.1,34c-0.3-0.4-0.3-1,0.1-1.3l0,0l0,0l23.2-19.3c0.3-0.3,0.8-0.3,1.2,0l23.2,19.2
			c0.4,0.3,0.5,0.9,0.1,1.3l-1.5,1.8c-0.3,0.4-0.9,0.4-1.3,0.1l0,0l-20.6-17c-0.3-0.2-0.7-0.2-1.1,0L13.9,35.9
			C13.5,36.2,12.9,36.2,12.6,35.8L12.6,35.8z"/>
		<path class="st3" d="M51.7,34.9l-15-12c-1-0.8-2.4-0.8-3.4,0l-15,12c-0.6,0.5-1,1.3-1,2.1v17.1c0,1.5,1.2,2.7,2.7,2.7h7.4
			c0.6,0,1-0.4,1-1V44.2v-1.3c0-0.6,0.4-1,1-1h1.3h8.6h1.3c0.6,0,1,0.4,1,1v1.3v11.6c0,0.6,0.4,1,1,1H50c1.5,0,2.7-1.2,2.7-2.7V37
			C52.7,36.2,52.3,35.4,51.7,34.9z"/>
	</g>
</g>
</svg>
