<svg xmlns="http://www.w3.org/2000/svg" width="40" height="40" viewBox="0 0 40 40">
  <defs>
    <style>
      .cls-1 {
        fill: none;
      }

      .cls-2 {
        fill: #606770;
      }

      .cls-3 {
        fill: #16abe3;
      }
    </style>
  </defs>
  <g id="family_datahub" data-name="family datahub" transform="translate(-1110 -1051)">
    <rect id="Rectangle_13985" data-name="Rectangle 13985" class="cls-1" width="40" height="40" transform="translate(1110 1051)"/>
    <g id="Group_20538" data-name="Group 20538" transform="translate(998.852 738.524)">
      <g id="Group_20538-2" data-name="Group 20538">
        <path id="Path_7256" data-name="Path 7256" class="cls-2" d="M143.4,339.712l-.624-1.1h-3.452a27.406,27.406,0,0,0,.569-4.628h.253l-.372-.655-.389-.684c-.041-.073-.081-.144-.119-.215h0l-.023-.04-.007-.012-.007-.013,0-.007a7.885,7.885,0,0,1-.67-1.515,8.212,8.212,0,0,1-.4-2.506,7.386,7.386,0,0,1,.94-3.61h-.371a18.323,18.323,0,0,0-2.726-5.472,15.122,15.122,0,0,1,4.681,3.513,7.447,7.447,0,0,1,1.972-1.26,17.315,17.315,0,0,0-11.987-6v-.039h-2.311v.039a17.269,17.269,0,0,0-9.348,3.52,7.522,7.522,0,0,1,2.592,1.012,14.968,14.968,0,0,1,1.42-.788q-.429.592-.808,1.217a7.493,7.493,0,0,1,1.594,1.687c1.206-2.224,2.784-3.753,4.547-4.223l0,6.791h-3.425a7.619,7.619,0,0,1,.154.892,6.845,6.845,0,0,1-.01,1.422h3.281v4.628H123.3c-.126.213-.3.507-.535.909l-.826,1.4h6.41v4.628h-6.322a25.942,25.942,0,0,1-.536-3.866c-.295.5-.521.888-.521.888l-1.237,2.1v0l0,0a2.215,2.215,0,0,1-.158.2c.041.222.065.447.111.668h-.828a2.505,2.505,0,0,1-1.28.36h-.019a2.506,2.506,0,0,1-1.268-.36h-.673c-.189-.453-.347-.917-.49-1.385l-1.8-3.167-1.176-2.068v1.995h.039a17.351,17.351,0,0,0,16.161,16.153v.042h2.314v-.042a17.334,17.334,0,0,0,14.2-9.276A2.511,2.511,0,0,1,143.4,339.712Zm-26.574,1.217h3.464a18.375,18.375,0,0,0,2.723,5.472A15.108,15.108,0,0,1,116.824,340.929Zm11.524,6.794c-2.379-.636-4.427-3.191-5.669-6.794h5.669Zm2.311-29.783c2.376.634,4.426,3.189,5.669,6.791h-5.669Zm0,9.105h6.317a26.03,26.03,0,0,1,.6,4.628h-6.917Zm0,6.942h6.919a25.679,25.679,0,0,1-.6,4.628h-6.319Zm0,13.736h0v-6.793h5.669C135.086,344.532,133.036,347.086,130.659,347.723Zm5.334-1.322a18.478,18.478,0,0,0,2.726-5.472h3.462A15.11,15.11,0,0,1,135.993,346.4Z"/>
      </g>
      <path id="Union_156" data-name="Union 156" class="cls-3" d="M-956.415-1692.453a.5.5,0,0,1-.434-.255q-4.14-7.285-4.143-7.288l-.023-.041a5.909,5.909,0,0,1-.511-1.146,6.227,6.227,0,0,1-.309-1.905,5.443,5.443,0,0,1,5.435-5.437,5.5,5.5,0,0,1,5.5,4.926,6.147,6.147,0,0,1-.223,2.167,8.773,8.773,0,0,1-.946,2.08l0,0s-.07.118-.881,1.5l-1.795,3.055-1.236,2.1a.508.508,0,0,1-.436.247Zm-2.421-11a2.5,2.5,0,0,0,2.5,2.5,2.5,2.5,0,0,0,2.5-2.5,2.5,2.5,0,0,0-2.5-2.5A2.5,2.5,0,0,0-958.836-1703.452Zm-25.6,9a.5.5,0,0,1-.436-.254q-4.139-7.284-4.142-7.289l-.023-.04a5.908,5.908,0,0,1-.511-1.146,6.233,6.233,0,0,1-.309-1.905,5.443,5.443,0,0,1,5.434-5.437,5.506,5.506,0,0,1,5.5,4.926,6.189,6.189,0,0,1-.223,2.167,8.809,8.809,0,0,1-.947,2.08l0,0s-.071.118-.881,1.5l-1.8,3.055-1.237,2.1a.5.5,0,0,1-.434.247Zm-2.422-11a2.5,2.5,0,0,0,2.5,2.5,2.5,2.5,0,0,0,2.5-2.5,2.5,2.5,0,0,0-2.5-2.5A2.5,2.5,0,0,0-986.854-1705.452Z" transform="translate(1102.002 2031.428)"/>
    </g>
  </g>
</svg>
