<?xml version="1.0" encoding="utf-8"?>
<!-- Generator: Adobe Illustrator 26.0.1, SVG Export Plug-In . SVG Version: 6.00 Build 0)  -->
<svg version="1.1" id="レイヤー_1" xmlns="http://www.w3.org/2000/svg" xmlns:xlink="http://www.w3.org/1999/xlink" x="0px"
	 y="0px" viewBox="0 0 60 60" style="enable-background:new 0 0 60 60;" xml:space="preserve">
<style type="text/css">
	.st0{fill:none;}
	.st1{fill:#393A3A;}
</style>
<rect y="0.1" class="st0" width="60" height="60"/>
<path class="st1" d="M30,54.9c-13.6,0-24.8-11.1-24.8-24.8C5.2,16.5,16.4,5.4,30,5.4c13.6,0,24.8,11.1,24.8,24.8
	C54.8,43.8,43.6,54.9,30,54.9z M30,9.9C18.8,9.9,9.8,19,9.8,30.1S18.8,50.4,30,50.4s20.2-9.1,20.2-20.2S41.2,9.9,30,9.9z"/>
<path class="st1" d="M28.2,26.8h3.5c0.3,0,0.5,0.2,0.5,0.5v15c0,0.3-0.2,0.5-0.5,0.5h-3.5c-0.3,0-0.5-0.2-0.5-0.5v-15
	C27.8,27,28,26.8,28.2,26.8z"/>
<path class="st1" d="M28.3,17.5h3.5c0.3,0,0.5,0.2,0.5,0.5v3.5c0,0.3-0.2,0.5-0.5,0.5h-3.5c-0.3,0-0.5-0.2-0.5-0.5V18
	C27.8,17.7,28,17.5,28.3,17.5z"/>
</svg>
