<svg xmlns="http://www.w3.org/2000/svg" width="18.699" height="5.628" viewBox="0 0 18.699 5.628">
    <defs>
        <style>
            .cls-1{fill:#fff}.cls-2,.cls-3{stroke:none}.cls-3{fill:rgba(58,66,72,.5)}
        </style>
    </defs>
    <g id="_..." data-name="..." transform="translate(-970 -737.999)">
        <g id="Union_29" class="cls-1" data-name="Union 29">
            <path d="M19613.066 10591.814a1.816 1.816 0 1 1 1.816 1.816 1.814 1.814 0 0 1-1.816-1.816zm-6.533 0a1.816 1.816 0 1 1 1.816 1.816 1.814 1.814 0 0 1-1.816-1.816zm-6.533 0a1.814 1.814 0 1 1 1.816 1.816 1.814 1.814 0 0 1-1.816-1.816z" class="cls-2" transform="translate(-18629 -9851.003)"/>
            <path d="M19601.816 10590.003a1.814 1.814 0 1 0-.005 3.628 1.814 1.814 0 0 0 .005-3.628m6.534 0a1.814 1.814 0 1 0 0 3.628 1.814 1.814 0 1 0 0-3.628m6.533 0a1.814 1.814 0 1 0 0 3.628 1.814 1.814 0 1 0 0-3.628m-13.067-1a2.816 2.816 0 0 1 2.813 2.811 2.818 2.818 0 0 1-2.813 2.817 2.82 2.82 0 0 1-2.816-2.817 2.818 2.818 0 0 1 2.816-2.811zm6.534 0a2.818 2.818 0 0 1 2.816 2.811 2.82 2.82 0 0 1-2.816 2.817 2.82 2.82 0 0 1-2.817-2.817 2.818 2.818 0 0 1 2.817-2.811zm6.533 0a2.818 2.818 0 0 1 2.816 2.811 2.82 2.82 0 0 1-2.816 2.817 2.82 2.82 0 0 1-2.817-2.817 2.818 2.818 0 0 1 2.817-2.811z" class="cls-3" transform="translate(-18629 -9851.003)"/>
        </g>
    </g>
</svg>
