<?xml version="1.0" encoding="UTF-8" standalone="no"?>
<svg width="40px" height="40px" viewBox="0 0 20 15" version="1.1" xmlns="http://www.w3.org/2000/svg"
     xmlns:xlink="http://www.w3.org/1999/xlink">
    <g transform="rotate(90 168.043 153.957)">
        <g fill="rgb(142,150,160,0.8)">
            <path stroke="none" transform="translate(482.083 499)"
                  d="M-457.082-178h-2.973a2.002 2.002 0 001.972-2c0-1.103-.897-2-2-2-1.102 0-2 .897-2 2 0 1.093.883 1.985 1.973 2h-2.972c-1.655 0-3-1.346-3-3v-2c0-1.654 1.345-3 3-3h6c1.654 0 3 1.346 3 3v2c0 1.654-1.346 3-3 3z"/>
            <path fill="rgb(142,150,160,0.8)" stroke="none" transform="translate(482.083 499)"
                  d="M-457.082-179c1.102 0 2-.897 2-2v-2c0-1.103-.898-2-2-2h-6c-1.103 0-2 .897-2 2v2c0 1.103.897 2 2 2h.17a3.003 3.003 0 012.829-4 3.003 3.003 0 012.829 4h.172m0 2h-6c-2.206 0-4-1.795-4-4v-2c0-2.206 1.794-4 4-4h6c2.205 0 4 1.794 4 4v2c0 2.205-1.795 4-4 4zm-3-4a1.001 1.001 0 000 2 1.001 1.001 0 000-2z"/>
        </g>
        <path id="prefix__Path_8179" d="M9755.5 1545a4.833 4.833 0 00-5-5" fill="none" stroke="rgb(142,150,160,0.8)"
              stroke-linecap="round" stroke-width="2px" transform="rotate(-45 3398.955 12672.232)"/>
        <path id="prefix__Path_8180" d="M9759.5 1549a8.7 8.7 0 00-9-9" fill="none" stroke="rgb(142,150,160,0.8)"
              stroke-linecap="round" stroke-width="2px" transform="rotate(-45 3394.066 12674.448)"/>
    </g>
    ,
</svg>
