<svg xmlns="http://www.w3.org/2000/svg" width="40" height="40" viewBox="0 0 40 40">
    <defs>
        <style>
            .cls-1{fill:none}.cls-2{fill:#3a4248}
        </style>
    </defs>
    <g id="link" transform="translate(-925 -2103)">
        <path id="Rectangle_10161" d="M0 0h40v40H0z" class="cls-1" data-name="Rectangle 10161" transform="translate(925 2103)"/>
        <g id="link-symbol" transform="translate(934.999 2113)">
            <path id="Path_3285" d="M17.552 8.622l-3.572 3.571a4.991 4.991 0 0 1-7.909-1.019l1.66-1.66A1.192 1.192 0 0 1 8 9.336a2.485 2.485 0 0 0 .623 1.072 2.527 2.527 0 0 0 3.571 0l3.571-3.571a2.525 2.525 0 0 0-3.571-3.572l-1.27 1.271A6.336 6.336 0 0 0 7.7 4.185l2.706-2.706a5.051 5.051 0 0 1 7.143 7.143zm-9.443 5.872l-1.271 1.271a2.526 2.526 0 0 1-3.572-3.572l3.572-3.571a2.527 2.527 0 0 1 3.571 0 2.5 2.5 0 0 1 .624 1.07 1.213 1.213 0 0 0 .269-.178l1.66-1.659a4.964 4.964 0 0 0-.767-1.019 5.051 5.051 0 0 0-7.143 0l-3.571 3.572a5.051 5.051 0 0 0 7.143 7.143l2.707-2.707a6.333 6.333 0 0 1-3.222-.35z" class="cls-2" data-name="Path 3285"/>
        </g>
    </g>
</svg>
