<svg xmlns="http://www.w3.org/2000/svg" width="40" height="40" viewBox="0 0 40 40">
    <defs>
        <style>
            .cls-1{fill:url(#radial-gradient)}
        </style>
        <radialGradient id="radial-gradient" cx=".805" cy=".845" r=".678" gradientTransform="matrix(-.449 -.893 2.037 -1.024 -.554 2.428)">
            <stop offset="0" stop-color="#fff"/>
            <stop offset=".36" stop-color="#fff"/>
            <stop offset="1" stop-color="#fff" stop-opacity=".141"/>
        </radialGradient>
    </defs>
    <path id="Union_157" d="M2052.586-4360.344l4.715-9.58V-4359a21.06 21.06 0 0 1-4.715-1.344zm9.565-9.975l5.377 9.459a20.906 20.906 0 0 1-4.744 1.232zm-18.045 4.176l8.8-5.9-5.377 9.456a21.2 21.2 0 0 1-3.423-3.556zm22.054-6.981l9.311 5.461a21.487 21.487 0 0 1-3.5 3.477zm-26.544-2.347l10.527-.643-9.311 5.462a21.8 21.8 0 0 1-1.216-4.819zm28.632-2.118H2079a21.978 21.978 0 0 1-1.32 4.792zM2039-4381.04a21.9 21.9 0 0 1 1.322-4.789l9.432 4.789zm3.53-9.923a21.288 21.288 0 0 1 3.5-3.479l5.81 8.939zm7.941-6.8a21.04 21.04 0 0 1 4.746-1.235l.628 10.692z" class="cls-1" data-name="Union 157" transform="translate(-2039 4399.001)"/>
</svg>
