<svg id="レイヤー_1" data-name="レイヤー 1" xmlns="http://www.w3.org/2000/svg" viewBox="0 0 60 60"><defs><style>.cls-1{fill:none;}.cls-2{fill:#393a3a;}</style></defs><rect class="cls-1" width="60" height="60"/><path class="cls-2" d="M37.88,41v9.25H10.38V9.75h27.5V19h4.5V9.5a4.25,4.25,0,0,0-4.25-4.25h-28A4.26,4.26,0,0,0,5.88,9.5v41a4.26,4.26,0,0,0,4.25,4.25h28a4.25,4.25,0,0,0,4.25-4.25V41Z"/><polygon class="cls-2" points="24.01 32.25 48.06 32.25 44.42 37.5 48.92 37.5 54.12 30 48.92 22.5 44.42 22.5 48.06 27.75 24.01 27.75 24.01 32.25"/></svg>