<svg id="レイヤー_1" data-name="レイヤー 1" xmlns="http://www.w3.org/2000/svg" viewBox="0 0 900 300"><defs><style>.cls-1{fill:#0f79bc;}.cls-2{fill:#fff;}</style></defs><rect class="cls-1" width="900" height="300"/><path class="cls-2" d="M49.3,98.27v72H83v12.85H35V98.27Z"/><path class="cls-2" d="M91,132.67A46.2,46.2,0,0,1,114.6,126c13.57,0,23.38,6.3,23.38,17.33v39.74H125.14v-7.64c-3.52,5.94-11.27,8.85-18.42,8.85-10.54,0-19.51-6.42-19.51-17.81,0-10.79,8-17.69,21.81-17.69a33,33,0,0,1,16.12,3.88v-6.79c0-6.78-5-9.21-11.88-9.21a31,31,0,0,0-17,5.21Zm19.87,41.8c7.75,0,14.3-5.08,14.3-13.57v-.84a30.64,30.64,0,0,0-13-2.67c-8.24,0-11.75,3.15-11.75,8.36C100.42,171.32,104.78,174.47,110.84,174.47Z"/><path class="cls-2" d="M178.81,136.67c-7.52,0-12.36,4.85-12.36,12.48v33.93H153.24V127.34h13.21V136q5.27-9.82,16.72-9.82c12.6,0,19.38,8.12,19.38,21.45v35.5H189.1V149.15C189.1,141,185.83,136.67,178.81,136.67Z"/><path class="cls-2" d="M242.17,126.13a21.5,21.5,0,0,1,19,10.54V88.57H274.4v94.51H261.19v-9.33a21.5,21.5,0,0,1-19,10.54c-14.54,0-27.14-10.79-27.14-29.08S227.63,126.13,242.17,126.13Zm3.15,46.77c7.63,0,15.87-6.42,15.87-17.69s-8.24-17.69-15.87-17.69c-9.09,0-16.72,6.54-16.72,17.69S236.23,172.9,245.32,172.9Z"/><path class="cls-2" d="M303.83,88.57v94.51h-13.2V88.57Z"/><path class="cls-2" d="M346.23,126.13c17.09,0,30,11.88,30,29.08s-13,29.08-30,29.08-30-12-30-29.08S329.15,126.13,346.23,126.13Zm0,46.65c9.33,0,16.6-7.15,16.6-17.57s-7.27-17.57-16.6-17.57-16.59,7.15-16.59,17.57S336.78,172.78,346.23,172.78Z"/><path class="cls-2" d="M398.69,186.83c.24,7.51,6.3,13.21,15.75,13.21,8.12,0,16.24-5.7,16.24-18.18v-8.48c-4.12,6.67-10.91,10.3-19,10.3-14.54,0-27.14-10.42-27.14-28.83s12.6-28.72,27.14-28.72c8.11,0,14.9,3.64,19,10.3v-9.09h12.84v54.52c0,20.12-13.69,29.57-28.84,29.57-18.17,0-28.47-10.06-29.07-24.6Zm16.12-14.54c7.63,0,15.87-6,15.87-17.44s-8.24-17.33-15.87-17.33c-9.09,0-16.72,6.18-16.72,17.33S405.72,172.29,414.81,172.29Z"/><path class="cls-2" d="M554.49,98.27h16.6L529.54,187.8,488.1,98.27h16.48l25,59.61Z"/><path class="cls-2" d="M587.44,97.18a8,8,0,1,1-8.24,8A8.14,8.14,0,0,1,587.44,97.18ZM594,127.34v55.74H581V127.34Z"/><path class="cls-2" d="M607.8,155.21c0-17.57,11.39-29.08,29.07-29.08s27.87,10.66,27.87,28.47c0,1.46-.12,3-.12,3.64H621.25c.84,9.81,6.54,15.26,15.62,15.26,7.15,0,12.48-2.9,16-8.84l11.39,4.48c-5.94,10.18-15.15,15.15-28,15.15C619.06,184.29,607.8,172.66,607.8,155.21Zm13.81-6.06h28.83c-.6-7.87-5.81-13.08-13.69-13.08C628.39,136.19,623.18,140.67,621.61,149.15Z"/><path class="cls-2" d="M683.27,127.34l13,33.2,15.5-37.44L728,160.66l13.08-33.32h14.3L729.31,187l-17.57-37.56L695,187l-26-59.61Z"/><path class="cls-2" d="M759.48,155.21c0-17.57,11.39-29.08,29.08-29.08s27.86,10.66,27.86,28.47c0,1.46-.12,3-.12,3.64H772.93c.84,9.81,6.54,15.26,15.63,15.26,7.14,0,12.47-2.9,16-8.84l11.39,4.48c-5.94,10.18-15.15,15.15-28,15.15C770.74,184.29,759.48,172.66,759.48,155.21Zm13.81-6.06h28.83c-.6-7.87-5.81-13.08-13.69-13.08C780.07,136.19,774.86,140.67,773.29,149.15Z"/><path class="cls-2" d="M851.19,138.37c-6.54,0-9.21,5.33-9.21,13.33v31.38H829V127.34h13V134c3.27-5,8-8,12.72-8a13.34,13.34,0,0,1,10.3,4.24l-6.42,11C856.16,139.34,854.34,138.37,851.19,138.37Z"/></svg>