<svg xmlns="http://www.w3.org/2000/svg" viewBox="0 0 100 100"><defs><style>.cls-1{fill:#566adf}</style></defs><path style="fill:rgba(0, 0, 0, 0.004)" d="M0 0h100v100H0z"/><path class="cls-1" d="M71.34 42.35c0 11.72-9.54 21.26-21.26 21.26s-21.26-9.54-21.26-21.26-4.72 0-4.72 0c0 14.33 11.66 25.98 25.98 25.98s25.98-11.66 25.98-25.98-4.72 0-4.72 0Z"/><path class="cls-1" d="M77.87 31.01h-.23c-2.08-8.7-8.18-15.85-16.22-19.37v19.37h-2.83V11.03c0-.88-.6-1.63-1.45-1.84-2.26-.56-4.62-.86-7.05-.86s-4.79.3-7.05.86c-.85.21-1.45.97-1.45 1.84v19.98h-2.83V11.64c-8.05 3.52-14.14 10.66-16.22 19.37h-.4c-1.57 0-2.83 1.27-2.83 2.83v.94c0 1.43 1.07 2.6 2.45 2.8v.04h56.69v-.06c1.3-.26 2.28-1.4 2.28-2.78v-.94c0-1.57-1.27-2.83-2.83-2.83ZM76.46 77.26l-15.88-3.84 2.14 4.78c.19.42-.06.92-.52 1.01l-11.21 2.31v10.15h31.58v-6.63a8.01 8.01 0 0 0-6.12-7.78ZM72 87.72c0 .55-.45 1-1 1H61c-.55 0-1-.45-1-1v-1c0-.55.45-1 1-1h10c.55 0 1 .45 1 1v1Z"/><path class="cls-1" d="m58.39 72.88 2.15 4.8c.13.29-.04.63-.35.69l-9.18 1.9 7.39-7.39ZM17.42 85.03v6.63H49V81.51L37.79 79.2a.727.727 0 0 1-.52-1.01l2.14-4.78-15.88 3.84a8.002 8.002 0 0 0-6.12 7.78ZM28 86.71c0-.55.45-1 1-1h10c.55 0 1 .45 1 1v1c0 .55-.45 1-1 1H29c-.55 0-1-.45-1-1v-1Z"/><path class="cls-1" d="m41.61 72.88-2.15 4.8c-.13.29.04.63.35.69l9.18 1.9-7.39-7.39Z"/></svg>