<svg xmlns="http://www.w3.org/2000/svg" width="40" height="40" viewBox="0 0 40 40">
    <defs>
        <style>
            .cls-1,.cls-3{fill:none}.cls-2,.cls-4{fill:#fff}.cls-2,.cls-3{stroke:#fff;stroke-linecap:round;stroke-linejoin:round;stroke-width:2px}.cls-5,.cls-6{stroke:none}.cls-6{fill:rgba(58,66,72,.5)}
        </style>
    </defs>
    <g id="map_compass" data-name="map compass" transform="translate(-959 -33)">
        <path id="Rectangle_5909" d="M0 0h40v40H0z" class="cls-1" data-name="Rectangle 5909" transform="translate(959 33)"/>
        <path id="Path_2531" d="M-14723.5-1626.592l-4.964 11.558h10z" class="cls-2" data-name="Path 2531" transform="translate(15702.467 1667.591)"/>
        <path id="Path_2532" d="M-14723.5-1615.034l-4.964-11.558h10z" class="cls-3" data-name="Path 2532" transform="translate(15702.467 1680.033)"/>
        <g id="Union_56" class="cls-4" data-name="Union 56">
            <path d="M17862.787 10927.878c-.432-1.049-3.082-7.638-4.213-10.449l-.574-1.427s4.221-10.521 4.787-11.9 1.82-1.557 2.5 0 5.035 11.9 5.035 11.9c-.008.027-.295.7-.73 1.723-1.232 2.924-3.8 9-4.3 10.153-.307.7-.758 1.1-1.248 1.1s-.976-.41-1.257-1.1zm1.281-2.135l3.563-8.347h-6.943z" class="cls-5" transform="translate(-16885.141 -10862.999)"/>
            <path d="M17864.037 10928.981c.49 0 .942-.403 1.248-1.103.502-1.149 3.072-7.23 4.305-10.153.435-1.023.722-1.696.73-1.723 0 0-4.36-10.342-5.035-11.902-.328-.754-.793-1.1-1.248-1.1-.484 0-.959.392-1.25 1.1-.566 1.38-4.787 11.902-4.787 11.902.01.022.234.583.574 1.427 1.131 2.811 3.781 9.4 4.213 10.449.281.69.748 1.103 1.25 1.103m-3.35-11.585h6.944l-3.563 8.347-3.38-8.347m3.35 12.585c-.923 0-1.737-.645-2.177-1.726-.441-1.07-3.183-7.887-4.215-10.453l-.404-1.006c-.09-.224-.146-.366-.162-.403l-.164-.375.156-.388a5155.66 5155.66 0 0 1 4.79-11.91c.443-1.077 1.255-1.72 2.175-1.72.428 0 1.496.166 2.164 1.7.672 1.549 4.996 11.81 5.041 11.913l.137.325-.098.34c-.023.083-.023.083-.636 1.523l-.135.315c-1.256 2.98-3.81 9.024-4.309 10.162-.474 1.083-1.262 1.703-2.164 1.703zm-1.866-11.585l1.92 4.743 2.025-4.743h-3.945z" class="cls-6" transform="translate(-16885.141 -10862.999)"/>
        </g>
    </g>
</svg>
