<svg xmlns="http://www.w3.org/2000/svg" viewBox="0 0 100 100"><defs><style>.cls-1{fill:#566adf}</style></defs><path style="fill:rgba(0, 0, 0, 0.004)" d="M0 0h100v100H0z"/><path class="cls-1" d="m39.34 74.09-.8.8c-3.71 3.71-9.73 3.71-13.44 0-3.71-3.71-3.71-9.73 0-13.44l15.56-15.56c3.71-3.71 9.73-3.71 13.44 0 .51.51.94 1.05 1.31 1.64.68 1.08 2.19 1.23 3.09.33l7.17-7.17a2 2 0 0 0 .17-2.64c-1.89-2.4-4.31-4.51-7.33-6.14-9.22-4.99-20.68-2.98-28.09 4.43l-13.6 13.6C6.04 60.72 6.04 75.6 15.22 84.78c9.18 9.18 24.06 9.18 33.23 0l5.43-5.43c1.28-1.28.4-3.49-1.42-3.5-3.71-.02-7.42-.76-10.9-2.23-.76-.32-1.63-.12-2.21.46Z"/><path class="cls-1" d="m60.66 25.91.8-.8c3.71-3.71 9.73-3.71 13.44 0 3.71 3.71 3.71 9.73 0 13.44L59.34 54.11c-3.71 3.71-9.73 3.71-13.44 0-.51-.51-.94-1.05-1.31-1.64-.68-1.08-2.19-1.23-3.09-.33l-7.17 7.17a2 2 0 0 0-.17 2.64c1.89 2.4 4.31 4.51 7.33 6.14 9.22 4.99 20.68 2.98 28.09-4.43l13.6-13.6c10.78-10.78 10.78-25.66 1.6-34.84-9.18-9.18-24.06-9.18-33.23 0l-5.43 5.43c-1.28 1.28-.4 3.49 1.42 3.5 3.71.02 7.42.76 10.9 2.23.76.32 1.63.12 2.21-.46Z"/></svg>