<svg xmlns="http://www.w3.org/2000/svg" width="40" height="40" viewBox="0 0 40 40">
    <defs>
        <style>
            .cls-1{fill:none}.cls-2{fill:#fff}.cls-3,.cls-4{stroke:none}.cls-4{fill:rgba(58,66,72,.5)}
        </style>
    </defs>
    <g id="map_maximize" data-name="map maximize" transform="translate(-268 -723)">
        <path id="Rectangle_5886" d="M0 0h40v40H0z" class="cls-1" data-name="Rectangle 5886" transform="translate(268 723)"/>
        <g id="Union_37" class="cls-2" data-name="Union 37">
            <path d="M19600 10610v-7h2v5h5v2zm13 0v-2h5v-5h2v7zm4.992-13v-5H19613v-2h7v7zm-17.992 0v-7h7v2h-5v5z" class="cls-3" transform="translate(-19321.998 -9857.002)"/>
            <path d="M19607 10610.003v-2.004h-5.002v-5.003h-1.994v7.007h6.996m13-.005V10602.996h-2.004v5.003h-4.992v1.999h6.996m0-12.995v-7.007h-6.996v2.005h4.992v5.002h2.004m-18.002 0V10592h5.002v-2.005H19600.004v7.007h1.994m6.002 14h-8.996v-9.007H19602.998v5.003h5.002v4.004zm13-.005h-8.996v-3.999h4.992v-5.003h4.004v9.002zm0-12.995h-4.004V10593h-4.992v-4.005h8.996v9.007zm-18.002 0H19599.004v-9.007H19608v4.005h-5.002v5.002z" class="cls-4" transform="translate(-19321.998 -9857.002)"/>
        </g>
    </g>
</svg>
