<?xml version="1.0" encoding="utf-8"?>
<!-- Generator: Adobe Illustrator 26.0.1, SVG Export Plug-In . SVG Version: 6.00 Build 0)  -->
<svg version="1.1" id="レイヤー_1" xmlns="http://www.w3.org/2000/svg" xmlns:xlink="http://www.w3.org/1999/xlink" x="0px"
	 y="0px" viewBox="0 0 70 70" style="enable-background:new 0 0 70 70;" xml:space="preserve">
<style type="text/css">
	.st0{opacity:0.8;}
	.st1{clip-path:url(#SVGID_00000064316965266954567520000015357727951990768269_);}
	.st2{fill:none;}
	.st3{fill:#FFFFFF;}
</style>
<circle class="st0" cx="35" cy="35" r="35"/>
<g>
	<defs>
		<circle id="SVGID_1_" cx="35" cy="35" r="35"/>
	</defs>
	<clipPath id="SVGID_00000167383642861007077550000009755336160387691158_">
		<use xlink:href="#SVGID_1_"  style="overflow:visible;"/>
	</clipPath>
	<g style="clip-path:url(#SVGID_00000167383642861007077550000009755336160387691158_);">
		<rect x="10" y="10" class="st2" width="50" height="50"/>
		<path class="st3" d="M35,49.4c-0.8,0-1.5-0.2-2.1-0.7L13.4,33.1c-1.2-0.9-1.5-2.7-0.5-3.9c0,0,0,0,0,0c0.2-0.2,0.3-0.4,0.5-0.5
			L32.9,13c1.2-1,3-1,4.2,0l19.5,15.6c1.2,0.9,1.5,2.7,0.5,3.9c0,0,0,0,0,0c-0.1,0.2-0.3,0.4-0.5,0.5L37.1,48.7
			C36.5,49.1,35.8,49.4,35,49.4z M16.6,30.8L35,45.5l18.4-14.7L35,16.1L16.6,30.8z"/>
		<path class="st3" d="M52.9,39.6L35,53.9L17.7,40c-0.6-0.5-1.5-0.5-2.1,0l-1.1,0.9c-0.4,0.3-0.4,0.8-0.1,1.2c0,0,0,0,0,0l0.1,0.1
			L32.9,57c1.2,1,3,1,4.2,0l18.4-14.8c0.4-0.3,0.4-0.8,0.1-1.2c0,0,0,0,0,0c0-0.1-0.1-0.1-0.1-0.1l-1.7-1.3
			C53.6,39.3,53.2,39.3,52.9,39.6z"/>
	</g>
</g>
</svg>
