<svg xmlns="http://www.w3.org/2000/svg" width="40" height="40" viewBox="0 0 40 40">
    <defs>
        <style>
            .cls-1{fill:none}.cls-2{fill:#fff}.cls-3,.cls-4{stroke:none}.cls-4{fill:rgba(58,66,72,.5)}
        </style>
    </defs>
    <g id="map_zoom" data-name="map zoom" transform="translate(-959 -120)">
        <path id="Rectangle_5908" d="M0 0h40v40H0z" class="cls-1" data-name="Rectangle 5908" transform="translate(959 120)"/>
        <g id="Union_59" class="cls-2" data-name="Union 59">
            <path d="M18072.035 12486.662a9.678 9.678 0 1 1 2.2-2.046l4.16 4.161-2.123 2.123zm-13-8.008a7.617 7.617 0 1 0 7.613-7.622 7.626 7.626 0 0 0-7.611 7.622zm6.678 4.061v-3h-3v-2h3v-3h2v3h3v2h-3v3z" class="cls-3" transform="translate(-17089 -12340.001)"/>
            <path d="M18076.273 12490.9l2.123-2.123-4.16-4.16a9.582 9.582 0 0 0 2.069-5.963c0-5.321-4.332-9.654-9.655-9.654-2.578 0-5 1.002-6.824 2.826a9.618 9.618 0 0 0-2.826 6.828c0 5.323 4.332 9.65 9.65 9.65a9.616 9.616 0 0 0 5.385-1.642l4.238 4.238m-9.623-19.868c4.205 0 7.621 3.421 7.621 7.622 0 4.202-3.416 7.623-7.62 7.623-4.202 0-7.614-3.42-7.614-7.623 0-4.2 3.412-7.622 7.613-7.622m1.067 11.683v-2.998h2.998v-2.001h-2.998v-3.004h-2.002v3.004h-2.998v2h2.998v2.999h2.002m8.556 9.6l-.707-.708-3.68-3.678a10.6 10.6 0 0 1-5.236 1.376c-5.873 0-10.65-4.778-10.65-10.65 0-2.843 1.107-5.517 3.117-7.535a10.584 10.584 0 0 1 7.533-3.12c5.875 0 10.655 4.78 10.655 10.654 0 2.114-.606 4.121-1.758 5.858l3.557 3.558.707.707-.707.707-2.124 2.123-.707.707zm-9.623-20.283c-3.646 0-6.613 2.97-6.613 6.622 0 3.653 2.967 6.623 6.613 6.623a6.63 6.63 0 0 0 6.621-6.623 6.63 6.63 0 0 0-6.62-6.622zm2.067 11.683h-4.002v-2.998h-2.998V12476.716h2.998v-3.004h4.002v3.004h2.998v4h-2.998v2.999z" class="cls-4" transform="translate(-17089 -12340.001)"/>
        </g>
    </g>
</svg>
