<svg xmlns="http://www.w3.org/2000/svg" width="40" height="40" viewBox="0 0 40 40">
    <defs>
        <style>
            .cls-1{fill:none}.cls-2{fill:#fff}.cls-3,.cls-4{stroke:none}.cls-4{fill:rgba(58,66,72,.5)}
        </style>
    </defs>
    <g id="map_center" data-name="map center" transform="translate(-959 -76)">
        <path id="Path_2667" d="M0 0h40v40H0z" class="cls-1" data-name="Path 2667" transform="translate(959 76)"/>
        <g id="Group_6519" data-name="Group 6519" transform="translate(.003 -11.998)">
            <g id="Union_55" class="cls-2" data-name="Union 55">
                <path d="M17925 10986v-5.067a8.018 8.018 0 0 1-6.943-6.935h-5.064v-2h5.063a8.017 8.017 0 0 1 6.945-6.939V10960h2v5.064a8.018 8.018 0 0 1 6.934 6.938h5.065v2h-5.064a8.022 8.022 0 0 1-6.934 6.934v5.064zm.994-7a6 6 0 0 0 .221-12h-.441a6.006 6.006 0 0 0-5.775 5.771v.443a6.008 6.008 0 0 0 6.001 5.786z" class="cls-3" transform="translate(-16946.998 -10865)"/>
                <path d="M17927 10986.001v-5.068a8.022 8.022 0 0 0 6.934-6.934h5.064V10972h-5.064c-.45-3.611-3.325-6.483-6.934-6.938v-5.065h-1.998v5.064a8.017 8.017 0 0 0-6.945 6.939h-5.063v1.999h5.065a8.018 8.018 0 0 0 6.943 6.935v5.067h1.998m-1.225-18.998h.442c3.207.116 5.781 2.762 5.781 5.992a6.01 6.01 0 0 1-6.002 6.006 6.008 6.008 0 0 1-5.996-5.784v-.444a6.006 6.006 0 0 1 5.775-5.77M17928 10987h-3.998v-5.23a9.053 9.053 0 0 1-4.363-2.41 9.059 9.059 0 0 1-2.416-4.362h-5.229V10971h5.225a9.033 9.033 0 0 1 2.416-4.363 9.053 9.053 0 0 1 4.367-2.414v-5.226h3.998v5.228a9.072 9.072 0 0 1 4.36 2.415 9.05 9.05 0 0 1 2.411 4.36h5.227v3.999h-5.228a9.052 9.052 0 0 1-2.415 4.357 9.056 9.056 0 0 1-4.355 2.414v5.231zm-7-13.803a4.978 4.978 0 0 0 1.523 3.396 4.972 4.972 0 0 0 3.473 1.407 5.01 5.01 0 0 0 5.002-5.006 4.97 4.97 0 0 0-1.406-3.469 4.977 4.977 0 0 0-3.395-1.523h-.402c-2.592.103-4.691 2.202-4.795 4.79v.405z" class="cls-4" transform="translate(-16946.998 -10865)"/>
            </g>
        </g>
    </g>
</svg>
