<svg xmlns="http://www.w3.org/2000/svg" width="41" height="200" viewBox="0 0 41 200">
    <defs>
        <style>
            .cls-1{opacity:.406}.cls-2,.cls-5{fill:none}.cls-3,.cls-4{fill:#fff}.cls-4,.cls-5{stroke:#fff;stroke-linecap:round;stroke-linejoin:round;stroke-width:2px}.cls-6,.cls-7{stroke:none}.cls-7{fill:rgba(58,66,72,.5)}
        </style>
    </defs>
    <g id="map_navigate" data-name="map navigate" transform="translate(-958 -13)">
        <path id="Path_2666" d="M20 0a20 20 0 0 1 20 20v160a20 20 0 0 1-40 0V20A20 20 0 0 1 20 0z" class="cls-1" data-name="Path 2666" transform="translate(958 13)"/>
        <g id="map_center" data-name="map center" transform="translate(0 -3)">
            <path id="Path_2667" d="M0 0h40v40H0z" class="cls-2" data-name="Path 2667" transform="translate(959 76)"/>
        </g>
        <g id="map_zoom" data-name="map zoom" transform="translate(-1 5)">
            <path id="Rectangle_5908" d="M0 0h40v40H0z" class="cls-2" data-name="Rectangle 5908" transform="translate(959 120)"/>
            <g id="Union_59" class="cls-3" data-name="Union 59">
                <path d="M18072.035 12486.662a9.678 9.678 0 1 1 2.2-2.046l4.16 4.161-2.123 2.123zm-13-8.008a7.617 7.617 0 1 0 7.613-7.622 7.626 7.626 0 0 0-7.611 7.622zm6.678 4.061v-3h-3v-2h3v-3h2v3h3v2h-3v3z" class="cls-6" transform="translate(-17089 -12340.001)"/>
                <path d="M18076.273 12490.9l2.123-2.123-4.16-4.16a9.582 9.582 0 0 0 2.069-5.963c0-5.321-4.332-9.654-9.655-9.654-2.578 0-5 1.002-6.824 2.826a9.618 9.618 0 0 0-2.826 6.828c0 5.323 4.332 9.65 9.65 9.65a9.616 9.616 0 0 0 5.385-1.642l4.238 4.238m-9.623-19.868c4.205 0 7.621 3.421 7.621 7.622 0 4.202-3.416 7.623-7.62 7.623-4.202 0-7.614-3.42-7.614-7.623 0-4.2 3.412-7.622 7.613-7.622m1.067 11.683v-2.998h2.998v-2.001h-2.998v-3.004h-2.002v3.004h-2.998v2h2.998v2.999h2.002m8.556 9.6l-.707-.708-3.68-3.678a10.6 10.6 0 0 1-5.236 1.376c-5.873 0-10.65-4.778-10.65-10.65 0-2.843 1.107-5.517 3.117-7.535a10.584 10.584 0 0 1 7.533-3.12c5.875 0 10.655 4.78 10.655 10.654 0 2.114-.606 4.121-1.758 5.858l3.557 3.558.707.707-.707.707-2.124 2.123-.707.707zm-9.623-20.283c-3.646 0-6.613 2.97-6.613 6.622 0 3.653 2.967 6.623 6.613 6.623a6.63 6.63 0 0 0 6.621-6.623 6.63 6.63 0 0 0-6.62-6.622zm2.067 11.683h-4.002v-2.998h-2.998V12476.716h2.998v-3.004h4.002v3.004h2.998v4h-2.998v2.999z" class="cls-7" transform="translate(-17089 -12340.001)"/>
            </g>
        </g>
        <g id="map_compass" data-name="map compass" transform="translate(-1 -12)">
            <path id="Rectangle_5909" d="M0 0h40v40H0z" class="cls-2" data-name="Rectangle 5909" transform="translate(959 33)"/>
            <path id="Path_2531" d="M-14723.5-1626.592l-4.964 11.558h10z" class="cls-4" data-name="Path 2531" transform="translate(15702.467 1667.591)"/>
            <path id="Path_2532" d="M-14723.5-1615.034l-4.964-11.558h10z" class="cls-5" data-name="Path 2532" transform="translate(15702.467 1680.033)"/>
            <g id="Union_56" class="cls-3" data-name="Union 56">
                <path d="M17862.787 10927.878c-.432-1.049-3.082-7.638-4.213-10.449l-.574-1.427s4.221-10.521 4.787-11.9 1.82-1.557 2.5 0 5.035 11.9 5.035 11.9c-.008.027-.295.7-.73 1.723-1.232 2.924-3.8 9-4.3 10.153-.307.7-.758 1.1-1.248 1.1s-.976-.41-1.257-1.1zm1.281-2.135l3.563-8.347h-6.943z" class="cls-6" transform="translate(-16885.141 -10862.999)"/>
                <path d="M17864.037 10928.981c.49 0 .942-.403 1.248-1.103.502-1.149 3.072-7.23 4.305-10.153.435-1.023.722-1.696.73-1.723 0 0-4.36-10.342-5.035-11.902-.328-.754-.793-1.1-1.248-1.1-.484 0-.959.392-1.25 1.1-.566 1.38-4.787 11.902-4.787 11.902.01.022.234.583.574 1.427 1.131 2.811 3.781 9.4 4.213 10.449.281.69.748 1.103 1.25 1.103m-3.35-11.585h6.944l-3.563 8.347-3.38-8.347m3.35 12.585c-.923 0-1.737-.645-2.177-1.726-.441-1.07-3.183-7.887-4.215-10.453l-.404-1.006c-.09-.224-.146-.366-.162-.403l-.164-.375.156-.388a5155.66 5155.66 0 0 1 4.79-11.91c.443-1.077 1.255-1.72 2.175-1.72.428 0 1.496.166 2.164 1.7.672 1.549 4.996 11.81 5.041 11.913l.137.325-.098.34c-.023.083-.023.083-.636 1.523l-.135.315c-1.256 2.98-3.81 9.024-4.309 10.162-.474 1.083-1.262 1.703-2.164 1.703zm-1.866-11.585l1.92 4.743 2.025-4.743h-3.945z" class="cls-7" transform="translate(-16885.141 -10862.999)"/>
            </g>
        </g>
        <g id="map_center-2" data-name="map center" transform="translate(-1 -3)">
            <path id="Path_2667-2" d="M0 0h40v40H0z" class="cls-2" data-name="Path 2667" transform="translate(959 76)"/>
            <g id="Group_6519-2" data-name="Group 6519" transform="translate(.003 -11.998)">
                <g id="Union_55" class="cls-3" data-name="Union 55">
                    <path d="M17925 10986v-5.067a8.018 8.018 0 0 1-6.943-6.935h-5.064v-2h5.063a8.017 8.017 0 0 1 6.945-6.939V10960h2v5.064a8.018 8.018 0 0 1 6.934 6.938h5.065v2h-5.064a8.022 8.022 0 0 1-6.934 6.934v5.064zm.994-7a6 6 0 0 0 .221-12h-.441a6.006 6.006 0 0 0-5.775 5.771v.443a6.008 6.008 0 0 0 6.001 5.786z" class="cls-6" transform="translate(-16946.998 -10865)"/>
                    <path d="M17927 10986.001v-5.068a8.022 8.022 0 0 0 6.934-6.934h5.064V10972h-5.064c-.45-3.611-3.325-6.483-6.934-6.938v-5.065h-1.998v5.064a8.017 8.017 0 0 0-6.945 6.939h-5.063v1.999h5.065a8.018 8.018 0 0 0 6.943 6.935v5.067h1.998m-1.225-18.998h.442c3.207.116 5.781 2.762 5.781 5.992a6.01 6.01 0 0 1-6.002 6.006 6.008 6.008 0 0 1-5.996-5.784v-.444a6.006 6.006 0 0 1 5.775-5.77M17928 10987h-3.998v-5.23a9.053 9.053 0 0 1-4.363-2.41 9.059 9.059 0 0 1-2.416-4.362h-5.229V10971h5.225a9.033 9.033 0 0 1 2.416-4.363 9.053 9.053 0 0 1 4.367-2.414v-5.226h3.998v5.228a9.072 9.072 0 0 1 4.36 2.415 9.05 9.05 0 0 1 2.411 4.36h5.227v3.999h-5.228a9.052 9.052 0 0 1-2.415 4.357 9.056 9.056 0 0 1-4.355 2.414v5.231zm-7-13.803a4.978 4.978 0 0 0 1.523 3.396 4.972 4.972 0 0 0 3.473 1.407 5.01 5.01 0 0 0 5.002-5.006 4.97 4.97 0 0 0-1.406-3.469 4.977 4.977 0 0 0-3.395-1.523h-.402c-2.592.103-4.691 2.202-4.795 4.79v.405z" class="cls-7" transform="translate(-16946.998 -10865)"/>
                </g>
            </g>
        </g>
        <g id="ruler" transform="translate(-265 -1262)">
            <path id="Rectangle_7329" d="M0 0h40v40H0z" class="cls-2" data-name="Rectangle 7329" transform="translate(1223 1431)"/>
            <g id="Union_61" class="cls-3" data-name="Union 61">
                <path d="M18059 12485a2 2 0 0 1-2-2v-12a2 2 0 0 1 2-2h19a2 2 0 0 1 2 2v12a2 2 0 0 1-2 2zm0-13v10a1 1 0 0 0 1 1h17a1 1 0 0 0 1-1v-10a1 1 0 0 0-1-1h-1.717v5.785h-2V12471h-2v3.789h-2V12471h-2v3.789h-2V12471h-2v5.785h-2V12471H18060a1 1 0 0 0-1 1z" class="cls-6" transform="rotate(-30 -10919.665 38360.733)"/>
                <path d="M18078.002 12484.999a2 2 0 0 0 2-1.996V12471a2.004 2.004 0 0 0-2-2.001h-18.998a2.004 2.004 0 0 0-2.002 2.001v12.002a2 2 0 0 0 2.002 1.996h18.998m-18-13.998h1.287v5.785h2.002v-5.785h1.996v3.789h2.002v-3.789h2v3.789h2.002v-3.789h1.996v5.785h2v-5.785h1.717c.549 0 .998.45.998.998V12482c0 .554-.45 1.003-.998 1.003h-17.002a.998.998 0 0 1-.998-1.003v-10.001c0-.549.443-.998.998-.998m18 14.998h-18.998a3.002 3.002 0 0 1-3.002-2.996V12471a3.005 3.005 0 0 1 3.002-3.001h18.998c1.654 0 3 1.347 3 3.001v12.002a3.001 3.001 0 0 1-3 2.996zm-18-13.998h-.002l.004 9.999 17 .003-.002-10.004-.715.001v5.786h-4v-1.996H18064.291v1.996h-4.002v-5.785h-.287z" class="cls-7" transform="rotate(-30 -10919.665 38360.733)"/>
            </g>
        </g>
    </g>
</svg>
