<svg viewBox="0 0 26 25" fill="none" xmlns="http://www.w3.org/2000/svg">
  <g clip-path="url(#clip0_1180_1103)">
    <path
      d="M13.0004 15.4832C12.0294 15.484 11.0801 15.1968 10.2723 14.658C9.46462 14.1192 8.83485 13.3529 8.46271 12.4561C8.09058 11.5593 7.99278 10.5722 8.1817 9.61983C8.37062 8.66743 8.83776 7.79246 9.52404 7.1056C10.2103 6.41874 11.0849 5.95085 12.0371 5.76112C12.9894 5.5714 13.9765 5.66835 14.8736 6.03973C15.7707 6.41111 16.5375 7.04022 17.0771 7.84748C17.6166 8.65474 17.9046 9.60388 17.9046 10.5748C17.9035 11.8755 17.3865 13.1227 16.4672 14.0429C15.5478 14.963 14.3011 15.481 13.0004 15.4832ZM13.0004 7.5665C12.4001 7.56568 11.8131 7.74299 11.3136 8.07598C10.8141 8.40897 10.4247 8.88267 10.1946 9.43711C9.96449 9.99154 9.90407 10.6018 10.021 11.1906C10.1379 11.7794 10.4269 12.3203 10.8513 12.7447C11.2758 13.1692 11.8167 13.4582 12.4055 13.5751C12.9943 13.692 13.6045 13.6316 14.159 13.4015C14.7134 13.1714 15.1871 12.7819 15.5201 12.2825C15.8531 11.783 16.0304 11.196 16.0296 10.5957C16.0318 10.1963 15.9551 9.80038 15.8039 9.43071C15.6527 9.06103 15.4299 8.72486 15.1485 8.44147C14.8671 8.15809 14.5324 7.93308 14.1638 7.77935C13.7952 7.62563 13.3998 7.54621 13.0004 7.54567V7.5665Z"
      fill="currentColor"/>
    <path
      d="M13.0003 23.4917C12.6139 23.4917 12.2381 23.3659 11.9295 23.1334C10.0045 21.6667 3.72949 16.4209 3.72949 10.575C3.72949 8.11625 4.70624 5.75818 6.44486 4.01956C8.18348 2.28095 10.5415 1.3042 13.0003 1.3042C15.4591 1.3042 17.8172 2.28095 19.5558 4.01956C21.2944 5.75818 22.2712 8.11625 22.2712 10.575C22.2712 16.4084 15.9962 21.6667 14.0712 23.1334C13.7626 23.3659 13.3867 23.4917 13.0003 23.4917ZM13.0003 3.1792C11.0395 3.1814 9.15963 3.96131 7.77312 5.34782C6.38661 6.73433 5.6067 8.61421 5.60449 10.575C5.60449 15.5 11.1753 20.1875 13.0003 21.5917C14.8253 20.1875 20.3962 15.5 20.3962 10.575C20.394 8.61421 19.614 6.73433 18.2275 5.34782C16.841 3.96131 14.9611 3.1814 13.0003 3.1792Z"
      fill="currentColor"/>
  </g>
  <defs>
    <clipPath id="clip0_1180_1103">
    <rect width="25" height="25" fill="white" transform="translate(0.5)"/>
    </clipPath>
  </defs>
</svg>
