<?xml version="1.0" encoding="UTF-8"?>
<svg version="1.1" viewBox="0 0 14 20.58" xmlns="http://www.w3.org/2000/svg" xmlns:cc="http://creativecommons.org/ns#" xmlns:dc="http://purl.org/dc/elements/1.1/" xmlns:rdf="http://www.w3.org/1999/02/22-rdf-syntax-ns#">
 <metadata>
  <rdf:RDF>
   <cc:Work rdf:about="">
    <dc:format>image/svg+xml</dc:format>
    <dc:type rdf:resource="http://purl.org/dc/dcmitype/StillImage"/>
    <dc:title/>
   </cc:Work>
  </rdf:RDF>
 </metadata>
 <defs>
  <style>.cls-1{fill:none}.cls-2{fill:currentColor}</style>
 </defs>
 <g data-name="Path 3273">
  <path class="cls-1" d="m7 0a7 7 0 0 1 7 7c0 3.866-7 13.58-7 13.58s-7-9.714-7-13.58a7 7 0 0 1 7-7z" data-name="Path 3273"/>
  <path class="cls-2" d="m7 2a5.006 5.006 0 0 0-5 5c0 0.436 0.231 2.241 3.2 7.187a78.695 78.695 0 0 0 1.8 2.85 83.493 83.493 0 0 0 1.8-2.85c2.969-4.946 3.2-6.751 3.2-7.187a5.006 5.006 0 0 0-5-5m0-2a7 7 0 0 1 7 7c0 3.866-7 13.58-7 13.58s-7-9.714-7-13.58a7 7 0 0 1 7-7z" data-name="Path 3274"/>
 </g>
</svg>
