<svg xmlns="http://www.w3.org/2000/svg" width="40" height="40" viewBox="0 0 40 40">
    <defs>
        <style>
            .cls-1{fill:none}.cls-2{fill:currentColor}
        </style>
    </defs>
    <g id="markup_Point" data-name="markup Point" transform="translate(-1243 -2124)">
        <path id="Rectangle_8783" d="M0 0h40v40H0z" class="cls-1" data-name="Rectangle 8783" transform="translate(1243 2124)"/>
        <g id="Path_3273" data-name="Path 3273" transform="translate(1256 2134)">
            <path id="Path_3273-2" d="M7 0a7 7 0 0 1 7 7c0 3.866-7 13.58-7 13.58S0 10.866 0 7a7 7 0 0 1 7-7z" class="cls-1" data-name="Path 3273"/>
            <path id="Path_3274" d="M7 2a5.006 5.006 0 0 0-5 5c0 .436.231 2.241 3.2 7.187a78.695 78.695 0 0 0 1.8 2.85 83.493 83.493 0 0 0 1.8-2.85C11.769 9.241 12 7.436 12 7a5.006 5.006 0 0 0-5-5m0-2a7 7 0 0 1 7 7c0 3.866-7 13.58-7 13.58S0 10.866 0 7a7 7 0 0 1 7-7z" class="cls-2" data-name="Path 3274"/>
        </g>
    </g>
</svg>
