<svg xmlns="http://www.w3.org/2000/svg" width="40" height="40" viewBox="0 0 40 40">
  <defs>
    <style>
      .cls-1 {
        fill: none;
        opacity: 0.58;
      }

      .cls-2 {
        fill: #3a4248;
        stroke: #3a4248;
        stroke-width: 0.25px;
      }
    </style>
  </defs>
  <g id="menu-manage-team" transform="translate(-759 -1703)">
    <rect id="Rectangle_11292" data-name="Rectangle 11292" class="cls-1" width="40" height="40" transform="translate(759 1703)"/>
    <g id="menu-manage-team-2" data-name="menu-manage-team" transform="translate(778.916 1723.015)">
      <path id="users-3" class="cls-2" d="M20.017,15.623l-3.476-1.738a.957.957,0,0,1-.532-.861v-1.23c.083-.1.171-.218.262-.346a8.327,8.327,0,0,0,1.075-2.11,1.444,1.444,0,0,0,.847-1.316V6.567a1.451,1.451,0,0,0-.364-.955V3.675A3.262,3.262,0,0,0,17.068,1.3,4.58,4.58,0,0,0,13.463.018,4.581,4.581,0,0,0,9.858,1.3,3.16,3.16,0,0,0,9.107,3.05a4.726,4.726,0,0,0-2.193-.486,7.372,7.372,0,0,0-2.9.993S2.914,5.8,2.908,5.839V7.506a1.267,1.267,0,0,0-.364.848V9.611a1.3,1.3,0,0,0,.48,1.007A5.576,5.576,0,0,0,4.35,12.9v1a.79.79,0,0,1-.426.7L1.5,16.118A2.883,2.883,0,0,0,0,18.648V20.03H21.831V18.559a3.265,3.265,0,0,0-1.814-2.936ZM5.094,18.488V19.3H.728v-.654a2.166,2.166,0,0,1,1.147-1.9L4.3,15.23a1.508,1.508,0,0,0,.78-1.325V12.6l-.116-.108A4.847,4.847,0,0,1,3.7,10.318l-.031-.143-.124-.08a.578.578,0,0,1-.268-.486V8.354a.636.636,0,0,1,.244-.427l.12-.108V5.861c.007-.1.2-2.568,3.275-2.568a3.788,3.788,0,0,1,2.183.6V5.612a1.451,1.451,0,0,0-.364.955V8.018a1.463,1.463,0,0,0,.037.325c.01.042.029.081.043.122a1.437,1.437,0,0,0,.062.182h0a1.458,1.458,0,0,0,.4.5l.006.02c.022.083.045.166.069.247l.029.1c.005.017.011.034.017.051.013.039.025.078.038.117.022.064.045.13.071.2.011.03.024.057.035.086.03.076.06.15.091.222.008.017.014.036.022.053l.02.046c.009.021.019.04.029.061.036.078.071.153.107.226l.017.036c.023.045.046.088.069.132.039.075.078.146.116.214l.056.1c.052.09.1.172.151.248l.031.049q.132.2.228.333l.045.062.026.035v1.2a.961.961,0,0,1-.5.844l-.963.525-.168-.015-.068.144L6.8,15.606A3.282,3.282,0,0,0,5.094,18.488ZM21.1,19.3H5.822v-.814a2.553,2.553,0,0,1,1.331-2.243l3.247-1.77a1.69,1.69,0,0,0,.881-1.483V11.529h0l-.071-.084-.01-.017s-.023-.028-.06-.076l-.007-.009c-.019-.025-.042-.055-.068-.091h0c-.054-.075-.122-.173-.2-.291l-.005-.008c-.036-.056-.073-.116-.112-.181l-.009-.015c-.082-.138-.17-.294-.257-.467h0c-.046-.093-.092-.19-.138-.292h0l-.019-.042h0c-.02-.045-.04-.093-.06-.142l-.022-.055c-.019-.048-.038-.1-.059-.151-.037-.1-.072-.2-.106-.309l-.02-.065-.007-.022c-.034-.115-.067-.233-.1-.353l-.035-.141-.124-.08a.725.725,0,0,1-.337-.61V6.567a.718.718,0,0,1,.24-.536l.12-.108v-2.4l-.006-.01a2.519,2.519,0,0,1,.586-1.736A3.908,3.908,0,0,1,13.458.745a3.917,3.917,0,0,1,3.051,1.03A2.561,2.561,0,0,1,17.1,3.61V5.923l.12.108a.717.717,0,0,1,.244.536V8.018a.724.724,0,0,1-.517.691l-.181.056-.058.18a7.617,7.617,0,0,1-1.033,2.079,4.787,4.787,0,0,1-.3.393l-.091.1v1.5a1.68,1.68,0,0,0,.934,1.511l3.476,1.738a2.541,2.541,0,0,1,1.4,2.293Z" transform="translate(-10.916 -10.015)"/>
    </g>
  </g>
</svg>
