<svg xmlns="http://www.w3.org/2000/svg" width="40" height="40" viewBox="0 0 40 40">
  <defs>
    <style>
      .cls-1 {
        fill: none;
        opacity: 0.58;
      }

      .cls-2 {
        fill: #3a4248;
      }

      .cls-3 {
        fill: #16abe3;
      }
    </style>
  </defs>
  <g id="menu-manage-password" transform="translate(-839 -1703)">
    <rect id="Rectangle_11293" data-name="Rectangle 11293" class="cls-1" width="40" height="40" transform="translate(839 1703)"/>
    <g id="menu-manage-password-2" data-name="menu-manage-password" transform="translate(859.492 1722.988)">
      <g id="lock" transform="translate(-8.493 -11.989)">
        <g id="Group_1298-2" data-name="Group 1298-2">
          <g id="Group_1297-2" data-name="Group 1297-2">
            <path id="Path_845-2" data-name="Path 845-2" class="cls-2" d="M14.486,9.988H2.5a2.5,2.5,0,0,0-2.5,2.5v8.989a2.5,2.5,0,0,0,2.5,2.5H14.486a2.5,2.5,0,0,0,2.5-2.5V12.485a2.5,2.5,0,0,0-2.5-2.5Zm1.5,11.486a1.5,1.5,0,0,1-1.5,1.5H2.5a1.5,1.5,0,0,1-1.5-1.5V12.485a1.5,1.5,0,0,1,1.5-1.5H14.486a1.5,1.5,0,0,1,1.5,1.5Z"/>
          </g>
        </g>
        <g id="Group_1300-2" data-name="Group 1300-2">
          <g id="Group_1299-2" data-name="Group 1299-2">
            <path id="Path_846-2" data-name="Path 846-2" class="cls-2" d="M8.493,0A6.5,6.5,0,0,0,2,6.492v4a.5.5,0,0,0,.5.5H14.487a.5.5,0,0,0,.5-.5v-4A6.5,6.5,0,0,0,8.493,0Zm5.493,9.988H3v-3.5a5.493,5.493,0,1,1,10.987,0Z"/>
          </g>
        </g>
        <g id="Group_1302-2" data-name="Group 1302-2">
          <g id="Group_1301-2" data-name="Group 1301-2">
            <path id="Path_847-2" data-name="Path 847-2" class="cls-3" d="M8.493,16.98a.5.5,0,0,0-.5.5v3a.5.5,0,0,0,1,0v-3A.5.5,0,0,0,8.493,16.98Z"/>
          </g>
        </g>
        <g id="Group_1304-2" data-name="Group 1304-2">
          <g id="Group_1303-2" data-name="Group 1303-2">
            <path id="Path_848-2" data-name="Path 848-2" class="cls-3" d="M8.493,12.984a2.5,2.5,0,1,0,2.5,2.5A2.5,2.5,0,0,0,8.493,12.984Zm0,4a1.5,1.5,0,1,0,1.5-1.5,1.5,1.5,0,0,0-1.5,1.5Z"/>
          </g>
        </g>
      </g>
    </g>
  </g>
</svg>
