<svg xmlns="http://www.w3.org/2000/svg" width="40" height="40" viewBox="0 0 40 40">
  <defs>
    <style>
      .cls-1 {
        fill: none;
        opacity: 0.58;
      }

      .cls-2 {
        fill: #3a4248;
      }

      .cls-3 {
        fill: #16abe3;
      }
    </style>
  </defs>
  <g id="menu-helpers" transform="translate(-919 -1788)">
    <rect id="Rectangle_11296" data-name="Rectangle 11296" class="cls-1" width="40" height="40" transform="translate(919 1788)"/>
    <g id="helpers" transform="translate(-236.559 -655.195)">
      <path id="Path_3369" data-name="Path 3369" class="cls-2" d="M112.894,93.2a7.576,7.576,0,0,0-5.007,13.252c1.2,1.2,1.088,3.755,1.061,3.782a.451.451,0,0,0,.136.354.5.5,0,0,0,.327.136h6.939a.451.451,0,0,0,.327-.136.517.517,0,0,0,.136-.354c0-.027-.136-2.585,1.061-3.782l.082-.082a7.553,7.553,0,0,0-5.061-13.17Zm4.354,12.544c-.027.027-.082.082-.082.109a6.354,6.354,0,0,0-1.279,3.918h-6.014a6.323,6.323,0,0,0-1.361-4.027,6.626,6.626,0,1,1,8.735,0Z" transform="translate(1062.948 2361.335)"/>
      <path id="Path_3370" data-name="Path 3370" class="cls-3" d="M209.792,121.6a.463.463,0,1,0,0,.925,4.953,4.953,0,0,1,4.952,4.952.463.463,0,1,0,.925,0A5.853,5.853,0,0,0,209.792,121.6Z" transform="translate(966.023 2334.867)"/>
      <path id="Path_3371" data-name="Path 3371" class="cls-2" d="M162.113,358.4h-6.041a1.143,1.143,0,1,0,0,2.286h6.014a1.174,1.174,0,0,0,1.17-1.143A1.15,1.15,0,0,0,162.113,358.4Zm0,1.333h-6.041a.215.215,0,0,1-.218-.218.2.2,0,0,1,.218-.218h6.014a.215.215,0,0,1,.218.218A.194.194,0,0,1,162.113,359.733Z" transform="translate(1016.722 2114.176)"/>
      <path id="Path_3372" data-name="Path 3372" class="cls-2" d="M173.517,398.8h-4.245a1.143,1.143,0,0,0,0,2.286h4.245a1.15,1.15,0,0,0,1.143-1.143A1.132,1.132,0,0,0,173.517,398.8Zm0,1.333h-4.245a.215.215,0,0,1-.218-.218.2.2,0,0,1,.218-.218h4.245a.218.218,0,1,1,0,.435Z" transform="translate(1004.42 2076.525)"/>
      <path id="Path_3373" data-name="Path 3373" class="cls-3" d="M209.792,4.082a.459.459,0,0,0,.463-.463V.463a.463.463,0,1,0-.925,0V3.619A.477.477,0,0,0,209.792,4.082Z" transform="translate(966.023 2448.195)"/>
      <path id="Path_3374" data-name="Path 3374" class="cls-3" d="M295.6,33.2a.439.439,0,0,0-.626.109l-1.741,2.612a.448.448,0,0,0,.109.653.439.439,0,0,0,.245.082.434.434,0,0,0,.381-.218l1.741-2.612A.422.422,0,0,0,295.6,33.2Z" transform="translate(887.92 2417.335)"/>
      <path id="Path_3375" data-name="Path 3375" class="cls-3" d="M105.208,34.494a.439.439,0,0,0,.245-.082.477.477,0,0,0,.136-.653L103.9,31.12a.472.472,0,1,0-.789.517l1.687,2.639A.451.451,0,0,0,105.208,34.494Z" transform="translate(1065.083 2419.388)"/>
      <path id="Path_3376" data-name="Path 3376" class="cls-3" d="M39.405,104.839l-2.748-1.5a.479.479,0,0,0-.626.19.434.434,0,0,0,.19.626l2.748,1.5a.641.641,0,0,0,.218.054.449.449,0,0,0,.408-.245A.479.479,0,0,0,39.405,104.839Z" transform="translate(1127.593 2351.928)"/>
      <path id="Path_3377" data-name="Path 3377" class="cls-3" d="M345.863,103.533a.479.479,0,0,0-.626-.19l-2.776,1.5a.479.479,0,0,0-.19.626.449.449,0,0,0,.408.245.513.513,0,0,0,.218-.054l2.775-1.5A.479.479,0,0,0,345.863,103.533Z" transform="translate(842.169 2351.928)"/>
    </g>
  </g>
</svg>
