<svg xmlns="http://www.w3.org/2000/svg" width="40" height="40" viewBox="0 0 40 40">
  <defs>
    <style>
      .cls-1, .cls-3 {
        fill: none;
      }

      .cls-2 {
        fill: #fff;
      }

      .cls-3 {
        stroke: #3a4248;
        stroke-linecap: round;
      }

      .cls-4, .cls-5 {
        stroke: none;
      }

      .cls-5 {
        fill: #16abe3;
      }
    </style>
  </defs>
  <g id="family_getting_started" data-name="family getting started" transform="translate(-1032 -1031)">
    <rect id="Rectangle_13652" data-name="Rectangle 13652" class="cls-1" width="40" height="40" transform="translate(1032 1031)"/>
    <g id="Group_20533" data-name="Group 20533" transform="translate(1042 1044)">
      <g id="open-book" transform="translate(0)">
        <g id="Group_5086" data-name="Group 5086" transform="translate(0 0)">
          <g id="Path_1934" data-name="Path 1934" class="cls-2" transform="translate(-32.552 -35.049)">
            <path class="cls-4" d="M 41.06523895263672 47.73027420043945 C 39.17526626586914 46.32944488525391 36.84491729736328 46.09318161010742 35.51375961303711 46.09000396728516 C 35.41411972045898 46.08975601196289 35.33300018310547 46.00949478149414 35.33300018310547 45.91109466552734 L 35.33300018310547 35.72810363769531 C 35.33300018310547 35.67890548706055 35.351318359375 35.63461303710938 35.38597106933594 35.60003662109375 C 35.41989898681641 35.56616592407227 35.4610481262207 35.54900360107422 35.5082893371582 35.54900360107422 C 36.98844146728516 35.55246353149414 39.67562866210938 35.88822555541992 41.04710006713867 38.09807586669922 C 41.05857086181641 38.11658477783203 41.06523895263672 38.14592361450195 41.06523895263672 38.17830657958984 L 41.06523895263672 47.73027420043945 Z"/>
            <path class="cls-5" d="M 35.83300018310547 36.05525588989258 L 35.83300018310547 45.59495162963867 C 37.06339645385742 45.63014602661133 38.89416885375977 45.86816787719727 40.56523895263672 46.81140899658203 L 40.56523895263672 38.27236557006836 C 39.39823150634766 36.49288558959961 37.22370529174805 36.10592269897461 35.83300018310547 36.05525588989258 M 35.5082893371582 35.04899597167969 C 35.5088005065918 35.04899597167969 35.50936889648438 35.04899597167969 35.50988006591797 35.04899597167969 C 37.09329986572266 35.05270385742188 39.97325897216797 35.41960525512695 41.47193145751953 37.83441543579102 C 41.53292083740234 37.93281555175781 41.56523895263672 38.05172348022461 41.56523895263672 38.17830657958984 L 41.56523895263672 48.83510589599609 C 39.7392692565918 46.92323303222656 37.09241104125977 46.59377288818359 35.51256942749023 46.59000396728516 C 35.13782119750977 46.58905410766602 34.83300018310547 46.28451538085938 34.83300018310547 45.91109466552734 L 34.83300018310547 35.72809600830078 C 34.83300018310547 35.54586410522461 34.90394973754883 35.37468338012695 35.03276062011719 35.24612426757812 C 35.1601676940918 35.11896514892578 35.32889938354492 35.04899597167969 35.5082893371582 35.04899597167969 Z"/>
          </g>
          <g id="Path_1935" data-name="Path 1935" class="cls-2" transform="translate(-146.684 -35.048)">
            <path class="cls-4" d="M 157.2509918212891 47.72927856445312 L 157.2509918212891 38.17737197875977 C 157.2509918212891 38.14491271972656 157.2576446533203 38.11557006835938 157.2692413330078 38.09686279296875 C 158.6405181884766 35.88738250732422 161.3277282714844 35.55152130126953 162.8074645996094 35.54800033569336 C 162.8544616699219 35.54800033569336 162.896728515625 35.56563186645508 162.9301300048828 35.59897994995117 C 162.9648284912109 35.63360977172852 162.983154296875 35.67790222167969 162.983154296875 35.72710037231445 L 162.983154296875 45.91016006469727 C 162.983154296875 46.00852203369141 162.9020538330078 46.08875274658203 162.8023681640625 46.0890007019043 C 161.4712829589844 46.09218597412109 159.1409454345703 46.32845687866211 157.2509918212891 47.72927856445312 Z"/>
            <path class="cls-5" d="M 157.7509918212891 46.8104133605957 C 159.4220581054688 45.8671760559082 161.2528381347656 45.62915420532227 162.483154296875 45.59394836425781 L 162.483154296875 36.05434417724609 C 161.0904388427734 36.10535049438477 158.9170989990234 36.49287796020508 157.7509918212891 38.27129364013672 L 157.7509918212891 46.8104133605957 M 156.7509918212891 48.83411026000977 L 156.7509918212891 38.17737197875977 C 156.7509918212891 38.0507926940918 156.7832489013672 37.93188095092773 156.84423828125 37.83347320556641 C 158.3429565429688 35.41866302490234 161.2229309082031 35.05177307128906 162.8062744140625 35.04800033569336 C 162.8067932128906 35.04800033569336 162.807373046875 35.04800033569336 162.8079223632812 35.04800033569336 C 162.9871215820312 35.04800033569336 163.156005859375 35.11796188354492 163.2833862304688 35.24512100219727 C 163.4122009277344 35.37368011474609 163.483154296875 35.54486083984375 163.483154296875 35.72710037231445 L 163.483154296875 45.91016006469727 C 163.483154296875 46.28351211547852 163.1783447265625 46.58805084228516 162.8036499023438 46.5890007019043 C 161.2238159179688 46.59278106689453 158.5769653320312 46.9222297668457 156.7509918212891 48.83411026000977 Z"/>
          </g>
          <path id="Path_1938" data-name="Path 1938" class="cls-3" d="M.982,3.564c-.705,0-1.064-.024-1.068.846s.023,10.233,0,10.646.689.869,1.351.606,4.777-.781,6.624-.148" transform="translate(0.086 -1.215)"/>
          <path id="Path_1939" data-name="Path 1939" class="cls-3" d="M6.822,3.564c.705,0,1.064-.024,1.068.846s-.023,10.233,0,10.646-.689.869-1.351.606-4.777-.781-6.625-.148" transform="translate(11.282 -1.215)"/>
        </g>
      </g>
    </g>
  </g>
</svg>
