<svg xmlns="http://www.w3.org/2000/svg" width="40" height="40" viewBox="0 0 40 40">
  <defs>
    <style>
      .cls-1, .cls-4 {
        fill: none;
      }

      .cls-1 {
        opacity: 0.58;
      }

      .cls-2 {
        fill: #3a4248;
      }

      .cls-3 {
        fill: #16abe3;
      }

      .cls-4 {
        stroke: #3a4248;
      }
    </style>
  </defs>
  <g id="menu-manage-fleet" transform="translate(-599 -1703)">
    <rect id="Rectangle_11287" data-name="Rectangle 11287" class="cls-1" width="40" height="40" transform="translate(599 1703)"/>
    <g id="menu-manage-fleet-2" data-name="menu-manage-fleet" transform="translate(619.387 1723.375)">
      <g id="Group_8820" data-name="Group 8820" transform="translate(-10.387 -10.375)">
        <path id="Path_897" data-name="Path 897" class="cls-2" d="M10.35,12.25a1.967,1.967,0,0,1-1.9-1.9,1.967,1.967,0,0,1,1.9-1.9,1.967,1.967,0,0,1,1.9,1.9,1.839,1.839,0,0,1-1.776,1.9Q10.412,12.252,10.35,12.25Zm-5.6,4.3a1.167,1.167,0,0,0-.6-.6l4-4,.6.6Zm-.8,1.3c-.2.1-.3.2-.5.2a.684.684,0,0,1-.7-.668q0-.016,0-.032a.764.764,0,0,1,.2-.5.764.764,0,0,1,.5-.2.684.684,0,0,1,.7.668v.032a.764.764,0,0,1-.2.5Zm.2-13.1a.9.9,0,0,0,.6-.6l4,4-.6.6Zm-.7-.6a.764.764,0,0,1-.5-.2.646.646,0,0,1-.2-.5.773.773,0,0,1,.7-.8.764.764,0,0,1,.5.2,1.421,1.421,0,0,1,.2.6.85.85,0,0,1-.7.7Zm12.5,0a.9.9,0,0,0,.6.6l-4,4-.6-.6Zm.6,11.8a.9.9,0,0,0-.6.6l-4-4,.6-.6Zm.3-13a.764.764,0,0,1,.5-.2c.4-.1.7.3.7.7a.764.764,0,0,1-.2.5.764.764,0,0,1-.5.2.684.684,0,0,1-.7-.668q0-.016,0-.032a.764.764,0,0,1,.2-.5Zm.5,13.7a.684.684,0,0,1,.7.668v.032a.684.684,0,0,1-.668.7H17.35a.684.684,0,0,1-.7-.668q0-.016,0-.032a.684.684,0,0,1,.668-.7Zm-1.5,1c0,.2.1.3.2.5l-1.9,1.9a.375.375,0,0,0,0,.6.5.5,0,0,0,.6,0l1.9-1.9a1.884,1.884,0,0,0,.8.2,1.473,1.473,0,0,0,1.5-1.445V17.45a2.353,2.353,0,0,0-.2-.8l1.9-1.9a.424.424,0,1,0-.6-.6l-2,1.8c-.1-.1-.3-.1-.5-.2l-4.6-4.6a2.2,2.2,0,0,0,.1-.8,1.949,1.949,0,0,0-.1-.8l4.6-4.6c.2,0,.3-.1.5-.2l1.9,1.9a.5.5,0,0,0,.6,0,.375.375,0,0,0,0-.6l-1.9-1.9a1.884,1.884,0,0,0,.2-.8,1.473,1.473,0,0,0-1.45-1.5h-.05a2.353,2.353,0,0,0-.8.2L14.65.15a.375.375,0,0,0-.6,0,.375.375,0,0,0,0,.6l1.9,1.9c-.1.1-.1.3-.2.5l-4.6,4.6a2.2,2.2,0,0,0-.8-.1,1.949,1.949,0,0,0-.8.1l-4.6-4.6c0-.2-.1-.3-.2-.5L6.65.75a.375.375,0,0,0,0-.6.629.629,0,0,0-.6,0l-1.9,1.9a1.854,1.854,0,0,0-.7-.2A1.473,1.473,0,0,0,1.95,3.3q0,.027,0,.055a2.353,2.353,0,0,0,.2.8l-2,1.9a.629.629,0,0,0,0,.6.367.367,0,0,0,.3.1.367.367,0,0,0,.3-.1l1.9-1.9c.1.1.3.1.5.2l4.6,4.6a2.2,2.2,0,0,0-.1.8,1.949,1.949,0,0,0,.1.8l-4.6,4.6c-.2,0-.3.1-.5.2l-1.9-1.9a.375.375,0,0,0-.6,0,.375.375,0,0,0,0,.6l1.9,1.9a1.884,1.884,0,0,0-.2.8A1.473,1.473,0,0,0,3.3,18.85h.05a2.353,2.353,0,0,0,.8-.2l1.9,1.9a.367.367,0,0,0,.3.1.367.367,0,0,0,.3-.1.375.375,0,0,0,0-.6l-1.9-1.9c.1-.1.1-.3.2-.5l4.6-4.6a2.2,2.2,0,0,0,.8.1,1.949,1.949,0,0,0,.8-.1Z" transform="translate(0 0)"/>
        <g id="Ellipse_234" data-name="Ellipse 234" transform="translate(0 0)">
          <circle id="Ellipse_975" data-name="Ellipse 975" class="cls-3" cx="2.5" cy="2.5" r="2.5" transform="translate(7.8 7.8)"/>
          <circle id="Ellipse_976" data-name="Ellipse 976" class="cls-4" cx="2" cy="2" r="2" transform="translate(8.3 8.3)"/>
        </g>
      </g>
    </g>
  </g>
</svg>
