<?xml version="1.0" encoding="utf-8"?>
<!-- Generator: Adobe Illustrator 26.0.1, SVG Export Plug-In . SVG Version: 6.00 Build 0)  -->
<svg version="1.1" id="レイヤー_1" xmlns="http://www.w3.org/2000/svg" xmlns:xlink="http://www.w3.org/1999/xlink" x="0px"
	 y="0px" viewBox="0 0 60 60" style="enable-background:new 0 0 60 60;" xml:space="preserve">
<style type="text/css">
	.st0{fill:none;}
	.st1{fill:#C4C4C4;}
</style>
<rect class="st0" width="60" height="60"/>
<path class="st1" d="M10,15.2h40c0.6,0,1,0.4,1,1v2.5c0,0.6-0.4,1-1,1H10c-0.6,0-1-0.4-1-1v-2.5C9,15.7,9.4,15.2,10,15.2z"/>
<path class="st1" d="M10,27.8h40c0.6,0,1,0.4,1,1v2.5c0,0.6-0.4,1-1,1H10c-0.6,0-1-0.4-1-1v-2.5C9,28.2,9.4,27.8,10,27.8z"/>
<path class="st1" d="M10,40.2h40c0.6,0,1,0.4,1,1v2.5c0,0.6-0.4,1-1,1H10c-0.6,0-1-0.4-1-1v-2.5C9,40.7,9.4,40.2,10,40.2z"/>
</svg>
