<svg viewBox="0 0 18 14" fill="none" xmlns="http://www.w3.org/2000/svg">
<path d="M15.667 0.333496H2.33366C1.41449 0.333496 0.666992 1.081 0.666992 2.00016V12.0002C0.666992 12.9193 1.41449 13.6668 2.33366 13.6668H15.667C16.5862 13.6668 17.3337 12.9193 17.3337 12.0002V2.00016C17.3337 1.081 16.5862 0.333496 15.667 0.333496ZM15.667 2.00016V2.426L9.00033 7.61183L2.33366 2.42683V2.00016H15.667ZM2.33366 12.0002V4.53683L8.48866 9.32433C8.63458 9.43895 8.81477 9.50125 9.00033 9.50125C9.18588 9.50125 9.36607 9.43895 9.51199 9.32433L15.667 4.53683L15.6687 12.0002H2.33366Z" fill="currentColor"/>
</svg>
