<svg id="レイヤー_1" data-name="レイヤー 1" xmlns="http://www.w3.org/2000/svg" viewBox="0 0 60 60"><defs><style>.cls-1{fill:none;}.cls-2{fill:#393a3a;}</style></defs><rect class="cls-1" width="60" height="60"/><path class="cls-2" d="M23.25,27.5h-13A4.26,4.26,0,0,1,6,23.25v-13A4.26,4.26,0,0,1,10.25,6h13a4.26,4.26,0,0,1,4.25,4.25v13A4.26,4.26,0,0,1,23.25,27.5ZM10.5,23H23V10.5H10.5Z"/><path class="cls-2" d="M49.75,27.5h-13a4.26,4.26,0,0,1-4.25-4.25v-13A4.26,4.26,0,0,1,36.75,6h13A4.26,4.26,0,0,1,54,10.25v13A4.26,4.26,0,0,1,49.75,27.5ZM37,23H49.5V10.5H37Z"/><path class="cls-2" d="M23.25,54.07h-13A4.26,4.26,0,0,1,6,49.82v-13a4.25,4.25,0,0,1,4.25-4.25h13a4.25,4.25,0,0,1,4.25,4.25v13A4.26,4.26,0,0,1,23.25,54.07ZM10.5,49.57H23V37.07H10.5Z"/><path class="cls-2" d="M49.75,54.07h-13a4.26,4.26,0,0,1-4.25-4.25v-13a4.25,4.25,0,0,1,4.25-4.25h13A4.25,4.25,0,0,1,54,36.82v13A4.26,4.26,0,0,1,49.75,54.07ZM37,49.57H49.5V37.07H37Z"/></svg>