<svg xmlns="http://www.w3.org/2000/svg" width="22.93" height="9.968" viewBox="0 0 22.93 9.968">
    <defs>
        <style>
            .cls-1{fill:#fff}.cls-2,.cls-3{stroke:none}.cls-3{fill:rgba(58,66,72,.5)}
        </style>
    </defs>
    <g id="Path_3487" class="cls-1" data-name="Path 3487">
        <path d="M.444 0h5.364v-1.488H4.272A11.782 11.782 0 0 0 3-1.392c1.236-1.3 2.436-2.664 2.436-3.948a2.338 2.338 0 0 0-2.52-2.424A3.227 3.227 0 0 0 .36-6.552l.96.948a1.945 1.945 0 0 1 1.356-.78 1.024 1.024 0 0 1 1.08 1.152c0 1.08-1.368 2.388-3.312 4.224zM9.5.144c1.632 0 2.724-1.392 2.724-3.984S11.136-7.764 9.5-7.764 6.78-6.432 6.78-3.84 7.872.144 9.5.144zm0-1.368c-.588 0-1.056-.54-1.056-2.616S8.916-6.4 9.5-6.4s1.056.468 1.056 2.556-.456 2.62-1.056 2.62zM13.6 0h1.58v-2.868c0-.768-.144-1.908-.228-2.664H15l.624 1.86L16.74-.684h.972l1.116-2.988.636-1.86h.048c-.084.756-.228 1.9-.228 2.664V0h1.608v-7.824h-1.92l-1.236 3.48c-.156.456-.288.96-.444 1.44h-.048c-.156-.48-.3-.984-.456-1.44l-1.26-3.48H13.6z" class="cls-2" transform="translate(1.037 8.824)"/>
        <path d="M9.504.144c1.632 0 2.724-1.392 2.724-3.984s-1.092-3.924-2.724-3.924c-1.632 0-2.724 1.332-2.724 3.924C6.78-1.248 7.872.144 9.504.144m0-6.54c.6 0 1.056.468 1.056 2.556 0 2.076-.456 2.616-1.056 2.616-.588 0-1.056-.54-1.056-2.616 0-2.088.468-2.556 1.056-2.556M20.892 0v-7.824h-1.92l-1.236 3.48c-.156.456-.288.96-.444 1.44h-.048c-.156-.48-.3-.984-.456-1.44l-1.26-3.48h-1.932V0h1.584v-2.868c0-.768-.144-1.908-.228-2.664H15l.624 1.86L16.74-.684h.972l1.116-2.988.636-1.86h.048c-.084.756-.228 1.896-.228 2.664V0h1.608M5.808 0v-1.488H4.272c-.36 0-.888.048-1.272.096C4.236-2.688 5.436-4.056 5.436-5.34c0-1.464-1.02-2.424-2.52-2.424-1.092 0-1.8.408-2.556 1.212l.96.948c.384-.408.804-.78 1.356-.78.66 0 1.08.408 1.08 1.152 0 1.08-1.368 2.388-3.312 4.224V0h5.364m3.696 1.144A3.33 3.33 0 0 1 6.808-.171V1H-.556v-2.439l.313-.296C.653-2.581 1.5-3.381 2.066-4.049c.623-.737.69-1.073.69-1.183a.613.613 0 0 0-.015-.148.434.434 0 0 0-.065-.004c-.17 0-.44.266-.628.465l-.702.746-.729-.72-.96-.947-.694-.686.668-.711c1.007-1.07 1.99-1.527 3.285-1.527 1 0 1.87.325 2.514.94.374.359.652.804.82 1.306.68-1.615 1.997-2.246 3.254-2.246 1.163 0 2.378.54 3.092 1.901V-8.824h3.633l.24.66.789 2.18.772-2.175.236-.665h3.626V1h-3.608V.316H16.18V1h-3.584V-.795a4.179 4.179 0 0 1-.303.498 3.338 3.338 0 0 1-2.789 1.441zM5.278-2.488h.602a8.023 8.023 0 0 1-.083-.778 8.382 8.382 0 0 1-.52.778zm4.227-2.384a7.935 7.935 0 0 0-.057 1.032c0 .451.024.788.057 1.036.032-.248.055-.585.055-1.036 0-.455-.024-.789-.055-1.032z" class="cls-3" transform="translate(1.037 8.824)"/>
    </g>
</svg>
