<svg
  viewBox="0 0 15 15"
  fill="none"
  xmlns="http://www.w3.org/2000/svg"
>
  <defs>
    <clipPath id="clip0_1247_1611">
      <rect width="15" height="15" fill="white"/>
    </clipPath>
  </defs>
  <g clip-path="url(#clip0_1247_1611)">
  <path
    d="M11.875 2.5H3.125C2.43464 2.5 1.875 3.05964 1.875 3.75V11.25C1.875 11.9404 2.43464 12.5 3.125 12.5H11.875C12.5654 12.5 13.125 11.9404 13.125 11.25V3.75C13.125 3.05964 12.5654 2.5 11.875 2.5Z"
    fill="currentColor"/>
  <path
    d="M10.3102 7.28252L6.41016 5.03252C6.37226 5.01064 6.32929 4.99909 6.28553 4.99902C6.24177 4.99896 6.19877 5.01038 6.16081 5.03214C6.12285 5.05391 6.09126 5.08525 6.06921 5.12305C6.04716 5.16084 6.03542 5.20376 6.03516 5.24752V9.75002C6.03542 9.79378 6.04716 9.8367 6.06921 9.87449C6.09126 9.91229 6.12285 9.94363 6.16081 9.9654C6.19877 9.98716 6.24177 9.99858 6.28553 9.99852C6.32929 9.99845 6.37226 9.9869 6.41016 9.96502L10.3102 7.71502C10.348 7.69304 10.3795 7.6615 10.4013 7.62355C10.4232 7.5856 10.4347 7.54257 10.4347 7.49877C10.4347 7.45497 10.4232 7.41194 10.4013 7.37399C10.3795 7.33604 10.348 7.3045 10.3102 7.28252Z"
    fill="white"/>
  </g>
</svg>
