<svg
  viewBox="0 0 20 20"
  fill="none"
  xmlns="http://www.w3.org/2000/svg"
>
  <defs>
    <clipPath id="clip0_1233_1209">
      <rect width="20" height="20" fill="white"/>
    </clipPath>
  </defs>
  <g clip-path="url(#clip0_1233_1209)">
    <path
      d="M14.1663 9.24967H10.7497V5.83301H9.24967V9.24967H5.83301V10.7497H9.24967V14.1663H10.7497V10.7497H14.1663V9.24967Z"
      fill="currentColor"/>
    <path
      d="M10 18.25C8.36831 18.25 6.77326 17.7661 5.41655 16.8596C4.05984 15.9531 3.00242 14.6646 2.378 13.1571C1.75357 11.6497 1.5902 9.99085 1.90853 8.39051C2.22685 6.79017 3.01259 5.32016 4.16637 4.16637C5.32016 3.01259 6.79017 2.22685 8.39051 1.90853C9.99085 1.5902 11.6497 1.75357 13.1571 2.378C14.6646 3.00242 15.9531 4.05984 16.8596 5.41655C17.7661 6.77326 18.25 8.36831 18.25 10C18.2482 12.1875 17.3785 14.2849 15.8317 15.8317C14.2849 17.3785 12.1875 18.2482 10 18.25ZM10 3.25C8.66498 3.25 7.35994 3.64588 6.2499 4.38758C5.13987 5.12928 4.27471 6.18349 3.76382 7.41689C3.25293 8.65029 3.11925 10.0075 3.3797 11.3169C3.64015 12.6262 4.28303 13.829 5.22703 14.773C6.17104 15.717 7.37377 16.3599 8.68314 16.6203C9.99252 16.8808 11.3497 16.7471 12.5831 16.2362C13.8165 15.7253 14.8707 14.8601 15.6124 13.7501C16.3541 12.6401 16.75 11.335 16.75 10C16.7482 8.21033 16.0365 6.49447 14.771 5.22898C13.5055 3.96349 11.7897 3.25177 10 3.25Z"
      fill="currentColor"/>
  </g>
</svg>
