<svg id="レイヤー_1" data-name="レイヤー 1" xmlns="http://www.w3.org/2000/svg" viewBox="0 0 60 60"><defs><style>.cls-1{fill:none;}.cls-2{fill:#249fd3;}.cls-3{fill:#fff;}</style></defs><rect class="cls-1" y="0.13" width="60" height="60"/><circle class="cls-2" cx="30" cy="30" r="22.5"/><path class="cls-3" d="M41.5,27.75H32.25V18.5a1,1,0,0,0-1-1h-2.5a1,1,0,0,0-1,1v9.25H18.5a1,1,0,0,0-1,1v2.5a1,1,0,0,0,1,1h9.25V41.5a1,1,0,0,0,1,1h2.5a1,1,0,0,0,1-1V32.25H41.5a1,1,0,0,0,1-1v-2.5A1,1,0,0,0,41.5,27.75Z"/></svg>