<svg xmlns="http://www.w3.org/2000/svg" width="40" height="40" viewBox="0 0 40 40">
    <defs>
        <style>
            .cls-1{fill:none}.cls-2{fill:#fff}
        </style>
    </defs>
    <g id="icon_point" data-name="icon point" transform="translate(-1121 -1664)">
        <path id="Rectangle_13603" d="M0 0h40v40H0z" class="cls-1" data-name="Rectangle 13603" transform="translate(1121 1664)"/>
        <path id="Path_7238" d="M7 2a5.006 5.006 0 0 0-5 5c0 .436.231 2.241 3.2 7.187a78.695 78.695 0 0 0 1.8 2.85 83.493 83.493 0 0 0 1.8-2.85C11.769 9.241 12 7.436 12 7a5.006 5.006 0 0 0-5-5m0-2a7 7 0 0 1 7 7c0 3.866-7 13.58-7 13.58S0 10.866 0 7a7 7 0 0 1 7-7z" class="cls-2" data-name="Path 7238" transform="translate(1134 1674)"/>
    </g>
</svg>
