<svg xmlns="http://www.w3.org/2000/svg" width="40" height="40"><g data-name="product viewer"><g data-name="Group 6594" fill="#fff"><path data-name="Path 874" d="M26.215 17.988a11.451 11.451 0 0 1-1.206 2.624c-.228.383-3.627 6.171-5.081 8.649l-5.414-9.528-.035-.064a7.368 7.368 0 0 1-.627-1.392 7.7 7.7 0 0 1-.38-2.344 6.47 6.47 0 0 1 6.462-6.461 6.654 6.654 0 0 1 6.564 5.871 7.548 7.548 0 0 1-.283 2.645zM19.934 8a7.946 7.946 0 0 0-7.936 7.933 9.115 9.115 0 0 0 .45 2.782 8.782 8.782 0 0 0 .75 1.676l.034.058s2.017 3.55 6.046 10.64a.737.737 0 0 0 1.275.01c.055-.093 5.437-9.257 5.707-9.708a12.873 12.873 0 0 0 1.382-3.036 9 9 0 0 0 .326-3.163A8.036 8.036 0 0 0 19.934 8z" stroke="#fff" stroke-width=".35" fill-rule="evenodd"/><g data-name="Path 7414"><path d="M19.7782 19.3275c-1.4177 0-2.5712-1.1535-2.5712-2.5713 0-1.4177 1.1535-2.5712 2.5712-2.5712 1.4178 0 2.5713 1.1535 2.5713 2.5712 0 1.4178-1.1535 2.5713-2.5713 2.5713z"/><path d="M19.7782 14.685c-1.142 0-2.0712.9292-2.0712 2.0712 0 1.1421.9292 2.0713 2.0712 2.0713 1.1421 0 2.0713-.9292 2.0713-2.0713 0-1.142-.9292-2.0712-2.0713-2.0712m0-1c1.6962 0 3.0713 1.375 3.0713 3.0712 0 1.6962-1.375 3.0713-3.0713 3.0713-1.6962 0-3.0712-1.375-3.0712-3.0713 0-1.6962 1.375-3.0712 3.0712-3.0712z" fill="#16abe3"/></g></g></g></svg>