<svg xmlns="http://www.w3.org/2000/svg" width="40" height="40"><g data-name="product uploader coming soon"><g data-name="Group 8375"><path data-name="Path 897" d="M20.35 22.25a1.967 1.967 0 0 1-1.9-1.9 1.967 1.967 0 0 1 1.9-1.9 1.967 1.967 0 0 1 1.9 1.9 1.839 1.839 0 0 1-1.9 1.9zm-5.6 4.3a1.167 1.167 0 0 0-.6-.6l4-4 .6.6zm-.8 1.3c-.2.1-.3.2-.5.2a.684.684 0 0 1-.7-.7.764.764 0 0 1 .2-.5.764.764 0 0 1 .5-.2.684.684 0 0 1 .7.7.764.764 0 0 1-.2.5zm.2-13.1a.9.9 0 0 0 .6-.6l4 4-.6.6zm-.7-.6a.764.764 0 0 1-.5-.2.646.646 0 0 1-.2-.5.773.773 0 0 1 .7-.8.764.764 0 0 1 .5.2 1.421 1.421 0 0 1 .2.6.85.85 0 0 1-.7.7zm12.5 0a.9.9 0 0 0 .6.6l-4 4-.6-.6zm.6 11.8a.9.9 0 0 0-.6.6l-4-4 .6-.6zm.3-13a.764.764 0 0 1 .5-.2c.4-.1.7.3.7.7a.764.764 0 0 1-.2.5.764.764 0 0 1-.5.2.684.684 0 0 1-.7-.7.764.764 0 0 1 .2-.5zm.5 13.7a.684.684 0 0 1 .7.7.684.684 0 0 1-.7.7.684.684 0 0 1-.7-.7.684.684 0 0 1 .7-.7zm-1.5 1c0 .2.1.3.2.5l-1.9 1.9a.375.375 0 0 0 0 .6.5.5 0 0 0 .6 0l1.9-1.9a1.884 1.884 0 0 0 .8.2 1.473 1.473 0 0 0 1.5-1.5 2.353 2.353 0 0 0-.2-.8l1.9-1.9a.4243.4243 0 0 0-.6-.6l-2 1.8c-.1-.1-.3-.1-.5-.2l-4.6-4.6a2.2 2.2 0 0 0 .1-.8 1.949 1.949 0 0 0-.1-.8l4.6-4.6c.2 0 .3-.1.5-.2l1.9 1.9a.5.5 0 0 0 .6 0 .375.375 0 0 0 0-.6l-1.9-1.9a1.884 1.884 0 0 0 .2-.8 1.473 1.473 0 0 0-1.5-1.5 2.353 2.353 0 0 0-.8.2l-1.9-1.9a.375.375 0 0 0-.6 0 .375.375 0 0 0 0 .6l1.9 1.9c-.1.1-.1.3-.2.5l-4.6 4.6a2.2 2.2 0 0 0-.8-.1 1.949 1.949 0 0 0-.8.1l-4.6-4.6c0-.2-.1-.3-.2-.5l1.9-1.9a.375.375 0 0 0 0-.6.629.629 0 0 0-.6 0l-1.9 1.9a1.854 1.854 0 0 0-.7-.2 1.473 1.473 0 0 0-1.5 1.5 2.353 2.353 0 0 0 .2.8l-2 1.9a.629.629 0 0 0 0 .6.367.367 0 0 0 .3.1.367.367 0 0 0 .3-.1l1.9-1.9c.1.1.3.1.5.2l4.6 4.6a2.2 2.2 0 0 0-.1.8 1.949 1.949 0 0 0 .1.8l-4.6 4.6c-.2 0-.3.1-.5.2l-1.9-1.9a.375.375 0 0 0-.6 0 .375.375 0 0 0 0 .6l1.9 1.9a1.884 1.884 0 0 0-.2.8 1.473 1.473 0 0 0 1.5 1.5 2.353 2.353 0 0 0 .8-.2l1.9 1.9a.367.367 0 0 0 .3.1.367.367 0 0 0 .3-.1.375.375 0 0 0 0-.6l-1.9-1.9c.1-.1.1-.3.2-.5l4.6-4.6a2.2 2.2 0 0 0 .8.1 1.949 1.949 0 0 0 .8-.1z" fill="#8e96a0"/><g data-name="Ellipse 234" transform="translate(17.8 17.8)" fill="none" stroke="#8e96a0"><circle cx="2.5" cy="2.5" r="2.5" stroke="none"/><circle cx="2.5" cy="2.5" r="2"/></g></g></g></svg>