<svg
  xmlns="http://www.w3.org/2000/svg"
  viewBox="0 0 25 27"
>
  <g>
    <style type="text/css">
      path {
        fill: currentColor;
      }
    </style>
    <path d="M5.44627 6.49902H3.66263C3.50701 6.49902 3.38086 6.63647 3.38086 6.80602V8.74934C3.38086 8.9189 3.50701 9.05635 3.66263 9.05635H5.44627C5.60189 9.05635 5.72804 8.9189 5.72804 8.74934V6.80602C5.72804 6.63647 5.60189 6.49902 5.44627 6.49902Z"/>
    <path d="M16.2475 6.49902H7.41947C7.26385 6.49902 7.1377 6.63647 7.1377 6.80602V8.74934C7.1377 8.9189 7.26385 9.05635 7.41947 9.05635H16.2475C16.4031 9.05635 16.5292 8.9189 16.5292 8.74934V6.80602C16.5292 6.63647 16.4031 6.49902 16.2475 6.49902Z"/>
    <path d="M5.44627 11.6138H3.66263C3.50701 11.6138 3.38086 11.7512 3.38086 11.9208V13.8641C3.38086 14.0336 3.50701 14.1711 3.66263 14.1711H5.44627C5.60189 14.1711 5.72804 14.0336 5.72804 13.8641V11.9208C5.72804 11.7512 5.60189 11.6138 5.44627 11.6138Z"/>
    <path d="M5.44627 16.7314H3.66263C3.50701 16.7314 3.38086 16.8689 3.38086 17.0384V18.9818C3.38086 19.1513 3.50701 19.2888 3.66263 19.2888H5.44627C5.60189 19.2888 5.72804 19.1513 5.72804 18.9818V17.0384C5.72804 16.8689 5.60189 16.7314 5.44627 16.7314Z"/>
    <path d="M16.3348 11.6322C16.3066 11.623 16.2785 11.6138 16.2503 11.6138H7.42229C7.26731 11.6138 7.14051 11.7519 7.14051 11.9208V13.8641C7.14051 14.0329 7.26731 14.1711 7.42229 14.1711H14.9907L16.3376 11.6322H16.3348ZM13.6326 16.7315H7.41947C7.26449 16.7315 7.1377 16.8696 7.1377 17.0385V18.9818C7.1377 19.1507 7.26449 19.2888 7.41947 19.2888H12.2773L13.6326 16.7315Z"/>
    <path d="M11.2933 21.8491H1.73834V3.93859H18.1742V8.15987L19.817 5.05915V1.63608C19.817 0.788758 19.1858 0.101074 18.4081 0.101074H1.50165C0.723948 0.101074 0.0927734 0.788758 0.0927734 1.63608V24.1516C0.0927734 24.9989 0.723948 25.6866 1.50165 25.6866H11.0932L11.2961 21.8491H11.2933ZM17.2387 24.2529C17.1289 24.4586 16.9795 24.6336 16.7992 24.7625L15.5256 25.6835H18.4109C19.1886 25.6835 19.8198 24.9958 19.8198 24.1485V19.3838L17.2387 24.2529Z"/>
    <path d="M24.5118 5.21754L23.0379 4.2904C22.7683 4.12085 22.4236 4.22147 22.268 4.51514L13.402 21.2464C13.2464 21.5401 13.3387 21.9156 13.6083 22.0852L15.0822 23.0123C15.3517 23.1819 15.6964 23.0812 15.852 22.7876L24.718 6.05629C24.8736 5.76262 24.7813 5.3871 24.5118 5.21754Z"/>
    <path d="M12.869 25.8711L14.8808 24.6063C14.9238 24.5795 14.9595 24.5409 14.9844 24.4943C15.0093 24.4476 15.0223 24.3947 15.0223 24.3407C15.0223 24.2868 15.0093 24.2338 14.9844 24.1872C14.9595 24.1406 14.9238 24.1019 14.8808 24.0752L12.869 22.8103C12.6802 22.6937 12.4463 22.841 12.4463 23.0774V25.6102C12.4463 25.8466 12.6802 25.9939 12.869 25.8773V25.8711Z"/>
  </g>
</svg>