<svg xmlns="http://www.w3.org/2000/svg" width="40" height="40" viewBox="0 0 40 40">
    <defs>
        <style>
            .cls-1{fill:none}.cls-2{fill:#fff}.cls-3,.cls-4{stroke:none}.cls-4{fill:rgba(58,66,72,.5)}
        </style>
    </defs>
    <g id="ruler" transform="translate(-1223 -1431)">
        <path id="Rectangle_7329" d="M0 0h40v40H0z" class="cls-1" data-name="Rectangle 7329" transform="translate(1223 1431)"/>
        <g id="Union_61" class="cls-2" data-name="Union 61">
            <path d="M18059 12485a2 2 0 0 1-2-2v-12a2 2 0 0 1 2-2h19a2 2 0 0 1 2 2v12a2 2 0 0 1-2 2zm0-13v10a1 1 0 0 0 1 1h17a1 1 0 0 0 1-1v-10a1 1 0 0 0-1-1h-1.717v5.785h-2V12471h-2v3.789h-2V12471h-2v3.789h-2V12471h-2v5.785h-2V12471H18060a1 1 0 0 0-1 1z" class="cls-3" transform="rotate(-30 -10919.665 38360.733)"/>
            <path d="M18078.002 12484.999a2 2 0 0 0 2-1.996V12471a2.004 2.004 0 0 0-2-2.001h-18.998a2.004 2.004 0 0 0-2.002 2.001v12.002a2 2 0 0 0 2.002 1.996h18.998m-18-13.998h1.287v5.785h2.002v-5.785h1.996v3.789h2.002v-3.789h2v3.789h2.002v-3.789h1.996v5.785h2v-5.785h1.717c.549 0 .998.45.998.998V12482c0 .554-.45 1.003-.998 1.003h-17.002a.998.998 0 0 1-.998-1.003v-10.001c0-.549.443-.998.998-.998m18 14.998h-18.998a3.002 3.002 0 0 1-3.002-2.996V12471a3.005 3.005 0 0 1 3.002-3.001h18.998c1.654 0 3 1.347 3 3.001v12.002a3.001 3.001 0 0 1-3 2.996zm-18-13.998h-.002l.004 9.999 17 .003-.002-10.004-.715.001v5.786h-4v-1.996H18064.291v1.996h-4.002v-5.785h-.287z" class="cls-4" transform="rotate(-30 -10919.665 38360.733)"/>
        </g>
    </g>
</svg>
