<?xml version="1.0" encoding="utf-8"?>
<!-- Generator: Adobe Illustrator 26.0.1, SVG Export Plug-In . SVG Version: 6.00 Build 0)  -->
<svg version="1.1" id="レイヤー_1" xmlns="http://www.w3.org/2000/svg" xmlns:xlink="http://www.w3.org/1999/xlink" x="0px"
	 y="0px" viewBox="0 0 70 70" style="enable-background:new 0 0 70 70;" xml:space="preserve">
<style type="text/css">
	.st0{fill:#FFFFFF;}
	.st1{fill:none;}
	.st2{fill:#393A3A;}
	.st3{fill:none;stroke:#FFFFFF;stroke-width:2;stroke-miterlimit:10;}
	.st4{fill:#373A3A;}
</style>
<rect class="st0" width="70" height="70"/>
<g>
	<rect x="16" y="16" class="st1" width="38" height="38"/>
	<path class="st2" d="M46,40.7L46,40.7c-1.7,0-3.3,0.7-4.4,1.9l-11.9-6.2c0.3-0.9,0.3-1.9,0-2.7l12-6.2c2.2,2.4,5.9,2.6,8.4,0.4
		s2.7-5.9,0.4-8.4c-2.2-2.4-5.9-2.6-8.4-0.4c-1.7,1.4-2.4,3.7-1.9,5.8l-12,6.2c-2.1-2.4-5.8-2.6-8.3-0.4s-2.6,5.8-0.4,8.3
		c2.1,2.4,5.8,2.7,8.3,0.4c0.2-0.2,0.3-0.3,0.4-0.5l12.1,6.2c-0.8,3.1,1.2,6.3,4.3,7.1c3.1,0.8,6.3-1.2,7.1-4.3s-1.2-6.3-4.3-7.1
		C46.9,40.7,46.5,40.7,46,40.7L46,40.7z"/>
	<path class="st3" d="M32.2,43.9h-1.1v-1.9c0-1.9-1.6-3.5-3.5-3.5S24,39.9,24,41.9l0,0v1.9h-1.1c-0.8,0-1.4,0.6-1.4,1.4l0,0l0,0V51
		c0,0.8,0.6,1.4,1.4,1.4h9.2c0.8,0,1.4-0.6,1.4-1.4l0,0v-5.7C33.6,44.5,33,43.9,32.2,43.9z M25.5,41.9c-0.1-1.2,0.8-2.2,2-2.2
		c1.2-0.1,2,0.8,2.2,1.9c0,0.1,0,0.3,0,0.3v1.9h-4.2V41.9z M23,51v-5.7h9.2V51H23z"/>
	<path class="st4" d="M32.2,43.9h-1.1v-1.9c0-1.9-1.6-3.5-3.5-3.5S24,39.9,24,41.9l0,0v1.9h-1.1c-0.8,0-1.4,0.6-1.4,1.4l0,0l0,0V51
		c0,0.8,0.6,1.4,1.4,1.4h9.2c0.8,0,1.4-0.6,1.4-1.4l0,0v-5.7C33.6,44.5,33,43.9,32.2,43.9z M25.5,41.9c-0.1-1.2,0.8-2.2,2-2.2
		c1.2-0.1,2,0.8,2.2,1.9c0,0.1,0,0.3,0,0.3v1.9h-4.2V41.9z M23,51v-5.7h9.2V51H23z"/>
</g>
</svg>
