<?xml version="1.0" encoding="utf-8"?>
<!-- Generator: Adobe Illustrator 26.0.1, SVG Export Plug-In . SVG Version: 6.00 Build 0)  -->
<svg version="1.1" id="レイヤー_1" xmlns="http://www.w3.org/2000/svg" xmlns:xlink="http://www.w3.org/1999/xlink" x="0px"
	 y="0px" viewBox="0 0 70 70" style="enable-background:new 0 0 70 70;" xml:space="preserve">
<style type="text/css">
	.st0{fill:#F5F5F4;}
	.st1{fill:none;}
	.st2{fill:#393A3A;}
	.st3{fill:none;stroke:#FFFFFF;stroke-width:2;stroke-miterlimit:10;}
</style>
<rect class="st0" width="70" height="70"/>
<g>
	<rect x="16" y="16" class="st1" width="38" height="38"/>
	<path class="st2" d="M46,40.7L46,40.7c-1.7,0-3.3,0.7-4.4,1.9l-11.9-6.2c0.3-0.9,0.3-1.9,0-2.7l12-6.2c2.2,2.4,5.9,2.6,8.4,0.4
		s2.7-5.9,0.4-8.4c-2.2-2.4-5.9-2.6-8.4-0.4c-1.7,1.4-2.4,3.7-1.9,5.8l-12,6.2c-2.1-2.4-5.8-2.6-8.3-0.4s-2.6,5.8-0.4,8.3
		c2.1,2.4,5.8,2.7,8.3,0.4c0.2-0.2,0.3-0.3,0.4-0.5l12.1,6.2c-0.8,3.1,1.2,6.3,4.3,7.1c3.1,0.8,6.3-1.2,7.1-4.3s-1.2-6.3-4.3-7.1
		C46.9,40.7,46.5,40.7,46,40.7L46,40.7z"/>
	<path class="st3" d="M27.8,38.9c-3.6,0-6.7,3-6.7,6.7c0,3.7,3,6.7,6.7,6.7s6.7-3,6.7-6.7l0,0C34.6,41.8,31.6,38.9,27.8,38.9z
		 M26.8,46.7c-0.2-0.8-0.2-1.7,0-2.4h2.3c0.2,0.8,0.2,1.7,0,2.4H26.8z M28.7,48.3c-0.3,0.6-0.4,1.2-0.8,1.8
		c-0.3-0.5-0.5-1.1-0.8-1.8H28.7z M22.7,45.6c0-0.4,0.1-0.8,0.2-1.2h2.4c-0.1,0.8-0.1,1.7,0,2.4h-2.4C22.8,46.4,22.8,46,22.7,45.6
		L22.7,45.6z M27.1,42.9c0.3-0.6,0.4-1.2,0.8-1.8c0.3,0.5,0.5,1.1,0.8,1.8H27.1z M30.6,44.4H33c0.3,0.8,0.3,1.7,0,2.4h-2.4
		C30.7,46,30.7,45.1,30.6,44.4L30.6,44.4z M32.3,42.9h-2c-0.3-0.8-0.5-1.5-0.9-2.3C30.5,40.9,31.6,41.8,32.3,42.9L32.3,42.9z
		 M26.5,40.6c-0.4,0.8-0.7,1.5-0.9,2.3h-2C24.1,41.8,25.2,40.9,26.5,40.6L26.5,40.6z M23.5,48.3h2c0.3,0.8,0.5,1.5,0.9,2.3
		C25.2,50.1,24.2,49.3,23.5,48.3z M29.3,50.5c0.4-0.8,0.7-1.5,0.9-2.3h2C31.6,49.3,30.5,50.1,29.3,50.5L29.3,50.5z"/>
	<path class="st2" d="M27.8,38.9c-3.6,0-6.7,3-6.7,6.7c0,3.7,3,6.7,6.7,6.7s6.7-3,6.7-6.7l0,0C34.6,41.8,31.6,38.9,27.8,38.9z
		 M26.8,46.7c-0.2-0.8-0.2-1.7,0-2.4h2.3c0.2,0.8,0.2,1.7,0,2.4H26.8z M28.7,48.3c-0.3,0.6-0.4,1.2-0.8,1.8
		c-0.3-0.5-0.5-1.1-0.8-1.8H28.7z M22.7,45.6c0-0.4,0.1-0.8,0.2-1.2h2.4c-0.1,0.8-0.1,1.7,0,2.4h-2.4C22.8,46.4,22.8,46,22.7,45.6
		L22.7,45.6z M27.1,42.9c0.3-0.6,0.4-1.2,0.8-1.8c0.3,0.5,0.5,1.1,0.8,1.8H27.1z M30.6,44.4H33c0.3,0.8,0.3,1.7,0,2.4h-2.4
		C30.7,46,30.7,45.1,30.6,44.4L30.6,44.4z M32.3,42.9h-2c-0.3-0.8-0.5-1.5-0.9-2.3C30.5,40.9,31.6,41.8,32.3,42.9L32.3,42.9z
		 M26.5,40.6c-0.4,0.8-0.7,1.5-0.9,2.3h-2C24.1,41.8,25.2,40.9,26.5,40.6L26.5,40.6z M23.5,48.3h2c0.3,0.8,0.5,1.5,0.9,2.3
		C25.2,50.1,24.2,49.3,23.5,48.3z M29.3,50.5c0.4-0.8,0.7-1.5,0.9-2.3h2C31.6,49.3,30.5,50.1,29.3,50.5L29.3,50.5z"/>
</g>
</svg>
