<?xml version="1.0" encoding="utf-8"?>
<!-- Generator: Adobe Illustrator 26.0.1, SVG Export Plug-In . SVG Version: 6.00 Build 0)  -->
<svg version="1.1" id="レイヤー_1" xmlns="http://www.w3.org/2000/svg" xmlns:xlink="http://www.w3.org/1999/xlink" x="0px"
	 y="0px" viewBox="0 0 70 70" style="enable-background:new 0 0 70 70;" xml:space="preserve">
<style type="text/css">
	.st0{fill:#F5F5F4;}
	.st1{fill:none;}
	.st2{fill:#393A3A;}
	.st3{fill:none;stroke:#FFFFFF;stroke-width:2;stroke-miterlimit:10;}
	.st4{fill:#373A3A;}
</style>
<rect class="st0" width="70" height="70"/>
<g>
	<rect x="16" y="16" class="st1" width="38" height="38"/>
	<path class="st2" d="M46,40.6L46,40.6c-1.7,0-3.3,0.7-4.4,2l-11.9-6.2c0.2-0.9,0.2-1.8,0-2.7l12-6.2c2.2,2.4,5.9,2.7,8.4,0.5
		c2.4-2.2,2.7-5.9,0.5-8.4s-5.9-2.7-8.4-0.5c-1.7,1.4-2.4,3.7-1.8,5.9l-12,6.2c-2.1-2.4-5.9-2.7-8.3-0.5s-2.7,5.9-0.5,8.3
		c2.1,2.4,5.9,2.7,8.3,0.5c0.2-0.2,0.3-0.3,0.5-0.5l12,6.2c-0.8,3.1,1.2,6.3,4.3,7.1s6.3-1.2,7.1-4.3c0.8-3.1-1.2-6.3-4.3-7.1
		C46.9,40.7,46.5,40.6,46,40.6L46,40.6z"/>
	<path class="st3" d="M32.2,43.9h-1.1v-2c0-2-1.6-3.6-3.6-3.6S24,39.9,24,41.9l0,0v2h-1.1c-0.8,0-1.4,0.6-1.4,1.4l0,0l0,0V51
		c0,0.8,0.6,1.4,1.4,1.4h9.2c0.8,0,1.4-0.6,1.4-1.4l0,0v-5.7C33.6,44.5,32.9,43.9,32.2,43.9z M25.4,41.9c-0.1-1.2,0.8-2.2,2.1-2.2
		c1.1-0.1,2.1,0.8,2.2,1.9c0,0.1,0,0.2,0,0.3v2h-4.3V41.9z M23,51v-5.7h9.2V51H23z"/>
	<path class="st4" d="M32.2,43.9h-1.1v-2c0-2-1.6-3.6-3.6-3.6S24,39.9,24,41.9l0,0v2h-1.1c-0.8,0-1.4,0.6-1.4,1.4l0,0l0,0V51
		c0,0.8,0.6,1.4,1.4,1.4h9.2c0.8,0,1.4-0.6,1.4-1.4l0,0v-5.7C33.6,44.5,32.9,43.9,32.2,43.9z M25.4,41.9c-0.1-1.2,0.8-2.2,2.1-2.2
		c1.1-0.1,2.1,0.8,2.2,1.9c0,0.1,0,0.2,0,0.3v2h-4.3V41.9z M23,51v-5.7h9.2V51H23z"/>
</g>
</svg>
