<svg id="レイヤー_1" data-name="レイヤー 1" xmlns="http://www.w3.org/2000/svg" viewBox="0 0 60 60"><defs><style>.cls-1{fill:none;}.cls-2{fill:#38393a;}</style></defs><rect class="cls-1" width="60" height="60"/><rect class="cls-2" x="28.11" y="-5.13" width="4.5" height="70.71" transform="translate(-12.48 30.32) rotate(-45)"/><path class="cls-2" d="M35.38,38.42a10,10,0,1,0-13.8-13.8Z"/><path class="cls-2" d="M20,29.44c0,.19,0,.37,0,.56A10,10,0,0,0,30,40c.19,0,.38,0,.56,0Z"/><path class="cls-2" d="M16.27,19.31c3.81-2.82,8.56-5.08,13.73-5.08,12.59,0,22.43,13,22.75,15.75-.24,2-5.29,9.13-12.72,13.1l3.28,3.28c8.3-4.88,13.94-13,13.94-16.36C57.25,25,45,9.73,30,9.73c-6.39,0-12.29,2.79-16.95,6.37Z"/><path class="cls-2" d="M35.53,44.94a19.13,19.13,0,0,1-5.53.83C17.48,45.77,7.42,32.56,7.25,30c.08-1.15,2.16-4.47,5.58-7.76L9.64,19.05c-4.28,4.17-6.89,8.66-6.89,11C2.75,35,15,50.27,30,50.27a24.63,24.63,0,0,0,9-1.81Z"/></svg>