<svg xmlns="http://www.w3.org/2000/svg" width="40" height="40" viewBox="0 0 40 40">
    <defs>
        <style>
            .cls-1{fill:none}.cls-2{fill:#8e96a0}
        </style>
    </defs>
    <g id="action_make_visible" data-name="action make visible" transform="translate(-515 -340)">
        <path id="Rectangle_5968" d="M0 0h40v40H0z" class="cls-1" data-name="Rectangle 5968" transform="translate(515 340)"/>
        <path id="Path_7234" d="M28.1 19.02C26.636 17.564 23.56 15 20 15s-6.646 2.572-8.1 4.027a1.387 1.387 0 0 0 .1 2.051C13.5 22.547 16.518 25 20 25s6.522-2.47 8.013-3.938a1.379 1.379 0 0 0 .087-2.042zM20 23.5a3.5 3.5 0 1 1 3.5-3.5 3.5 3.5 0 0 1-3.5 3.5z" class="cls-2" data-name="Path 7234" transform="translate(514.508 340)"/>
        <path id="Path_7235" d="M21.577 19.348a.838.838 0 0 1-.838-.838.825.825 0 0 1 .421-.711A2.46 2.46 0 0 0 20 17.5a2.5 2.5 0 1 0 2.5 2.5 2.468 2.468 0 0 0-.234-1.04.823.823 0 0 1-.689.388z" class="cls-2" data-name="Path 7235" transform="translate(514.508 340)"/>
    </g>
</svg>
