<svg xmlns="http://www.w3.org/2000/svg" width="40" height="40" viewBox="0 0 40 40">
  <defs>
    <style>
      .cls-1 {
        fill: none;
      }

      .cls-2 {
        fill: #3a4248;
      }
    </style>
  </defs>
  <g id="swap" transform="translate(-834 -2038)">
    <rect id="Rectangle_9258" data-name="Rectangle 9258" class="cls-1" width="40" height="40" transform="translate(834 2038)"/>
    <path id="Union_87" data-name="Union 87" class="cls-2" d="M19567.4,12483.3l1.8-1.9h-5.1c-2.6,0-4.1-1.6-4.1-4.4h1.5c0,1.9.9,2.9,2.6,2.9h5.1l-1.9-1.9,1-1,3.7,3.7-3.6,3.6Zm4.1-6c0-1.9-.9-2.9-2.6-2.9h-5.1l1.9,1.9-1,1-3.7-3.7,3.6-3.6,1,1-1.8,1.9h5.1c2.6,0,4.1,1.6,4.1,4.4Z" transform="translate(-18712.002 -10419.002)"/>
  </g>
</svg>
