<svg viewBox="0 0 30 30" fill="none" xmlns="http://www.w3.org/2000/svg">
  <path
    d="M27 6.16016H3C2.72386 6.16016 2.5 6.38401 2.5 6.66016V7.91016C2.5 8.1863 2.72386 8.41016 3 8.41016H27C27.2761 8.41016 27.5 8.1863 27.5 7.91016V6.66016C27.5 6.38401 27.2761 6.16016 27 6.16016Z"
    fill="currentColor"/>
  <path
    d="M25.625 26.5449V11.2949C25.625 11.1623 25.5723 11.0351 25.4786 10.9414C25.3848 10.8476 25.2576 10.7949 25.125 10.7949H23.875C23.7424 10.7949 23.6152 10.8476 23.5214 10.9414C23.4277 11.0351 23.375 11.1623 23.375 11.2949V26.0449H6.625V11.2949C6.625 11.1623 6.57232 11.0351 6.47855 10.9414C6.38479 10.8476 6.25761 10.7949 6.125 10.7949H4.875C4.74239 10.7949 4.61521 10.8476 4.52145 10.9414C4.42768 11.0351 4.375 11.1623 4.375 11.2949V27.7949C4.375 27.9275 4.42768 28.0547 4.52145 28.1485C4.61521 28.2422 4.74239 28.2949 4.875 28.2949H25.125C25.2576 28.2949 25.3848 28.2422 25.4786 28.1485C25.5723 28.0547 25.625 27.9275 25.625 27.7949V26.5449Z"
    fill="currentColor"/>
  <path
    d="M20.25 1.70508H8C7.86739 1.70508 7.74021 1.75776 7.64645 1.85152C7.55268 1.94529 7.5 2.07247 7.5 2.20508V6.16008H9.75V4.45508C9.75 4.32247 9.80268 4.19529 9.89645 4.10152C9.99021 4.00776 10.1174 3.95508 10.25 3.95508H19.75C19.8826 3.95508 20.0098 4.00776 20.1036 4.10152C20.1973 4.19529 20.25 4.32247 20.25 4.45508V6.16008H22.5V2.20508C22.5 2.07247 22.4473 1.94529 22.3536 1.85152C22.2598 1.75776 22.1326 1.70508 22 1.70508H20.25Z"
    fill="currentColor"/>
  <path
    d="M12.3555 10.7949H11.1055C10.8293 10.7949 10.6055 11.0188 10.6055 11.2949V22.7949C10.6055 23.0711 10.8293 23.2949 11.1055 23.2949H12.3555C12.6316 23.2949 12.8555 23.0711 12.8555 22.7949V11.2949C12.8555 11.0188 12.6316 10.7949 12.3555 10.7949Z"
    fill="currentColor"/>
  <path
    d="M18.8945 10.7949H17.6445C17.3684 10.7949 17.1445 11.0188 17.1445 11.2949V22.7949C17.1445 23.0711 17.3684 23.2949 17.6445 23.2949H18.8945C19.1707 23.2949 19.3945 23.0711 19.3945 22.7949V11.2949C19.3945 11.0188 19.1707 10.7949 18.8945 10.7949Z"
    fill="currentColor"/>
</svg>
