<svg id="レイヤー_1" data-name="レイヤー 1" xmlns="http://www.w3.org/2000/svg" viewBox="0 0 60 60"><defs><style>.cls-1{fill:none;}.cls-2{fill:#393a3a;}</style></defs><rect class="cls-1" width="60" height="60"/><rect class="cls-2" x="5" y="12.32" width="50" height="4.5" rx="1"/><path class="cls-2" d="M51.25,53.09h0V22.59a1,1,0,0,0-1-1h-2.5a1,1,0,0,0-1,1v29.5H13.25V22.59a1,1,0,0,0-1-1H9.75a1,1,0,0,0-1,1v33a1,1,0,0,0,1,1h40.5a1,1,0,0,0,1-1h0Z"/><path class="cls-2" d="M40.5,3.41H16a1,1,0,0,0-1,1v7.91h4.5V8.91a1,1,0,0,1,1-1h19a1,1,0,0,1,1,1v3.41H45V4.41a1,1,0,0,0-1-1Z"/><rect class="cls-2" x="21.21" y="21.59" width="4.5" height="25" rx="1"/><rect class="cls-2" x="34.29" y="21.59" width="4.5" height="25" rx="1"/></svg>