<svg xmlns="http://www.w3.org/2000/svg" width="40" height="40" viewBox="0 0 40 40">
    <defs>
        <style>
            .cls-1,.cls-2{fill:none}.cls-2{stroke:rgba(58,66,72,.5);stroke-miterlimit:10;stroke-width:2px}.cls-3{fill:#fff}.cls-4,.cls-5{stroke:none}.cls-5{fill:rgba(58,66,72,.5)}
        </style>
    </defs>
    <g id="undo" transform="translate(-1133 -1511)">
        <path id="Rectangle_8778" d="M0 0h40v40H0z" class="cls-1" data-name="Rectangle 8778" transform="translate(1133 1511)"/>
        <g id="action-ico-undo" transform="translate(1144 1524)">
            <g id="action-ico-undo-2">
                <g id="Path_3266" class="cls-3" data-name="Path 3266">
                    <path d="M-1 4l7-4v2.9h4.7a5.9 5.9 0 0 1 0 11.8H6.3v-2h4.4a3.97 3.97 0 0 0 3.9-3.9 3.9 3.9 0 0 0-3.9-3.9H5.9v2.9z" class="cls-4" transform="translate(1)"/>
                    <path d="M6 0l-7 4 6.9 3.8V4.9h4.8c2.2 0 3.9 1.8 3.9 3.9 0 2.1-1.7 3.8-3.9 3.9H6.3v2h4.4c3.3 0 5.9-2.7 5.9-5.9S14 2.9 10.7 2.9H6V0m1-1.723V1.9h3.7c3.804 0 6.9 3.095 6.9 6.9s-3.096 6.9-6.9 6.9H5.3v-4h5.376a3.172 3.172 0 0 0 2.092-.907A2.803 2.803 0 0 0 13.6 8.8c0-1.599-1.301-2.9-2.9-2.9H6.9V9.492l-1.483-.816-6.9-3.8-1.56-.86 1.547-.884 7-4L7-1.723z" class="cls-5" transform="translate(1)"/>
                </g>
            </g>
        </g>
    </g>
</svg>
