<?xml version="1.0" encoding="utf-8"?>
<!-- Generator: Adobe Illustrator 26.0.1, SVG Export Plug-In . SVG Version: 6.00 Build 0)  -->
<svg version="1.1" id="レイヤー_1" xmlns="http://www.w3.org/2000/svg" xmlns:xlink="http://www.w3.org/1999/xlink" x="0px"
	 y="0px" viewBox="0 0 70 70" style="enable-background:new 0 0 70 70;" xml:space="preserve">
<style type="text/css">
	.st0{fill:#FFFFFF;}
	.st1{fill:none;}
	.st2{fill:#393A3A;}
</style>
<rect class="st0" width="70" height="70"/>
<g>
	<rect x="16" y="16" class="st1" width="38" height="38"/>
	<path class="st2" d="M35,52.2c-9.5,0-17.2-7.8-17.2-17.2S25.5,17.8,35,17.8S52.2,25.5,52.2,35l0,0C52.2,44.5,44.5,52.2,35,52.2z
		 M35,20.6c-8,0-14.4,6.4-14.4,14.4S27,49.4,35,49.4S49.4,43,49.4,35S43,20.6,35,20.6z"/>
	<path class="st2" d="M35,39.9c-4,0-7.2-3.2-7.2-7.2s3.2-7.2,7.2-7.2s7.2,3.2,7.2,7.2S39,39.9,35,39.9L35,39.9z M35,28.6
		c-2.4,0-4.2,1.9-4.2,4.2S32.6,37,35,37s4.2-1.9,4.2-4.2l0,0C39.2,30.4,37.4,28.6,35,28.6z"/>
	<path class="st2" d="M46.4,47.3h-2.9c0-2.3-4.3-3.6-8.5-3.6s-8.5,1.4-8.5,3.6h-2.9c0-4.5,5.7-6.5,11.4-6.5S46.4,42.9,46.4,47.3z"/>
</g>
</svg>
