<svg
  viewBox="0 0 15 15"
  fill="none"
  xmlns="http://www.w3.org/2000/svg"
>
  <path
    d="M13.585 4.855L11.625 6.535V4.5C11.6243 4.0195 11.4332 3.55887 11.0934 3.2191C10.7536 2.87933 10.293 2.68816 9.8125 2.6875H2.8125C2.332 2.68816 1.87137 2.87933 1.5316 3.2191C1.19183 3.55887 1.00066 4.0195 1 4.5V10.5C1.00066 10.9805 1.19183 11.4411 1.5316 11.7809C1.87137 12.1207 2.332 12.3118 2.8125 12.3125H9.8125C10.293 12.3118 10.7536 12.1207 11.0934 11.7809C11.4332 11.4411 11.6243 10.9805 11.625 10.5V8.465L13.585 10.145C13.6213 10.1769 13.666 10.1975 13.7137 10.2045C13.7614 10.2116 13.8102 10.2046 13.8541 10.1845C13.898 10.1644 13.9351 10.1321 13.961 10.0913C13.9869 10.0506 14.0004 10.0033 14 9.955V5.045C14.0004 4.99674 13.9869 4.94939 13.961 4.90867C13.9351 4.86795 13.898 4.83559 13.8541 4.8155C13.8102 4.79541 13.7614 4.78845 13.7137 4.79546C13.666 4.80247 13.6213 4.82315 13.585 4.855ZM10.5 10.5C10.5 10.6823 10.4276 10.8572 10.2986 10.9861C10.1697 11.1151 9.99484 11.1875 9.8125 11.1875H2.8125C2.63016 11.1875 2.4553 11.1151 2.32636 10.9861C2.19743 10.8572 2.125 10.6823 2.125 10.5V4.5C2.125 4.31766 2.19743 4.1428 2.32636 4.01386C2.4553 3.88493 2.63016 3.8125 2.8125 3.8125H9.8125C9.99484 3.8125 10.1697 3.88493 10.2986 4.01386C10.4276 4.1428 10.5 4.31766 10.5 4.5V10.5Z"
    fill="currentColor"/>
</svg>
