<svg xmlns="http://www.w3.org/2000/svg" width="21.998" height="18.961" viewBox="0 0 21.998 18.961">
    <defs>
        <style>
            .cls-1{fill:none}.cls-2,.cls-3{stroke:none}.cls-3{fill:#8e96a0}
        </style>
    </defs>
    <g id="weight-tool" transform="translate(.999 1)">
        <g id="Path_8126" class="cls-1" data-name="Path 8126">
            <path d="M19.949 73.251l-3.137-10.134a1.044 1.044 0 0 0-.988-.752h-3.31a3.152 3.152 0 0 0 .426-1.584A3.011 3.011 0 0 0 10 57.71a3.011 3.011 0 0 0-2.939 3.072 3.152 3.152 0 0 0 .426 1.584H4.176a1.044 1.044 0 0 0-.988.752L.051 73.251a1.079 1.079 0 0 0 .988 1.42H18.96a1.079 1.079 0 0 0 .989-1.42zM8.446 60.782a1.555 1.555 0 1 1 3.108 0 1.61 1.61 0 0 1-1.22 1.584h-.668a1.61 1.61 0 0 1-1.22-1.584z" class="cls-2" transform="translate(0 -57.71)"/>
            <path d="M18.96 74.67c.706.001 1.206-.718.989-1.419l-3.137-10.134a1.044 1.044 0 0 0-.988-.751h-3.31a3.152 3.152 0 0 0 .425-1.584c0-1.694-1.319-3.072-2.939-3.072s-2.939 1.378-2.939 3.072c0 .58.157 1.12.426 1.584h-3.31c-.451 0-.85.303-.989.751L.051 73.251c-.217.701.283 1.42.989 1.42h17.92M10 59.158c.857 0 1.554.728 1.554 1.624 0 .775-.524 1.423-1.22 1.584h-.668c-.696-.16-1.22-.809-1.22-1.584 0-.896.697-1.624 1.554-1.624m8.96 16.513H1.04a2.007 2.007 0 0 1-1.628-.83 2.13 2.13 0 0 1-.316-1.886l3.137-10.133a2.037 2.037 0 0 1 1.943-1.456h1.926a4.151 4.151 0 0 1-.041-.584c0-2.245 1.767-4.072 3.939-4.072s3.939 1.827 3.939 4.072c0 .196-.014.39-.041.584h1.926c.893 0 1.674.585 1.943 1.456l3.137 10.133a2.13 2.13 0 0 1-.316 1.887c-.389.527-.982.829-1.628.829zM9.81 61.366h.38a.626.626 0 0 0 .364-.584c0-.344-.249-.624-.554-.624-.305 0-.554.28-.554.624 0 .262.15.495.365.584z" class="cls-3" transform="translate(0 -57.71)"/>
        </g>
    </g>
</svg>
