<?xml version="1.0" encoding="UTF-8" standalone="no"?>
<!-- Generator: Adobe Illustrator 26.0.1, SVG Export Plug-In . SVG Version: 6.00 Build 0)  -->

<svg
   xmlns:dc="http://purl.org/dc/elements/1.1/"
   xmlns:cc="http://creativecommons.org/ns#"
   xmlns:rdf="http://www.w3.org/1999/02/22-rdf-syntax-ns#"
   xmlns:svg="http://www.w3.org/2000/svg"
   xmlns="http://www.w3.org/2000/svg"
   xmlns:xlink="http://www.w3.org/1999/xlink"
   xmlns:sodipodi="http://sodipodi.sourceforge.net/DTD/sodipodi-0.dtd"
   xmlns:inkscape="http://www.inkscape.org/namespaces/inkscape"
   version="1.1"
   id="レイヤー_1"
   x="0px"
   y="0px"
   viewBox="0 0 70 74.499998"
   xml:space="preserve"
   sodipodi:docname="zoom-in.svg"
   inkscape:version="0.92.4 (5da689c313, 2019-01-14)"><metadata
   id="metadata5360"><rdf:RDF><cc:Work
       rdf:about=""><dc:format>image/svg+xml</dc:format><dc:type
         rdf:resource="http://purl.org/dc/dcmitype/StillImage" /><dc:title></dc:title></cc:Work></rdf:RDF></metadata><defs
   id="defs5358" /><sodipodi:namedview
   pagecolor="#ffffff"
   bordercolor="#666666"
   borderopacity="1"
   objecttolerance="10"
   gridtolerance="10"
   guidetolerance="10"
   inkscape:pageopacity="0"
   inkscape:pageshadow="2"
   inkscape:window-width="1920"
   inkscape:window-height="1017"
   id="namedview5356"
   showgrid="false"
   inkscape:zoom="2.2250293"
   inkscape:cx="-135.80302"
   inkscape:cy="39.483345"
   inkscape:window-x="-8"
   inkscape:window-y="-8"
   inkscape:window-maximized="1"
   inkscape:current-layer="レイヤー_1"
   fit-margin-top="0"
   fit-margin-left="0"
   fit-margin-right="0"
   fit-margin-bottom="0" />
<style
   type="text/css"
   id="style5311">
	.st0{opacity:0.8;enable-background:new    ;}
	.st1{opacity:0.25;fill:#FFFFFF;}
	.st2{clip-path:url(#SVGID_00000000207714874715641580000006555089042676757905_);}
	.st3{fill:none;}
	.st4{fill:#FFFFFF;}
	.st5{clip-path:url(#SVGID_00000082342609774503722130000007281728082711965615_);}
</style>



<g
   id="g5433"
   transform="translate(0,76)"><path
     style="opacity:0.8;enable-background:new"
     inkscape:connector-curvature="0"
     id="path5313"
     d="m 70,-40.499994 c 0,-19.3 -15.7,-34.9 -35,-34.9 -19.3,0 -35,15.6 -35,34.9 0,0.1 0,0.2 0,0.3 v 0 79.9 0 c 0.1,19.2 15.7,34.8 35,34.8 19.3,0 34.9,-15.6 35,-34.8 v 0 -79.9 0 c 0,-0.1 0,-0.2 0,-0.3 z"
     class="st0" /><rect
     style="opacity:0.25;fill:#ffffff"
     id="rect5315"
     height="1"
     width="60"
     class="st1"
     y="-0.79999542"
     x="5" /><g
     transform="translate(0,-75.299994)"
     id="g5335">
	<g
   id="g5333">
		<g
   id="g5331">
			<defs
   id="defs5318">
				<ellipse
   ry="34.900002"
   rx="35"
   cy="34.799999"
   cx="35"
   id="SVGID_1_" />
			</defs>
			<clipPath
   id="SVGID_00000111904092262625994310000008548247798487413948_">
				<use
   height="100%"
   width="100%"
   y="0"
   x="0"
   id="use5320"
   style="overflow:visible"
   xlink:href="#SVGID_1_" />
			</clipPath>
			<g
   id="g5329"
   clip-path="url(#SVGID_00000111904092262625994310000008548247798487413948_)">
				<rect
   style="fill:none"
   id="rect5323"
   height="49.900002"
   width="50"
   class="st3"
   y="9.8999996"
   x="10" />
				<path
   style="fill:#ffffff"
   inkscape:connector-curvature="0"
   id="path5325"
   d="m 34,16.1 h 2 c 0.5,0 0.8,0.4 0.8,0.8 v 35.8 c 0,0.5 -0.4,0.8 -0.8,0.8 h -2 c -0.5,0 -0.8,-0.4 -0.8,-0.8 V 16.9 c -0.1,-0.4 0.3,-0.8 0.8,-0.8 z"
   class="st4" />
				<path
   style="fill:#ffffff"
   inkscape:connector-curvature="0"
   id="path5327"
   d="m 17.1,33 h 35.8 c 0.5,0 0.8,0.4 0.8,0.8 v 2.1 c 0,0.5 -0.4,0.8 -0.8,0.8 H 17.1 c -0.5,0 -0.8,-0.4 -0.8,-0.8 V 33.8 C 16.2,33.3 16.6,33 17.1,33 Z"
   class="st4" />
			</g>
		</g>
	</g>
</g><g
     transform="translate(0,-75.299994)"
     id="g5353">
	<g
   id="g5351">
		<g
   id="g5349">
			<defs
   id="defs5338">
				<ellipse
   ry="34.900002"
   rx="35"
   cy="114.9"
   cx="35"
   id="SVGID_00000073703084872185267470000004381059057160889223_" />
			</defs>
			<clipPath
   id="SVGID_00000117652534021248995160000014140836390117717920_">
				<use
   height="100%"
   width="100%"
   y="0"
   x="0"
   id="use5340"
   style="overflow:visible"
   xlink:href="#SVGID_00000073703084872185267470000004381059057160889223_" />
			</clipPath>
			<g
   id="g5347"
   clip-path="url(#SVGID_00000117652534021248995160000014140836390117717920_)">
				<rect
   style="fill:none"
   id="rect5343"
   height="49.900002"
   width="50"
   class="st3"
   y="90"
   x="10" />
				<path
   style="fill:#ffffff"
   inkscape:connector-curvature="0"
   id="path5345"
   d="m 17.1,113.1 h 35.8 c 0.5,0 0.8,0.4 0.8,0.8 v 2.1 c 0,0.5 -0.4,0.8 -0.8,0.8 H 17.1 c -0.5,0 -0.8,-0.4 -0.8,-0.8 v -2.1 c -0.1,-0.5 0.3,-0.8 0.8,-0.8 z"
   class="st4" />
			</g>
		</g>
	</g>
</g></g>
</svg>