<?xml version="1.0" encoding="UTF-8" standalone="no"?>
<!-- Generator: Adobe Illustrator 26.0.1, SVG Export Plug-In . SVG Version: 6.00 Build 0)  -->

<svg
   xmlns:dc="http://purl.org/dc/elements/1.1/"
   xmlns:cc="http://creativecommons.org/ns#"
   xmlns:rdf="http://www.w3.org/1999/02/22-rdf-syntax-ns#"
   xmlns:svg="http://www.w3.org/2000/svg"
   xmlns="http://www.w3.org/2000/svg"
   xmlns:xlink="http://www.w3.org/1999/xlink"
   xmlns:sodipodi="http://sodipodi.sourceforge.net/DTD/sodipodi-0.dtd"
   xmlns:inkscape="http://www.inkscape.org/namespaces/inkscape"
   version="1.1"
   id="レイヤー_1"
   x="0px"
   y="0px"
   viewBox="0 0 70 74.5"
   xml:space="preserve"
   sodipodi:docname="zoom-out.svg"
   inkscape:version="0.92.4 (5da689c313, 2019-01-14)"><metadata
   id="metadata5360"><rdf:RDF><cc:Work
       rdf:about=""><dc:format>image/svg+xml</dc:format><dc:type
         rdf:resource="http://purl.org/dc/dcmitype/StillImage" /><dc:title></dc:title></cc:Work></rdf:RDF></metadata><defs
   id="defs5358" /><sodipodi:namedview
   pagecolor="#ffffff"
   bordercolor="#666666"
   borderopacity="1"
   objecttolerance="10"
   gridtolerance="10"
   guidetolerance="10"
   inkscape:pageopacity="0"
   inkscape:pageshadow="2"
   inkscape:window-width="1920"
   inkscape:window-height="1017"
   id="namedview5356"
   showgrid="false"
   inkscape:zoom="8.9001173"
   inkscape:cx="33.363845"
   inkscape:cy="39.126415"
   inkscape:window-x="-8"
   inkscape:window-y="-8"
   inkscape:window-maximized="1"
   inkscape:current-layer="レイヤー_1" />
<style
   type="text/css"
   id="style5311">
	.st0{opacity:0.8;enable-background:new    ;}
	.st1{opacity:0.25;fill:#FFFFFF;}
	.st2{clip-path:url(#SVGID_00000000207714874715641580000006555089042676757905_);}
	.st3{fill:none;}
	.st4{fill:#FFFFFF;}
	.st5{clip-path:url(#SVGID_00000082342609774503722130000007281728082711965615_);}
</style>
<path
   class="st0"
   d="M 70,-40.7 C 70,-60 54.3,-75.6 35,-75.6 15.7,-75.6 0,-60 0,-40.7 c 0,0.1 0,0.2 0,0.3 v 0 79.9 0 c 0.1,19.2 15.7,34.8 35,34.8 19.3,0 34.9,-15.6 35,-34.8 v 0 -79.9 0 c 0,-0.1 0,-0.2 0,-0.3 z"
   id="path5313"
   inkscape:connector-curvature="0"
   style="opacity:0.8;enable-background:new" />
<rect
   x="5"
   y="-1"
   class="st1"
   width="60"
   height="1"
   id="rect5315"
   style="opacity:0.25;fill:#ffffff" />
<g
   id="g5335"
   transform="translate(0,-75.5)">
	<g
   id="g5333">
		<g
   id="g5331">
			<defs
   id="defs5318">
				<ellipse
   id="SVGID_1_"
   cx="35"
   cy="34.799999"
   rx="35"
   ry="34.900002" />
			</defs>
			<clipPath
   id="SVGID_00000111904092262625994310000008548247798487413948_">
				<use
   xlink:href="#SVGID_1_"
   style="overflow:visible"
   id="use5320"
   x="0"
   y="0"
   width="100%"
   height="100%" />
			</clipPath>
			<g
   clip-path="url(#SVGID_00000111904092262625994310000008548247798487413948_)"
   id="g5329">
				<rect
   x="10"
   y="9.8999996"
   class="st3"
   width="50"
   height="49.900002"
   id="rect5323"
   style="fill:none" />
				<path
   class="st4"
   d="m 34,16.1 h 2 c 0.5,0 0.8,0.4 0.8,0.8 v 35.8 c 0,0.5 -0.4,0.8 -0.8,0.8 h -2 c -0.5,0 -0.8,-0.4 -0.8,-0.8 V 16.9 c -0.1,-0.4 0.3,-0.8 0.8,-0.8 z"
   id="path5325"
   inkscape:connector-curvature="0"
   style="fill:#ffffff" />
				<path
   class="st4"
   d="m 17.1,33 h 35.8 c 0.5,0 0.8,0.4 0.8,0.8 v 2.1 c 0,0.5 -0.4,0.8 -0.8,0.8 H 17.1 c -0.5,0 -0.8,-0.4 -0.8,-0.8 V 33.8 C 16.2,33.3 16.6,33 17.1,33 Z"
   id="path5327"
   inkscape:connector-curvature="0"
   style="fill:#ffffff" />
			</g>
		</g>
	</g>
</g>
<g
   id="g5353"
   transform="translate(0,-75.5)">
	<g
   id="g5351">
		<g
   id="g5349">
			<defs
   id="defs5338">
				<ellipse
   id="SVGID_00000073703084872185267470000004381059057160889223_"
   cx="35"
   cy="114.9"
   rx="35"
   ry="34.900002" />
			</defs>
			<clipPath
   id="SVGID_00000117652534021248995160000014140836390117717920_">
				<use
   xlink:href="#SVGID_00000073703084872185267470000004381059057160889223_"
   style="overflow:visible"
   id="use5340"
   x="0"
   y="0"
   width="100%"
   height="100%" />
			</clipPath>
			<g
   clip-path="url(#SVGID_00000117652534021248995160000014140836390117717920_)"
   id="g5347">
				<rect
   x="10"
   y="90"
   class="st3"
   width="50"
   height="49.900002"
   id="rect5343"
   style="fill:none" />
				<path
   class="st4"
   d="m 17.1,113.1 h 35.8 c 0.5,0 0.8,0.4 0.8,0.8 v 2.1 c 0,0.5 -0.4,0.8 -0.8,0.8 H 17.1 c -0.5,0 -0.8,-0.4 -0.8,-0.8 v -2.1 c -0.1,-0.5 0.3,-0.8 0.8,-0.8 z"
   id="path5345"
   inkscape:connector-curvature="0"
   style="fill:#ffffff" />
			</g>
		</g>
	</g>
</g>
</svg>